%TF.GenerationSoftware,KiCad,Pcbnew,(5.1.6)-1*%
%TF.CreationDate,2021-11-13T13:18:40+01:00*%
%TF.ProjectId,MCP23017 Sensor Board,4d435032-3330-4313-9720-53656e736f72,rev?*%
%TF.SameCoordinates,Original*%
%TF.FileFunction,Legend,Top*%
%TF.FilePolarity,Positive*%
%FSLAX46Y46*%
G04 Gerber Fmt 4.6, Leading zero omitted, Abs format (unit mm)*
G04 Created by KiCad (PCBNEW (5.1.6)-1) date 2021-11-13 13:18:40*
%MOMM*%
%LPD*%
G01*
G04 APERTURE LIST*
%ADD10C,0.120000*%
%ADD11C,0.300000*%
%ADD12C,0.400000*%
%ADD13C,0.150000*%
G04 APERTURE END LIST*
D10*
X103000000Y-95250000D02*
X106500000Y-95250000D01*
X103000000Y-92000000D02*
X106500000Y-92000000D01*
X103000000Y-91000000D02*
X106500000Y-91000000D01*
X103000000Y-87750000D02*
X106500000Y-87750000D01*
X103000000Y-86750000D02*
X106500000Y-86750000D01*
X103000000Y-83500000D02*
X106500000Y-83500000D01*
X88250000Y-110500000D02*
X88250000Y-97750000D01*
X104500000Y-110500000D02*
X88250000Y-110500000D01*
X104500000Y-97750000D02*
X104500000Y-110500000D01*
X88250000Y-97750000D02*
X104500000Y-97750000D01*
X96000000Y-99000000D02*
X93750000Y-104250000D01*
X98500000Y-104250000D02*
X96000000Y-99000000D01*
X93750000Y-104250000D02*
X98500000Y-104250000D01*
D11*
X89392857Y-106653571D02*
X89392857Y-105153571D01*
X89392857Y-105867857D02*
X90250000Y-105867857D01*
X90250000Y-106653571D02*
X90250000Y-105153571D01*
X90964285Y-106653571D02*
X90964285Y-105653571D01*
X90964285Y-105153571D02*
X90892857Y-105225000D01*
X90964285Y-105296428D01*
X91035714Y-105225000D01*
X90964285Y-105153571D01*
X90964285Y-105296428D01*
X92321428Y-105653571D02*
X92321428Y-106867857D01*
X92250000Y-107010714D01*
X92178571Y-107082142D01*
X92035714Y-107153571D01*
X91821428Y-107153571D01*
X91678571Y-107082142D01*
X92321428Y-106582142D02*
X92178571Y-106653571D01*
X91892857Y-106653571D01*
X91750000Y-106582142D01*
X91678571Y-106510714D01*
X91607142Y-106367857D01*
X91607142Y-105939285D01*
X91678571Y-105796428D01*
X91750000Y-105725000D01*
X91892857Y-105653571D01*
X92178571Y-105653571D01*
X92321428Y-105725000D01*
X93035714Y-106653571D02*
X93035714Y-105153571D01*
X93678571Y-106653571D02*
X93678571Y-105867857D01*
X93607142Y-105725000D01*
X93464285Y-105653571D01*
X93250000Y-105653571D01*
X93107142Y-105725000D01*
X93035714Y-105796428D01*
X95321428Y-105153571D02*
X95821428Y-106653571D01*
X96321428Y-105153571D01*
X97035714Y-106653571D02*
X96892857Y-106582142D01*
X96821428Y-106510714D01*
X96750000Y-106367857D01*
X96750000Y-105939285D01*
X96821428Y-105796428D01*
X96892857Y-105725000D01*
X97035714Y-105653571D01*
X97250000Y-105653571D01*
X97392857Y-105725000D01*
X97464285Y-105796428D01*
X97535714Y-105939285D01*
X97535714Y-106367857D01*
X97464285Y-106510714D01*
X97392857Y-106582142D01*
X97250000Y-106653571D01*
X97035714Y-106653571D01*
X98392857Y-106653571D02*
X98250000Y-106582142D01*
X98178571Y-106439285D01*
X98178571Y-105153571D01*
X98750000Y-105653571D02*
X99321428Y-105653571D01*
X98964285Y-105153571D02*
X98964285Y-106439285D01*
X99035714Y-106582142D01*
X99178571Y-106653571D01*
X99321428Y-106653571D01*
X100464285Y-106653571D02*
X100464285Y-105867857D01*
X100392857Y-105725000D01*
X100250000Y-105653571D01*
X99964285Y-105653571D01*
X99821428Y-105725000D01*
X100464285Y-106582142D02*
X100321428Y-106653571D01*
X99964285Y-106653571D01*
X99821428Y-106582142D01*
X99750000Y-106439285D01*
X99750000Y-106296428D01*
X99821428Y-106153571D01*
X99964285Y-106082142D01*
X100321428Y-106082142D01*
X100464285Y-106010714D01*
X101821428Y-105653571D02*
X101821428Y-106867857D01*
X101750000Y-107010714D01*
X101678571Y-107082142D01*
X101535714Y-107153571D01*
X101321428Y-107153571D01*
X101178571Y-107082142D01*
X101821428Y-106582142D02*
X101678571Y-106653571D01*
X101392857Y-106653571D01*
X101250000Y-106582142D01*
X101178571Y-106510714D01*
X101107142Y-106367857D01*
X101107142Y-105939285D01*
X101178571Y-105796428D01*
X101250000Y-105725000D01*
X101392857Y-105653571D01*
X101678571Y-105653571D01*
X101821428Y-105725000D01*
X103107142Y-106582142D02*
X102964285Y-106653571D01*
X102678571Y-106653571D01*
X102535714Y-106582142D01*
X102464285Y-106439285D01*
X102464285Y-105867857D01*
X102535714Y-105725000D01*
X102678571Y-105653571D01*
X102964285Y-105653571D01*
X103107142Y-105725000D01*
X103178571Y-105867857D01*
X103178571Y-106010714D01*
X102464285Y-106153571D01*
X89178571Y-109203571D02*
X89035714Y-109132142D01*
X88964285Y-109060714D01*
X88892857Y-108917857D01*
X88892857Y-108489285D01*
X88964285Y-108346428D01*
X89035714Y-108275000D01*
X89178571Y-108203571D01*
X89392857Y-108203571D01*
X89535714Y-108275000D01*
X89607142Y-108346428D01*
X89678571Y-108489285D01*
X89678571Y-108917857D01*
X89607142Y-109060714D01*
X89535714Y-109132142D01*
X89392857Y-109203571D01*
X89178571Y-109203571D01*
X90321428Y-108203571D02*
X90321428Y-109203571D01*
X90321428Y-108346428D02*
X90392857Y-108275000D01*
X90535714Y-108203571D01*
X90750000Y-108203571D01*
X90892857Y-108275000D01*
X90964285Y-108417857D01*
X90964285Y-109203571D01*
X92821428Y-109203571D02*
X92821428Y-108203571D01*
X92821428Y-107703571D02*
X92750000Y-107775000D01*
X92821428Y-107846428D01*
X92892857Y-107775000D01*
X92821428Y-107703571D01*
X92821428Y-107846428D01*
X93535714Y-108203571D02*
X93535714Y-109203571D01*
X93535714Y-108346428D02*
X93607142Y-108275000D01*
X93750000Y-108203571D01*
X93964285Y-108203571D01*
X94107142Y-108275000D01*
X94178571Y-108417857D01*
X94178571Y-109203571D01*
X94892857Y-108203571D02*
X94892857Y-109203571D01*
X94892857Y-108346428D02*
X94964285Y-108275000D01*
X95107142Y-108203571D01*
X95321428Y-108203571D01*
X95464285Y-108275000D01*
X95535714Y-108417857D01*
X95535714Y-109203571D01*
X96821428Y-109132142D02*
X96678571Y-109203571D01*
X96392857Y-109203571D01*
X96250000Y-109132142D01*
X96178571Y-108989285D01*
X96178571Y-108417857D01*
X96250000Y-108275000D01*
X96392857Y-108203571D01*
X96678571Y-108203571D01*
X96821428Y-108275000D01*
X96892857Y-108417857D01*
X96892857Y-108560714D01*
X96178571Y-108703571D01*
X97535714Y-109203571D02*
X97535714Y-108203571D01*
X97535714Y-108489285D02*
X97607142Y-108346428D01*
X97678571Y-108275000D01*
X97821428Y-108203571D01*
X97964285Y-108203571D01*
X99607142Y-108203571D02*
X99607142Y-109703571D01*
X99607142Y-108275000D02*
X99750000Y-108203571D01*
X100035714Y-108203571D01*
X100178571Y-108275000D01*
X100250000Y-108346428D01*
X100321428Y-108489285D01*
X100321428Y-108917857D01*
X100250000Y-109060714D01*
X100178571Y-109132142D01*
X100035714Y-109203571D01*
X99750000Y-109203571D01*
X99607142Y-109132142D01*
X100964285Y-109203571D02*
X100964285Y-108203571D01*
X100964285Y-107703571D02*
X100892857Y-107775000D01*
X100964285Y-107846428D01*
X101035714Y-107775000D01*
X100964285Y-107703571D01*
X100964285Y-107846428D01*
X101678571Y-108203571D02*
X101678571Y-109203571D01*
X101678571Y-108346428D02*
X101750000Y-108275000D01*
X101892857Y-108203571D01*
X102107142Y-108203571D01*
X102250000Y-108275000D01*
X102321428Y-108417857D01*
X102321428Y-109203571D01*
X102964285Y-109132142D02*
X103107142Y-109203571D01*
X103392857Y-109203571D01*
X103535714Y-109132142D01*
X103607142Y-108989285D01*
X103607142Y-108917857D01*
X103535714Y-108775000D01*
X103392857Y-108703571D01*
X103178571Y-108703571D01*
X103035714Y-108632142D01*
X102964285Y-108489285D01*
X102964285Y-108417857D01*
X103035714Y-108275000D01*
X103178571Y-108203571D01*
X103392857Y-108203571D01*
X103535714Y-108275000D01*
D12*
X96000000Y-103321428D02*
X96142857Y-103464285D01*
X96000000Y-103607142D01*
X95857142Y-103464285D01*
X96000000Y-103321428D01*
X96000000Y-103607142D01*
X96000000Y-102464285D02*
X95857142Y-100750000D01*
X96000000Y-100607142D01*
X96142857Y-100750000D01*
X96000000Y-102464285D01*
X96000000Y-100607142D01*
D10*
X88250000Y-95500000D02*
X88250000Y-81750000D01*
X99000000Y-95500000D02*
X88250000Y-95500000D01*
X99000000Y-81750000D02*
X99000000Y-95500000D01*
X88250000Y-81750000D02*
X99000000Y-81750000D01*
D11*
X91678571Y-86853571D02*
X90821428Y-86853571D01*
X91250000Y-86853571D02*
X91250000Y-85353571D01*
X91107142Y-85567857D01*
X90964285Y-85710714D01*
X90821428Y-85782142D01*
X92321428Y-86710714D02*
X92392857Y-86782142D01*
X92321428Y-86853571D01*
X92250000Y-86782142D01*
X92321428Y-86710714D01*
X92321428Y-86853571D01*
X92321428Y-85925000D02*
X92392857Y-85996428D01*
X92321428Y-86067857D01*
X92250000Y-85996428D01*
X92321428Y-85925000D01*
X92321428Y-86067857D01*
X94964285Y-85425000D02*
X94821428Y-85353571D01*
X94607142Y-85353571D01*
X94392857Y-85425000D01*
X94250000Y-85567857D01*
X94178571Y-85710714D01*
X94107142Y-85996428D01*
X94107142Y-86210714D01*
X94178571Y-86496428D01*
X94250000Y-86639285D01*
X94392857Y-86782142D01*
X94607142Y-86853571D01*
X94750000Y-86853571D01*
X94964285Y-86782142D01*
X95035714Y-86710714D01*
X95035714Y-86210714D01*
X94750000Y-86210714D01*
X95678571Y-86853571D02*
X95678571Y-85353571D01*
X96535714Y-86853571D01*
X96535714Y-85353571D01*
X97250000Y-86853571D02*
X97250000Y-85353571D01*
X97607142Y-85353571D01*
X97821428Y-85425000D01*
X97964285Y-85567857D01*
X98035714Y-85710714D01*
X98107142Y-85996428D01*
X98107142Y-86210714D01*
X98035714Y-86496428D01*
X97964285Y-86639285D01*
X97821428Y-86782142D01*
X97607142Y-86853571D01*
X97250000Y-86853571D01*
X89178571Y-88046428D02*
X89250000Y-87975000D01*
X89392857Y-87903571D01*
X89750000Y-87903571D01*
X89892857Y-87975000D01*
X89964285Y-88046428D01*
X90035714Y-88189285D01*
X90035714Y-88332142D01*
X89964285Y-88546428D01*
X89107142Y-89403571D01*
X90035714Y-89403571D01*
X90678571Y-89260714D02*
X90750000Y-89332142D01*
X90678571Y-89403571D01*
X90607142Y-89332142D01*
X90678571Y-89260714D01*
X90678571Y-89403571D01*
X90678571Y-88475000D02*
X90750000Y-88546428D01*
X90678571Y-88617857D01*
X90607142Y-88546428D01*
X90678571Y-88475000D01*
X90678571Y-88617857D01*
X92464285Y-89332142D02*
X92678571Y-89403571D01*
X93035714Y-89403571D01*
X93178571Y-89332142D01*
X93250000Y-89260714D01*
X93321428Y-89117857D01*
X93321428Y-88975000D01*
X93250000Y-88832142D01*
X93178571Y-88760714D01*
X93035714Y-88689285D01*
X92750000Y-88617857D01*
X92607142Y-88546428D01*
X92535714Y-88475000D01*
X92464285Y-88332142D01*
X92464285Y-88189285D01*
X92535714Y-88046428D01*
X92607142Y-87975000D01*
X92750000Y-87903571D01*
X93107142Y-87903571D01*
X93321428Y-87975000D01*
X94821428Y-89260714D02*
X94750000Y-89332142D01*
X94535714Y-89403571D01*
X94392857Y-89403571D01*
X94178571Y-89332142D01*
X94035714Y-89189285D01*
X93964285Y-89046428D01*
X93892857Y-88760714D01*
X93892857Y-88546428D01*
X93964285Y-88260714D01*
X94035714Y-88117857D01*
X94178571Y-87975000D01*
X94392857Y-87903571D01*
X94535714Y-87903571D01*
X94750000Y-87975000D01*
X94821428Y-88046428D01*
X95464285Y-89403571D02*
X95464285Y-87903571D01*
X96321428Y-89403571D02*
X95678571Y-88546428D01*
X96321428Y-87903571D02*
X95464285Y-88760714D01*
X90750000Y-90453571D02*
X91678571Y-90453571D01*
X91178571Y-91025000D01*
X91392857Y-91025000D01*
X91535714Y-91096428D01*
X91607142Y-91167857D01*
X91678571Y-91310714D01*
X91678571Y-91667857D01*
X91607142Y-91810714D01*
X91535714Y-91882142D01*
X91392857Y-91953571D01*
X90964285Y-91953571D01*
X90821428Y-91882142D01*
X90750000Y-91810714D01*
X92321428Y-91810714D02*
X92392857Y-91882142D01*
X92321428Y-91953571D01*
X92250000Y-91882142D01*
X92321428Y-91810714D01*
X92321428Y-91953571D01*
X92321428Y-91025000D02*
X92392857Y-91096428D01*
X92321428Y-91167857D01*
X92250000Y-91096428D01*
X92321428Y-91025000D01*
X92321428Y-91167857D01*
X94964285Y-90525000D02*
X94821428Y-90453571D01*
X94607142Y-90453571D01*
X94392857Y-90525000D01*
X94250000Y-90667857D01*
X94178571Y-90810714D01*
X94107142Y-91096428D01*
X94107142Y-91310714D01*
X94178571Y-91596428D01*
X94250000Y-91739285D01*
X94392857Y-91882142D01*
X94607142Y-91953571D01*
X94750000Y-91953571D01*
X94964285Y-91882142D01*
X95035714Y-91810714D01*
X95035714Y-91310714D01*
X94750000Y-91310714D01*
X95678571Y-91953571D02*
X95678571Y-90453571D01*
X96535714Y-91953571D01*
X96535714Y-90453571D01*
X97250000Y-91953571D02*
X97250000Y-90453571D01*
X97607142Y-90453571D01*
X97821428Y-90525000D01*
X97964285Y-90667857D01*
X98035714Y-90810714D01*
X98107142Y-91096428D01*
X98107142Y-91310714D01*
X98035714Y-91596428D01*
X97964285Y-91739285D01*
X97821428Y-91882142D01*
X97607142Y-91953571D01*
X97250000Y-91953571D01*
X90000000Y-93503571D02*
X90000000Y-94503571D01*
X89642857Y-92932142D02*
X89285714Y-94003571D01*
X90214285Y-94003571D01*
X90785714Y-94360714D02*
X90857142Y-94432142D01*
X90785714Y-94503571D01*
X90714285Y-94432142D01*
X90785714Y-94360714D01*
X90785714Y-94503571D01*
X90785714Y-93575000D02*
X90857142Y-93646428D01*
X90785714Y-93717857D01*
X90714285Y-93646428D01*
X90785714Y-93575000D01*
X90785714Y-93717857D01*
X92571428Y-94432142D02*
X92785714Y-94503571D01*
X93142857Y-94503571D01*
X93285714Y-94432142D01*
X93357142Y-94360714D01*
X93428571Y-94217857D01*
X93428571Y-94075000D01*
X93357142Y-93932142D01*
X93285714Y-93860714D01*
X93142857Y-93789285D01*
X92857142Y-93717857D01*
X92714285Y-93646428D01*
X92642857Y-93575000D01*
X92571428Y-93432142D01*
X92571428Y-93289285D01*
X92642857Y-93146428D01*
X92714285Y-93075000D01*
X92857142Y-93003571D01*
X93214285Y-93003571D01*
X93428571Y-93075000D01*
X94071428Y-94503571D02*
X94071428Y-93003571D01*
X94428571Y-93003571D01*
X94642857Y-93075000D01*
X94785714Y-93217857D01*
X94857142Y-93360714D01*
X94928571Y-93646428D01*
X94928571Y-93860714D01*
X94857142Y-94146428D01*
X94785714Y-94289285D01*
X94642857Y-94432142D01*
X94428571Y-94503571D01*
X94071428Y-94503571D01*
X95500000Y-94075000D02*
X96214285Y-94075000D01*
X95357142Y-94503571D02*
X95857142Y-93003571D01*
X96357142Y-94503571D01*
D10*
X101250000Y-96250000D02*
X101250000Y-79500000D01*
X118500000Y-96250000D02*
X101250000Y-96250000D01*
X118500000Y-79500000D02*
X118500000Y-96250000D01*
X101250000Y-79500000D02*
X118500000Y-79500000D01*
D12*
X102964285Y-95166666D02*
X102869047Y-95071428D01*
X102678571Y-94785714D01*
X102583333Y-94595238D01*
X102488095Y-94309523D01*
X102392857Y-93833333D01*
X102392857Y-93452380D01*
X102488095Y-92976190D01*
X102583333Y-92690476D01*
X102678571Y-92500000D01*
X102869047Y-92214285D01*
X102964285Y-92119047D01*
X106583333Y-95166666D02*
X106678571Y-95071428D01*
X106869047Y-94785714D01*
X106964285Y-94595238D01*
X107059523Y-94309523D01*
X107154761Y-93833333D01*
X107154761Y-93452380D01*
X107059523Y-92976190D01*
X106964285Y-92690476D01*
X106869047Y-92500000D01*
X106678571Y-92214285D01*
X106583333Y-92119047D01*
X109630952Y-93071428D02*
X109630952Y-94404761D01*
X109630952Y-93261904D02*
X109726190Y-93166666D01*
X109916666Y-93071428D01*
X110202380Y-93071428D01*
X110392857Y-93166666D01*
X110488095Y-93357142D01*
X110488095Y-94404761D01*
X111440476Y-94214285D02*
X111535714Y-94309523D01*
X111440476Y-94404761D01*
X111345238Y-94309523D01*
X111440476Y-94214285D01*
X111440476Y-94404761D01*
X113250000Y-94309523D02*
X113059523Y-94404761D01*
X112678571Y-94404761D01*
X112488095Y-94309523D01*
X112392857Y-94214285D01*
X112297619Y-94023809D01*
X112297619Y-93452380D01*
X112392857Y-93261904D01*
X112488095Y-93166666D01*
X112678571Y-93071428D01*
X113059523Y-93071428D01*
X113250000Y-93166666D01*
X114107142Y-94214285D02*
X114202380Y-94309523D01*
X114107142Y-94404761D01*
X114011904Y-94309523D01*
X114107142Y-94214285D01*
X114107142Y-94404761D01*
X102913948Y-90916666D02*
X102818709Y-90821428D01*
X102628233Y-90535714D01*
X102532995Y-90345238D01*
X102437757Y-90059523D01*
X102342519Y-89583333D01*
X102342519Y-89202380D01*
X102437757Y-88726190D01*
X102532995Y-88440476D01*
X102628233Y-88250000D01*
X102818709Y-87964285D01*
X102913948Y-87869047D01*
X106532995Y-90916666D02*
X106628233Y-90821428D01*
X106818709Y-90535714D01*
X106913948Y-90345238D01*
X107009186Y-90059523D01*
X107104424Y-89583333D01*
X107104424Y-89202380D01*
X107009186Y-88726190D01*
X106913948Y-88440476D01*
X106818709Y-88250000D01*
X106628233Y-87964285D01*
X106532995Y-87869047D01*
X110437757Y-90059523D02*
X110247281Y-90154761D01*
X109866328Y-90154761D01*
X109675852Y-90059523D01*
X109580614Y-89964285D01*
X109485376Y-89773809D01*
X109485376Y-89202380D01*
X109580614Y-89011904D01*
X109675852Y-88916666D01*
X109866328Y-88821428D01*
X110247281Y-88821428D01*
X110437757Y-88916666D01*
X111580614Y-90154761D02*
X111390138Y-90059523D01*
X111294900Y-89964285D01*
X111199662Y-89773809D01*
X111199662Y-89202380D01*
X111294900Y-89011904D01*
X111390138Y-88916666D01*
X111580614Y-88821428D01*
X111866328Y-88821428D01*
X112056805Y-88916666D01*
X112152043Y-89011904D01*
X112247281Y-89202380D01*
X112247281Y-89773809D01*
X112152043Y-89964285D01*
X112056805Y-90059523D01*
X111866328Y-90154761D01*
X111580614Y-90154761D01*
X113104424Y-90154761D02*
X113104424Y-88821428D01*
X113104424Y-89011904D02*
X113199662Y-88916666D01*
X113390138Y-88821428D01*
X113675852Y-88821428D01*
X113866328Y-88916666D01*
X113961567Y-89107142D01*
X113961567Y-90154761D01*
X113961567Y-89107142D02*
X114056805Y-88916666D01*
X114247281Y-88821428D01*
X114532995Y-88821428D01*
X114723471Y-88916666D01*
X114818709Y-89107142D01*
X114818709Y-90154761D01*
X115771090Y-90154761D02*
X115771090Y-88821428D01*
X115771090Y-89011904D02*
X115866328Y-88916666D01*
X116056805Y-88821428D01*
X116342519Y-88821428D01*
X116532995Y-88916666D01*
X116628233Y-89107142D01*
X116628233Y-90154761D01*
X116628233Y-89107142D02*
X116723471Y-88916666D01*
X116913948Y-88821428D01*
X117199662Y-88821428D01*
X117390138Y-88916666D01*
X117485376Y-89107142D01*
X117485376Y-90154761D01*
X102916666Y-86666666D02*
X102821428Y-86571428D01*
X102630952Y-86285714D01*
X102535714Y-86095238D01*
X102440476Y-85809523D01*
X102345238Y-85333333D01*
X102345238Y-84952380D01*
X102440476Y-84476190D01*
X102535714Y-84190476D01*
X102630952Y-84000000D01*
X102821428Y-83714285D01*
X102916666Y-83619047D01*
X106535714Y-86666666D02*
X106630952Y-86571428D01*
X106821428Y-86285714D01*
X106916666Y-86095238D01*
X107011904Y-85809523D01*
X107107142Y-85333333D01*
X107107142Y-84952380D01*
X107011904Y-84476190D01*
X106916666Y-84190476D01*
X106821428Y-84000000D01*
X106630952Y-83714285D01*
X106535714Y-83619047D01*
X109583333Y-84571428D02*
X109583333Y-85904761D01*
X109583333Y-84761904D02*
X109678571Y-84666666D01*
X109869047Y-84571428D01*
X110154761Y-84571428D01*
X110345238Y-84666666D01*
X110440476Y-84857142D01*
X110440476Y-85904761D01*
X111392857Y-85714285D02*
X111488095Y-85809523D01*
X111392857Y-85904761D01*
X111297619Y-85809523D01*
X111392857Y-85714285D01*
X111392857Y-85904761D01*
X112630952Y-85904761D02*
X112440476Y-85809523D01*
X112345238Y-85714285D01*
X112249999Y-85523809D01*
X112249999Y-84952380D01*
X112345238Y-84761904D01*
X112440476Y-84666666D01*
X112630952Y-84571428D01*
X112916666Y-84571428D01*
X113107142Y-84666666D01*
X113202380Y-84761904D01*
X113297619Y-84952380D01*
X113297619Y-85523809D01*
X113202380Y-85714285D01*
X113107142Y-85809523D01*
X112916666Y-85904761D01*
X112630952Y-85904761D01*
X114154761Y-85714285D02*
X114249999Y-85809523D01*
X114154761Y-85904761D01*
X114059523Y-85809523D01*
X114154761Y-85714285D01*
X114154761Y-85904761D01*
X102547619Y-82083333D02*
X103500000Y-82083333D01*
X102357142Y-82654761D02*
X103023809Y-80654761D01*
X103690476Y-82654761D01*
X104642857Y-82654761D02*
X104452380Y-82559523D01*
X104357142Y-82369047D01*
X104357142Y-80654761D01*
X105690476Y-82654761D02*
X105500000Y-82559523D01*
X105404761Y-82369047D01*
X105404761Y-80654761D01*
X108357142Y-80654761D02*
X108738095Y-80654761D01*
X108928571Y-80750000D01*
X109119047Y-80940476D01*
X109214285Y-81321428D01*
X109214285Y-81988095D01*
X109119047Y-82369047D01*
X108928571Y-82559523D01*
X108738095Y-82654761D01*
X108357142Y-82654761D01*
X108166666Y-82559523D01*
X107976190Y-82369047D01*
X107880952Y-81988095D01*
X107880952Y-81321428D01*
X107976190Y-80940476D01*
X108166666Y-80750000D01*
X108357142Y-80654761D01*
X110071428Y-80654761D02*
X110071428Y-82273809D01*
X110166666Y-82464285D01*
X110261904Y-82559523D01*
X110452380Y-82654761D01*
X110833333Y-82654761D01*
X111023809Y-82559523D01*
X111119047Y-82464285D01*
X111214285Y-82273809D01*
X111214285Y-80654761D01*
X111880952Y-80654761D02*
X113023809Y-80654761D01*
X112452380Y-82654761D02*
X112452380Y-80654761D01*
X113595238Y-82559523D02*
X113785714Y-82654761D01*
X114166666Y-82654761D01*
X114357142Y-82559523D01*
X114452380Y-82369047D01*
X114452380Y-82273809D01*
X114357142Y-82083333D01*
X114166666Y-81988095D01*
X113880952Y-81988095D01*
X113690476Y-81892857D01*
X113595238Y-81702380D01*
X113595238Y-81607142D01*
X113690476Y-81416666D01*
X113880952Y-81321428D01*
X114166666Y-81321428D01*
X114357142Y-81416666D01*
D11*
X85071428Y-70428571D02*
X85357142Y-70428571D01*
X85500000Y-70500000D01*
X85642857Y-70642857D01*
X85714285Y-70928571D01*
X85714285Y-71428571D01*
X85642857Y-71714285D01*
X85500000Y-71857142D01*
X85357142Y-71928571D01*
X85071428Y-71928571D01*
X84928571Y-71857142D01*
X84785714Y-71714285D01*
X84714285Y-71428571D01*
X84714285Y-70928571D01*
X84785714Y-70642857D01*
X84928571Y-70500000D01*
X85071428Y-70428571D01*
X86357142Y-70428571D02*
X86357142Y-71642857D01*
X86428571Y-71785714D01*
X86500000Y-71857142D01*
X86642857Y-71928571D01*
X86928571Y-71928571D01*
X87071428Y-71857142D01*
X87142857Y-71785714D01*
X87214285Y-71642857D01*
X87214285Y-70428571D01*
X87714285Y-70428571D02*
X88571428Y-70428571D01*
X88142857Y-71928571D02*
X88142857Y-70428571D01*
X89857142Y-71928571D02*
X89000000Y-71928571D01*
X89428571Y-71928571D02*
X89428571Y-70428571D01*
X89285714Y-70642857D01*
X89142857Y-70785714D01*
X89000000Y-70857142D01*
X90428571Y-70571428D02*
X90500000Y-70500000D01*
X90642857Y-70428571D01*
X91000000Y-70428571D01*
X91142857Y-70500000D01*
X91214285Y-70571428D01*
X91285714Y-70714285D01*
X91285714Y-70857142D01*
X91214285Y-71071428D01*
X90357142Y-71928571D01*
X91285714Y-71928571D01*
X85071428Y-60428571D02*
X85357142Y-60428571D01*
X85500000Y-60500000D01*
X85642857Y-60642857D01*
X85714285Y-60928571D01*
X85714285Y-61428571D01*
X85642857Y-61714285D01*
X85500000Y-61857142D01*
X85357142Y-61928571D01*
X85071428Y-61928571D01*
X84928571Y-61857142D01*
X84785714Y-61714285D01*
X84714285Y-61428571D01*
X84714285Y-60928571D01*
X84785714Y-60642857D01*
X84928571Y-60500000D01*
X85071428Y-60428571D01*
X86357142Y-60428571D02*
X86357142Y-61642857D01*
X86428571Y-61785714D01*
X86500000Y-61857142D01*
X86642857Y-61928571D01*
X86928571Y-61928571D01*
X87071428Y-61857142D01*
X87142857Y-61785714D01*
X87214285Y-61642857D01*
X87214285Y-60428571D01*
X87714285Y-60428571D02*
X88571428Y-60428571D01*
X88142857Y-61928571D02*
X88142857Y-60428571D01*
X89857142Y-61928571D02*
X89000000Y-61928571D01*
X89428571Y-61928571D02*
X89428571Y-60428571D01*
X89285714Y-60642857D01*
X89142857Y-60785714D01*
X89000000Y-60857142D01*
X90357142Y-60428571D02*
X91285714Y-60428571D01*
X90785714Y-61000000D01*
X91000000Y-61000000D01*
X91142857Y-61071428D01*
X91214285Y-61142857D01*
X91285714Y-61285714D01*
X91285714Y-61642857D01*
X91214285Y-61785714D01*
X91142857Y-61857142D01*
X91000000Y-61928571D01*
X90571428Y-61928571D01*
X90428571Y-61857142D01*
X90357142Y-61785714D01*
X85071428Y-50428571D02*
X85357142Y-50428571D01*
X85500000Y-50500000D01*
X85642857Y-50642857D01*
X85714285Y-50928571D01*
X85714285Y-51428571D01*
X85642857Y-51714285D01*
X85500000Y-51857142D01*
X85357142Y-51928571D01*
X85071428Y-51928571D01*
X84928571Y-51857142D01*
X84785714Y-51714285D01*
X84714285Y-51428571D01*
X84714285Y-50928571D01*
X84785714Y-50642857D01*
X84928571Y-50500000D01*
X85071428Y-50428571D01*
X86357142Y-50428571D02*
X86357142Y-51642857D01*
X86428571Y-51785714D01*
X86500000Y-51857142D01*
X86642857Y-51928571D01*
X86928571Y-51928571D01*
X87071428Y-51857142D01*
X87142857Y-51785714D01*
X87214285Y-51642857D01*
X87214285Y-50428571D01*
X87714285Y-50428571D02*
X88571428Y-50428571D01*
X88142857Y-51928571D02*
X88142857Y-50428571D01*
X89857142Y-51928571D02*
X89000000Y-51928571D01*
X89428571Y-51928571D02*
X89428571Y-50428571D01*
X89285714Y-50642857D01*
X89142857Y-50785714D01*
X89000000Y-50857142D01*
X91142857Y-50928571D02*
X91142857Y-51928571D01*
X90785714Y-50357142D02*
X90428571Y-51428571D01*
X91357142Y-51428571D01*
X85071428Y-40428571D02*
X85357142Y-40428571D01*
X85500000Y-40500000D01*
X85642857Y-40642857D01*
X85714285Y-40928571D01*
X85714285Y-41428571D01*
X85642857Y-41714285D01*
X85500000Y-41857142D01*
X85357142Y-41928571D01*
X85071428Y-41928571D01*
X84928571Y-41857142D01*
X84785714Y-41714285D01*
X84714285Y-41428571D01*
X84714285Y-40928571D01*
X84785714Y-40642857D01*
X84928571Y-40500000D01*
X85071428Y-40428571D01*
X86357142Y-40428571D02*
X86357142Y-41642857D01*
X86428571Y-41785714D01*
X86500000Y-41857142D01*
X86642857Y-41928571D01*
X86928571Y-41928571D01*
X87071428Y-41857142D01*
X87142857Y-41785714D01*
X87214285Y-41642857D01*
X87214285Y-40428571D01*
X87714285Y-40428571D02*
X88571428Y-40428571D01*
X88142857Y-41928571D02*
X88142857Y-40428571D01*
X89857142Y-41928571D02*
X89000000Y-41928571D01*
X89428571Y-41928571D02*
X89428571Y-40428571D01*
X89285714Y-40642857D01*
X89142857Y-40785714D01*
X89000000Y-40857142D01*
X91214285Y-40428571D02*
X90500000Y-40428571D01*
X90428571Y-41142857D01*
X90500000Y-41071428D01*
X90642857Y-41000000D01*
X91000000Y-41000000D01*
X91142857Y-41071428D01*
X91214285Y-41142857D01*
X91285714Y-41285714D01*
X91285714Y-41642857D01*
X91214285Y-41785714D01*
X91142857Y-41857142D01*
X91000000Y-41928571D01*
X90642857Y-41928571D01*
X90500000Y-41857142D01*
X90428571Y-41785714D01*
X133035714Y-86178571D02*
X133035714Y-84678571D01*
X133750000Y-86178571D02*
X133750000Y-84678571D01*
X134607142Y-86178571D01*
X134607142Y-84678571D01*
X136107142Y-86178571D02*
X135250000Y-86178571D01*
X135678571Y-86178571D02*
X135678571Y-84678571D01*
X135535714Y-84892857D01*
X135392857Y-85035714D01*
X135250000Y-85107142D01*
X137464285Y-84678571D02*
X136750000Y-84678571D01*
X136678571Y-85392857D01*
X136750000Y-85321428D01*
X136892857Y-85250000D01*
X137250000Y-85250000D01*
X137392857Y-85321428D01*
X137464285Y-85392857D01*
X137535714Y-85535714D01*
X137535714Y-85892857D01*
X137464285Y-86035714D01*
X137392857Y-86107142D01*
X137250000Y-86178571D01*
X136892857Y-86178571D01*
X136750000Y-86107142D01*
X136678571Y-86035714D01*
X140035714Y-86178571D02*
X140035714Y-84678571D01*
X140750000Y-86178571D02*
X140750000Y-84678571D01*
X141607142Y-86178571D01*
X141607142Y-84678571D01*
X143107142Y-86178571D02*
X142250000Y-86178571D01*
X142678571Y-86178571D02*
X142678571Y-84678571D01*
X142535714Y-84892857D01*
X142392857Y-85035714D01*
X142250000Y-85107142D01*
X144392857Y-85178571D02*
X144392857Y-86178571D01*
X144035714Y-84607142D02*
X143678571Y-85678571D01*
X144607142Y-85678571D01*
X146035714Y-86428571D02*
X146035714Y-84928571D01*
X146750000Y-86428571D02*
X146750000Y-84928571D01*
X147607142Y-86428571D01*
X147607142Y-84928571D01*
X149107142Y-86428571D02*
X148250000Y-86428571D01*
X148678571Y-86428571D02*
X148678571Y-84928571D01*
X148535714Y-85142857D01*
X148392857Y-85285714D01*
X148250000Y-85357142D01*
X149607142Y-84928571D02*
X150535714Y-84928571D01*
X150035714Y-85500000D01*
X150250000Y-85500000D01*
X150392857Y-85571428D01*
X150464285Y-85642857D01*
X150535714Y-85785714D01*
X150535714Y-86142857D01*
X150464285Y-86285714D01*
X150392857Y-86357142D01*
X150250000Y-86428571D01*
X149821428Y-86428571D01*
X149678571Y-86357142D01*
X149607142Y-86285714D01*
X153178571Y-92214285D02*
X151678571Y-92214285D01*
X153178571Y-91500000D02*
X151678571Y-91500000D01*
X153178571Y-90642857D01*
X151678571Y-90642857D01*
X153178571Y-89142857D02*
X153178571Y-90000000D01*
X153178571Y-89571428D02*
X151678571Y-89571428D01*
X151892857Y-89714285D01*
X152035714Y-89857142D01*
X152107142Y-90000000D01*
X151821428Y-88571428D02*
X151750000Y-88500000D01*
X151678571Y-88357142D01*
X151678571Y-88000000D01*
X151750000Y-87857142D01*
X151821428Y-87785714D01*
X151964285Y-87714285D01*
X152107142Y-87714285D01*
X152321428Y-87785714D01*
X153178571Y-88642857D01*
X153178571Y-87714285D01*
X171071428Y-94035714D02*
X172571428Y-94035714D01*
X171071428Y-94750000D02*
X172571428Y-94750000D01*
X171071428Y-95607142D01*
X172571428Y-95607142D01*
X171071428Y-97107142D02*
X171071428Y-96250000D01*
X171071428Y-96678571D02*
X172571428Y-96678571D01*
X172357142Y-96535714D01*
X172214285Y-96392857D01*
X172142857Y-96250000D01*
X172571428Y-98035714D02*
X172571428Y-98178571D01*
X172500000Y-98321428D01*
X172428571Y-98392857D01*
X172285714Y-98464285D01*
X172000000Y-98535714D01*
X171642857Y-98535714D01*
X171357142Y-98464285D01*
X171214285Y-98392857D01*
X171142857Y-98321428D01*
X171071428Y-98178571D01*
X171071428Y-98035714D01*
X171142857Y-97892857D01*
X171214285Y-97821428D01*
X171357142Y-97750000D01*
X171642857Y-97678571D01*
X172000000Y-97678571D01*
X172285714Y-97750000D01*
X172428571Y-97821428D01*
X172500000Y-97892857D01*
X172571428Y-98035714D01*
X172678571Y-91000000D02*
X171178571Y-91000000D01*
X172678571Y-90285714D02*
X171178571Y-90285714D01*
X172678571Y-89428571D01*
X171178571Y-89428571D01*
X172678571Y-88642857D02*
X172678571Y-88357142D01*
X172607142Y-88214285D01*
X172535714Y-88142857D01*
X172321428Y-88000000D01*
X172035714Y-87928571D01*
X171464285Y-87928571D01*
X171321428Y-88000000D01*
X171250000Y-88071428D01*
X171178571Y-88214285D01*
X171178571Y-88500000D01*
X171250000Y-88642857D01*
X171321428Y-88714285D01*
X171464285Y-88785714D01*
X171821428Y-88785714D01*
X171964285Y-88714285D01*
X172035714Y-88642857D01*
X172107142Y-88500000D01*
X172107142Y-88214285D01*
X172035714Y-88071428D01*
X171964285Y-88000000D01*
X171821428Y-87928571D01*
X190571428Y-95000000D02*
X192071428Y-95000000D01*
X190571428Y-95714285D02*
X192071428Y-95714285D01*
X190571428Y-96571428D01*
X192071428Y-96571428D01*
X192071428Y-97142857D02*
X192071428Y-98142857D01*
X190571428Y-97500000D01*
X192178571Y-90250000D02*
X190678571Y-90250000D01*
X192178571Y-89535714D02*
X190678571Y-89535714D01*
X192178571Y-88678571D01*
X190678571Y-88678571D01*
X190678571Y-87321428D02*
X190678571Y-87607142D01*
X190750000Y-87750000D01*
X190821428Y-87821428D01*
X191035714Y-87964285D01*
X191321428Y-88035714D01*
X191892857Y-88035714D01*
X192035714Y-87964285D01*
X192107142Y-87892857D01*
X192178571Y-87750000D01*
X192178571Y-87464285D01*
X192107142Y-87321428D01*
X192035714Y-87250000D01*
X191892857Y-87178571D01*
X191535714Y-87178571D01*
X191392857Y-87250000D01*
X191321428Y-87321428D01*
X191250000Y-87464285D01*
X191250000Y-87750000D01*
X191321428Y-87892857D01*
X191392857Y-87964285D01*
X191535714Y-88035714D01*
X209821428Y-95000000D02*
X211321428Y-95000000D01*
X209821428Y-95714285D02*
X211321428Y-95714285D01*
X209821428Y-96571428D01*
X211321428Y-96571428D01*
X210821428Y-97928571D02*
X209821428Y-97928571D01*
X211392857Y-97571428D02*
X210321428Y-97214285D01*
X210321428Y-98142857D01*
X211428571Y-90250000D02*
X209928571Y-90250000D01*
X211428571Y-89535714D02*
X209928571Y-89535714D01*
X211428571Y-88678571D01*
X209928571Y-88678571D01*
X209928571Y-88107142D02*
X209928571Y-87178571D01*
X210500000Y-87678571D01*
X210500000Y-87464285D01*
X210571428Y-87321428D01*
X210642857Y-87250000D01*
X210785714Y-87178571D01*
X211142857Y-87178571D01*
X211285714Y-87250000D01*
X211357142Y-87321428D01*
X211428571Y-87464285D01*
X211428571Y-87892857D01*
X211357142Y-88035714D01*
X211285714Y-88107142D01*
X229321428Y-95000000D02*
X230821428Y-95000000D01*
X229321428Y-95714285D02*
X230821428Y-95714285D01*
X229321428Y-96571428D01*
X230821428Y-96571428D01*
X229321428Y-98071428D02*
X229321428Y-97214285D01*
X229321428Y-97642857D02*
X230821428Y-97642857D01*
X230607142Y-97500000D01*
X230464285Y-97357142D01*
X230392857Y-97214285D01*
D12*
X149688571Y-46954761D02*
X148736190Y-46954761D01*
X148640952Y-47907142D01*
X148736190Y-47811904D01*
X148926666Y-47716666D01*
X149402857Y-47716666D01*
X149593333Y-47811904D01*
X149688571Y-47907142D01*
X149783809Y-48097619D01*
X149783809Y-48573809D01*
X149688571Y-48764285D01*
X149593333Y-48859523D01*
X149402857Y-48954761D01*
X148926666Y-48954761D01*
X148736190Y-48859523D01*
X148640952Y-48764285D01*
X150355238Y-46954761D02*
X151021904Y-48954761D01*
X151688571Y-46954761D01*
X149879047Y-52164285D02*
X149783809Y-52259523D01*
X149498095Y-52354761D01*
X149307619Y-52354761D01*
X149021904Y-52259523D01*
X148831428Y-52069047D01*
X148736190Y-51878571D01*
X148640952Y-51497619D01*
X148640952Y-51211904D01*
X148736190Y-50830952D01*
X148831428Y-50640476D01*
X149021904Y-50450000D01*
X149307619Y-50354761D01*
X149498095Y-50354761D01*
X149783809Y-50450000D01*
X149879047Y-50545238D01*
X151021904Y-52354761D02*
X150831428Y-52259523D01*
X150736190Y-52164285D01*
X150640952Y-51973809D01*
X150640952Y-51402380D01*
X150736190Y-51211904D01*
X150831428Y-51116666D01*
X151021904Y-51021428D01*
X151307619Y-51021428D01*
X151498095Y-51116666D01*
X151593333Y-51211904D01*
X151688571Y-51402380D01*
X151688571Y-51973809D01*
X151593333Y-52164285D01*
X151498095Y-52259523D01*
X151307619Y-52354761D01*
X151021904Y-52354761D01*
X152545714Y-51021428D02*
X152545714Y-52354761D01*
X152545714Y-51211904D02*
X152640952Y-51116666D01*
X152831428Y-51021428D01*
X153117142Y-51021428D01*
X153307619Y-51116666D01*
X153402857Y-51307142D01*
X153402857Y-52354761D01*
X154164761Y-51021428D02*
X154640952Y-52354761D01*
X155117142Y-51021428D01*
X156640952Y-52259523D02*
X156450476Y-52354761D01*
X156069523Y-52354761D01*
X155879047Y-52259523D01*
X155783809Y-52069047D01*
X155783809Y-51307142D01*
X155879047Y-51116666D01*
X156069523Y-51021428D01*
X156450476Y-51021428D01*
X156640952Y-51116666D01*
X156736190Y-51307142D01*
X156736190Y-51497619D01*
X155783809Y-51688095D01*
X157593333Y-52354761D02*
X157593333Y-51021428D01*
X157593333Y-51402380D02*
X157688571Y-51211904D01*
X157783809Y-51116666D01*
X157974285Y-51021428D01*
X158164761Y-51021428D01*
X158545714Y-51021428D02*
X159307619Y-51021428D01*
X158831428Y-50354761D02*
X158831428Y-52069047D01*
X158926666Y-52259523D01*
X159117142Y-52354761D01*
X159307619Y-52354761D01*
D11*
X75000000Y-127178571D02*
X75071428Y-127035714D01*
X75071428Y-126821428D01*
X75000000Y-126607142D01*
X74857142Y-126464285D01*
X74714285Y-126392857D01*
X74428571Y-126321428D01*
X74214285Y-126321428D01*
X73928571Y-126392857D01*
X73785714Y-126464285D01*
X73642857Y-126607142D01*
X73571428Y-126821428D01*
X73571428Y-126964285D01*
X73642857Y-127178571D01*
X73714285Y-127250000D01*
X74214285Y-127250000D01*
X74214285Y-126964285D01*
X73571428Y-127892857D02*
X75071428Y-127892857D01*
X75071428Y-128464285D01*
X75000000Y-128607142D01*
X74928571Y-128678571D01*
X74785714Y-128750000D01*
X74571428Y-128750000D01*
X74428571Y-128678571D01*
X74357142Y-128607142D01*
X74285714Y-128464285D01*
X74285714Y-127892857D01*
X74357142Y-129892857D02*
X74285714Y-130107142D01*
X74214285Y-130178571D01*
X74071428Y-130250000D01*
X73857142Y-130250000D01*
X73714285Y-130178571D01*
X73642857Y-130107142D01*
X73571428Y-129964285D01*
X73571428Y-129392857D01*
X75071428Y-129392857D01*
X75071428Y-129892857D01*
X75000000Y-130035714D01*
X74928571Y-130107142D01*
X74785714Y-130178571D01*
X74642857Y-130178571D01*
X74500000Y-130107142D01*
X74428571Y-130035714D01*
X74357142Y-129892857D01*
X74357142Y-129392857D01*
X75071428Y-130750000D02*
X75071428Y-131750000D01*
X73571428Y-131107142D01*
D12*
X117821428Y-43904761D02*
X116678571Y-43904761D01*
X117250000Y-43904761D02*
X117250000Y-41904761D01*
X117059523Y-42190476D01*
X116869047Y-42380952D01*
X116678571Y-42476190D01*
X112154761Y-41904761D02*
X112345238Y-41904761D01*
X112535714Y-42000000D01*
X112630952Y-42095238D01*
X112726190Y-42285714D01*
X112821428Y-42666666D01*
X112821428Y-43142857D01*
X112726190Y-43523809D01*
X112630952Y-43714285D01*
X112535714Y-43809523D01*
X112345238Y-43904761D01*
X112154761Y-43904761D01*
X111964285Y-43809523D01*
X111869047Y-43714285D01*
X111773809Y-43523809D01*
X111678571Y-43142857D01*
X111678571Y-42666666D01*
X111773809Y-42285714D01*
X111869047Y-42095238D01*
X111964285Y-42000000D01*
X112154761Y-41904761D01*
X112154761Y-58654761D02*
X112345238Y-58654761D01*
X112535714Y-58750000D01*
X112630952Y-58845238D01*
X112726190Y-59035714D01*
X112821428Y-59416666D01*
X112821428Y-59892857D01*
X112726190Y-60273809D01*
X112630952Y-60464285D01*
X112535714Y-60559523D01*
X112345238Y-60654761D01*
X112154761Y-60654761D01*
X111964285Y-60559523D01*
X111869047Y-60464285D01*
X111773809Y-60273809D01*
X111678571Y-59892857D01*
X111678571Y-59416666D01*
X111773809Y-59035714D01*
X111869047Y-58845238D01*
X111964285Y-58750000D01*
X112154761Y-58654761D01*
X117821428Y-60654761D02*
X116678571Y-60654761D01*
X117250000Y-60654761D02*
X117250000Y-58654761D01*
X117059523Y-58940476D01*
X116869047Y-59130952D01*
X116678571Y-59226190D01*
D11*
X108178571Y-56500000D02*
X108892857Y-56500000D01*
X108035714Y-56928571D02*
X108535714Y-55428571D01*
X109035714Y-56928571D01*
X109464285Y-55571428D02*
X109535714Y-55500000D01*
X109678571Y-55428571D01*
X110035714Y-55428571D01*
X110178571Y-55500000D01*
X110250000Y-55571428D01*
X110321428Y-55714285D01*
X110321428Y-55857142D01*
X110250000Y-56071428D01*
X109392857Y-56928571D01*
X110321428Y-56928571D01*
X108178571Y-51750000D02*
X108892857Y-51750000D01*
X108035714Y-52178571D02*
X108535714Y-50678571D01*
X109035714Y-52178571D01*
X110321428Y-52178571D02*
X109464285Y-52178571D01*
X109892857Y-52178571D02*
X109892857Y-50678571D01*
X109750000Y-50892857D01*
X109607142Y-51035714D01*
X109464285Y-51107142D01*
X108178571Y-46750000D02*
X108892857Y-46750000D01*
X108035714Y-47178571D02*
X108535714Y-45678571D01*
X109035714Y-47178571D01*
X109821428Y-45678571D02*
X109964285Y-45678571D01*
X110107142Y-45750000D01*
X110178571Y-45821428D01*
X110250000Y-45964285D01*
X110321428Y-46250000D01*
X110321428Y-46607142D01*
X110250000Y-46892857D01*
X110178571Y-47035714D01*
X110107142Y-47107142D01*
X109964285Y-47178571D01*
X109821428Y-47178571D01*
X109678571Y-47107142D01*
X109607142Y-47035714D01*
X109535714Y-46892857D01*
X109464285Y-46607142D01*
X109464285Y-46250000D01*
X109535714Y-45964285D01*
X109607142Y-45821428D01*
X109678571Y-45750000D01*
X109821428Y-45678571D01*
D12*
X89297619Y-84404761D02*
X89297619Y-82404761D01*
X90154761Y-82595238D02*
X90250000Y-82500000D01*
X90440476Y-82404761D01*
X90916666Y-82404761D01*
X91107142Y-82500000D01*
X91202380Y-82595238D01*
X91297619Y-82785714D01*
X91297619Y-82976190D01*
X91202380Y-83261904D01*
X90059523Y-84404761D01*
X91297619Y-84404761D01*
X93297619Y-84214285D02*
X93202380Y-84309523D01*
X92916666Y-84404761D01*
X92726190Y-84404761D01*
X92440476Y-84309523D01*
X92250000Y-84119047D01*
X92154761Y-83928571D01*
X92059523Y-83547619D01*
X92059523Y-83261904D01*
X92154761Y-82880952D01*
X92250000Y-82690476D01*
X92440476Y-82500000D01*
X92726190Y-82404761D01*
X92916666Y-82404761D01*
X93202380Y-82500000D01*
X93297619Y-82595238D01*
D11*
X75571428Y-126321428D02*
X77071428Y-126321428D01*
X75571428Y-127678571D02*
X77071428Y-127678571D01*
X75642857Y-127678571D02*
X75571428Y-127535714D01*
X75571428Y-127250000D01*
X75642857Y-127107142D01*
X75714285Y-127035714D01*
X75857142Y-126964285D01*
X76285714Y-126964285D01*
X76428571Y-127035714D01*
X76500000Y-127107142D01*
X76571428Y-127250000D01*
X76571428Y-127535714D01*
X76500000Y-127678571D01*
X75642857Y-128964285D02*
X75571428Y-128821428D01*
X75571428Y-128535714D01*
X75642857Y-128392857D01*
X75785714Y-128321428D01*
X76357142Y-128321428D01*
X76500000Y-128392857D01*
X76571428Y-128535714D01*
X76571428Y-128821428D01*
X76500000Y-128964285D01*
X76357142Y-129035714D01*
X76214285Y-129035714D01*
X76071428Y-128321428D01*
X76571428Y-129678571D02*
X75571428Y-129678571D01*
X76428571Y-129678571D02*
X76500000Y-129750000D01*
X76571428Y-129892857D01*
X76571428Y-130107142D01*
X76500000Y-130250000D01*
X76357142Y-130321428D01*
X75571428Y-130321428D01*
X76571428Y-130821428D02*
X76571428Y-131392857D01*
X77071428Y-131035714D02*
X75785714Y-131035714D01*
X75642857Y-131107142D01*
X75571428Y-131250000D01*
X75571428Y-131392857D01*
X72571428Y-109250000D02*
X74071428Y-109250000D01*
X74071428Y-109821428D01*
X74000000Y-109964285D01*
X73928571Y-110035714D01*
X73785714Y-110107142D01*
X73571428Y-110107142D01*
X73428571Y-110035714D01*
X73357142Y-109964285D01*
X73285714Y-109821428D01*
X73285714Y-109250000D01*
X74071428Y-110607142D02*
X72571428Y-110964285D01*
X73642857Y-111250000D01*
X72571428Y-111535714D01*
X74071428Y-111892857D01*
X72571428Y-113321428D02*
X73285714Y-112821428D01*
X72571428Y-112464285D02*
X74071428Y-112464285D01*
X74071428Y-113035714D01*
X74000000Y-113178571D01*
X73928571Y-113250000D01*
X73785714Y-113321428D01*
X73571428Y-113321428D01*
X73428571Y-113250000D01*
X73357142Y-113178571D01*
X73285714Y-113035714D01*
X73285714Y-112464285D01*
D12*
X187726190Y-52892857D02*
X189250000Y-52892857D01*
X188488095Y-53654761D02*
X188488095Y-52130952D01*
X191250000Y-53654761D02*
X190107142Y-53654761D01*
X190678571Y-53654761D02*
X190678571Y-51654761D01*
X190488095Y-51940476D01*
X190297619Y-52130952D01*
X190107142Y-52226190D01*
X192011904Y-51845238D02*
X192107142Y-51750000D01*
X192297619Y-51654761D01*
X192773809Y-51654761D01*
X192964285Y-51750000D01*
X193059523Y-51845238D01*
X193154761Y-52035714D01*
X193154761Y-52226190D01*
X193059523Y-52511904D01*
X191916666Y-53654761D01*
X193154761Y-53654761D01*
X193726190Y-51654761D02*
X194392857Y-53654761D01*
X195059523Y-51654761D01*
X181226190Y-51750000D02*
X181035714Y-51654761D01*
X180750000Y-51654761D01*
X180464285Y-51750000D01*
X180273809Y-51940476D01*
X180178571Y-52130952D01*
X180083333Y-52511904D01*
X180083333Y-52797619D01*
X180178571Y-53178571D01*
X180273809Y-53369047D01*
X180464285Y-53559523D01*
X180750000Y-53654761D01*
X180940476Y-53654761D01*
X181226190Y-53559523D01*
X181321428Y-53464285D01*
X181321428Y-52797619D01*
X180940476Y-52797619D01*
X182178571Y-53654761D02*
X182178571Y-51654761D01*
X183321428Y-53654761D01*
X183321428Y-51654761D01*
X184273809Y-53654761D02*
X184273809Y-51654761D01*
X184750000Y-51654761D01*
X185035714Y-51750000D01*
X185226190Y-51940476D01*
X185321428Y-52130952D01*
X185416666Y-52511904D01*
X185416666Y-52797619D01*
X185321428Y-53178571D01*
X185226190Y-53369047D01*
X185035714Y-53559523D01*
X184750000Y-53654761D01*
X184273809Y-53654761D01*
D10*
%TO.C,R13*%
X114912779Y-62260000D02*
X114587221Y-62260000D01*
X114912779Y-61240000D02*
X114587221Y-61240000D01*
%TO.C,R2*%
X139587221Y-64490000D02*
X139912779Y-64490000D01*
X139587221Y-65510000D02*
X139912779Y-65510000D01*
%TO.C,R24*%
X121374721Y-88740000D02*
X121700279Y-88740000D01*
X121374721Y-89760000D02*
X121700279Y-89760000D01*
%TO.C,R20*%
X132624721Y-46740000D02*
X132950279Y-46740000D01*
X132624721Y-47760000D02*
X132950279Y-47760000D01*
%TO.C,R15*%
X108662779Y-64760000D02*
X108337221Y-64760000D01*
X108662779Y-63740000D02*
X108337221Y-63740000D01*
%TO.C,R10*%
X144624721Y-71240000D02*
X144950279Y-71240000D01*
X144624721Y-72260000D02*
X144950279Y-72260000D01*
%TO.C,C10*%
X205465000Y-42740302D02*
X204665000Y-42740302D01*
X205065000Y-42340302D02*
X205065000Y-43140302D01*
X203283000Y-50831000D02*
X202217000Y-50831000D01*
X203518000Y-50791000D02*
X201982000Y-50791000D01*
X203698000Y-50751000D02*
X201802000Y-50751000D01*
X203848000Y-50711000D02*
X201652000Y-50711000D01*
X203979000Y-50671000D02*
X201521000Y-50671000D01*
X204096000Y-50631000D02*
X201404000Y-50631000D01*
X204203000Y-50591000D02*
X201297000Y-50591000D01*
X204302000Y-50551000D02*
X201198000Y-50551000D01*
X204395000Y-50511000D02*
X201105000Y-50511000D01*
X204481000Y-50471000D02*
X201019000Y-50471000D01*
X204563000Y-50431000D02*
X200937000Y-50431000D01*
X204640000Y-50391000D02*
X200860000Y-50391000D01*
X204714000Y-50351000D02*
X200786000Y-50351000D01*
X204784000Y-50311000D02*
X200716000Y-50311000D01*
X201710000Y-50271000D02*
X200648000Y-50271000D01*
X204852000Y-50271000D02*
X203790000Y-50271000D01*
X201710000Y-50231000D02*
X200584000Y-50231000D01*
X204916000Y-50231000D02*
X203790000Y-50231000D01*
X201710000Y-50191000D02*
X200522000Y-50191000D01*
X204978000Y-50191000D02*
X203790000Y-50191000D01*
X201710000Y-50151000D02*
X200463000Y-50151000D01*
X205037000Y-50151000D02*
X203790000Y-50151000D01*
X201710000Y-50111000D02*
X200405000Y-50111000D01*
X205095000Y-50111000D02*
X203790000Y-50111000D01*
X201710000Y-50071000D02*
X200350000Y-50071000D01*
X205150000Y-50071000D02*
X203790000Y-50071000D01*
X201710000Y-50031000D02*
X200296000Y-50031000D01*
X205204000Y-50031000D02*
X203790000Y-50031000D01*
X201710000Y-49991000D02*
X200245000Y-49991000D01*
X205255000Y-49991000D02*
X203790000Y-49991000D01*
X201710000Y-49951000D02*
X200194000Y-49951000D01*
X205306000Y-49951000D02*
X203790000Y-49951000D01*
X201710000Y-49911000D02*
X200146000Y-49911000D01*
X205354000Y-49911000D02*
X203790000Y-49911000D01*
X201710000Y-49871000D02*
X200099000Y-49871000D01*
X205401000Y-49871000D02*
X203790000Y-49871000D01*
X201710000Y-49831000D02*
X200053000Y-49831000D01*
X205447000Y-49831000D02*
X203790000Y-49831000D01*
X201710000Y-49791000D02*
X200009000Y-49791000D01*
X205491000Y-49791000D02*
X203790000Y-49791000D01*
X201710000Y-49751000D02*
X199966000Y-49751000D01*
X205534000Y-49751000D02*
X203790000Y-49751000D01*
X201710000Y-49711000D02*
X199924000Y-49711000D01*
X205576000Y-49711000D02*
X203790000Y-49711000D01*
X201710000Y-49671000D02*
X199883000Y-49671000D01*
X205617000Y-49671000D02*
X203790000Y-49671000D01*
X201710000Y-49631000D02*
X199843000Y-49631000D01*
X205657000Y-49631000D02*
X203790000Y-49631000D01*
X201710000Y-49591000D02*
X199805000Y-49591000D01*
X205695000Y-49591000D02*
X203790000Y-49591000D01*
X201710000Y-49551000D02*
X199767000Y-49551000D01*
X205733000Y-49551000D02*
X203790000Y-49551000D01*
X201710000Y-49511000D02*
X199731000Y-49511000D01*
X205769000Y-49511000D02*
X203790000Y-49511000D01*
X201710000Y-49471000D02*
X199695000Y-49471000D01*
X205805000Y-49471000D02*
X203790000Y-49471000D01*
X201710000Y-49431000D02*
X199660000Y-49431000D01*
X205840000Y-49431000D02*
X203790000Y-49431000D01*
X201710000Y-49391000D02*
X199626000Y-49391000D01*
X205874000Y-49391000D02*
X203790000Y-49391000D01*
X201710000Y-49351000D02*
X199594000Y-49351000D01*
X205906000Y-49351000D02*
X203790000Y-49351000D01*
X201710000Y-49311000D02*
X199561000Y-49311000D01*
X205939000Y-49311000D02*
X203790000Y-49311000D01*
X201710000Y-49271000D02*
X199530000Y-49271000D01*
X205970000Y-49271000D02*
X203790000Y-49271000D01*
X201710000Y-49231000D02*
X199500000Y-49231000D01*
X206000000Y-49231000D02*
X203790000Y-49231000D01*
X201710000Y-49191000D02*
X199470000Y-49191000D01*
X206030000Y-49191000D02*
X203790000Y-49191000D01*
X201710000Y-49151000D02*
X199441000Y-49151000D01*
X206059000Y-49151000D02*
X203790000Y-49151000D01*
X201710000Y-49111000D02*
X199412000Y-49111000D01*
X206088000Y-49111000D02*
X203790000Y-49111000D01*
X201710000Y-49071000D02*
X199385000Y-49071000D01*
X206115000Y-49071000D02*
X203790000Y-49071000D01*
X201710000Y-49031000D02*
X199358000Y-49031000D01*
X206142000Y-49031000D02*
X203790000Y-49031000D01*
X201710000Y-48991000D02*
X199332000Y-48991000D01*
X206168000Y-48991000D02*
X203790000Y-48991000D01*
X201710000Y-48951000D02*
X199306000Y-48951000D01*
X206194000Y-48951000D02*
X203790000Y-48951000D01*
X201710000Y-48911000D02*
X199281000Y-48911000D01*
X206219000Y-48911000D02*
X203790000Y-48911000D01*
X201710000Y-48871000D02*
X199257000Y-48871000D01*
X206243000Y-48871000D02*
X203790000Y-48871000D01*
X201710000Y-48831000D02*
X199233000Y-48831000D01*
X206267000Y-48831000D02*
X203790000Y-48831000D01*
X201710000Y-48791000D02*
X199210000Y-48791000D01*
X206290000Y-48791000D02*
X203790000Y-48791000D01*
X201710000Y-48751000D02*
X199188000Y-48751000D01*
X206312000Y-48751000D02*
X203790000Y-48751000D01*
X201710000Y-48711000D02*
X199166000Y-48711000D01*
X206334000Y-48711000D02*
X203790000Y-48711000D01*
X201710000Y-48671000D02*
X199144000Y-48671000D01*
X206356000Y-48671000D02*
X203790000Y-48671000D01*
X201710000Y-48631000D02*
X199123000Y-48631000D01*
X206377000Y-48631000D02*
X203790000Y-48631000D01*
X201710000Y-48591000D02*
X199103000Y-48591000D01*
X206397000Y-48591000D02*
X203790000Y-48591000D01*
X201710000Y-48551000D02*
X199084000Y-48551000D01*
X206416000Y-48551000D02*
X203790000Y-48551000D01*
X201710000Y-48511000D02*
X199064000Y-48511000D01*
X206436000Y-48511000D02*
X203790000Y-48511000D01*
X201710000Y-48471000D02*
X199046000Y-48471000D01*
X206454000Y-48471000D02*
X203790000Y-48471000D01*
X201710000Y-48431000D02*
X199028000Y-48431000D01*
X206472000Y-48431000D02*
X203790000Y-48431000D01*
X201710000Y-48391000D02*
X199010000Y-48391000D01*
X206490000Y-48391000D02*
X203790000Y-48391000D01*
X201710000Y-48351000D02*
X198993000Y-48351000D01*
X206507000Y-48351000D02*
X203790000Y-48351000D01*
X201710000Y-48311000D02*
X198976000Y-48311000D01*
X206524000Y-48311000D02*
X203790000Y-48311000D01*
X201710000Y-48271000D02*
X198960000Y-48271000D01*
X206540000Y-48271000D02*
X203790000Y-48271000D01*
X201710000Y-48231000D02*
X198945000Y-48231000D01*
X206555000Y-48231000D02*
X203790000Y-48231000D01*
X206571000Y-48191000D02*
X198929000Y-48191000D01*
X206585000Y-48151000D02*
X198915000Y-48151000D01*
X206600000Y-48111000D02*
X198900000Y-48111000D01*
X206613000Y-48071000D02*
X198887000Y-48071000D01*
X206627000Y-48031000D02*
X198873000Y-48031000D01*
X206639000Y-47991000D02*
X198861000Y-47991000D01*
X206652000Y-47951000D02*
X198848000Y-47951000D01*
X206664000Y-47911000D02*
X198836000Y-47911000D01*
X206675000Y-47871000D02*
X198825000Y-47871000D01*
X206686000Y-47831000D02*
X198814000Y-47831000D01*
X206697000Y-47791000D02*
X198803000Y-47791000D01*
X206707000Y-47751000D02*
X198793000Y-47751000D01*
X206717000Y-47711000D02*
X198783000Y-47711000D01*
X206726000Y-47671000D02*
X198774000Y-47671000D01*
X206735000Y-47631000D02*
X198765000Y-47631000D01*
X206744000Y-47591000D02*
X198756000Y-47591000D01*
X206752000Y-47551000D02*
X198748000Y-47551000D01*
X206760000Y-47511000D02*
X198740000Y-47511000D01*
X206767000Y-47471000D02*
X198733000Y-47471000D01*
X206774000Y-47430000D02*
X198726000Y-47430000D01*
X206780000Y-47390000D02*
X198720000Y-47390000D01*
X206787000Y-47350000D02*
X198713000Y-47350000D01*
X206792000Y-47310000D02*
X198708000Y-47310000D01*
X206798000Y-47270000D02*
X198702000Y-47270000D01*
X206802000Y-47230000D02*
X198698000Y-47230000D01*
X206807000Y-47190000D02*
X198693000Y-47190000D01*
X206811000Y-47150000D02*
X198689000Y-47150000D01*
X206815000Y-47110000D02*
X198685000Y-47110000D01*
X206818000Y-47070000D02*
X198682000Y-47070000D01*
X206821000Y-47030000D02*
X198679000Y-47030000D01*
X206824000Y-46990000D02*
X198676000Y-46990000D01*
X206826000Y-46950000D02*
X198674000Y-46950000D01*
X206827000Y-46910000D02*
X198673000Y-46910000D01*
X206829000Y-46870000D02*
X198671000Y-46870000D01*
X206830000Y-46830000D02*
X198670000Y-46830000D01*
X206830000Y-46790000D02*
X198670000Y-46790000D01*
X206830000Y-46750000D02*
X198670000Y-46750000D01*
X206870000Y-46750000D02*
G75*
G03*
X206870000Y-46750000I-4120000J0D01*
G01*
%TO.C,C9*%
X211780000Y-134120000D02*
X211780000Y-130380000D01*
X219220000Y-134120000D02*
X219220000Y-130380000D01*
X219220000Y-130380000D02*
X211780000Y-130380000D01*
X219220000Y-134120000D02*
X211780000Y-134120000D01*
%TO.C,C8*%
X208310000Y-133000000D02*
X206370000Y-133000000D01*
X193190000Y-133000000D02*
X195130000Y-133000000D01*
X198730000Y-135620000D02*
X206370000Y-135620000D01*
X197830000Y-134720000D02*
X198730000Y-135620000D01*
X196930000Y-135620000D02*
X197830000Y-134720000D01*
X195130000Y-135620000D02*
X196930000Y-135620000D01*
X198730000Y-130380000D02*
X206370000Y-130380000D01*
X197830000Y-131280000D02*
X198730000Y-130380000D01*
X196930000Y-130380000D02*
X197830000Y-131280000D01*
X195130000Y-130380000D02*
X196930000Y-130380000D01*
X206370000Y-130380000D02*
X206370000Y-135620000D01*
X195130000Y-130380000D02*
X195130000Y-135620000D01*
X193930000Y-129500000D02*
X193930000Y-131300000D01*
X193030000Y-130400000D02*
X194830000Y-130400000D01*
%TO.C,C7*%
X78280000Y-130620000D02*
X78280000Y-126880000D01*
X85720000Y-130620000D02*
X85720000Y-126880000D01*
X85720000Y-126880000D02*
X78280000Y-126880000D01*
X85720000Y-130620000D02*
X78280000Y-130620000D01*
%TO.C,C6*%
X94750000Y-118690000D02*
X94750000Y-120630000D01*
X94750000Y-133810000D02*
X94750000Y-131870000D01*
X97370000Y-128270000D02*
X97370000Y-120630000D01*
X96470000Y-129170000D02*
X97370000Y-128270000D01*
X97370000Y-130070000D02*
X96470000Y-129170000D01*
X97370000Y-131870000D02*
X97370000Y-130070000D01*
X92130000Y-128270000D02*
X92130000Y-120630000D01*
X93030000Y-129170000D02*
X92130000Y-128270000D01*
X92130000Y-130070000D02*
X93030000Y-129170000D01*
X92130000Y-131870000D02*
X92130000Y-130070000D01*
X92130000Y-120630000D02*
X97370000Y-120630000D01*
X92130000Y-131870000D02*
X97370000Y-131870000D01*
X91250000Y-133070000D02*
X93050000Y-133070000D01*
X92150000Y-133970000D02*
X92150000Y-132170000D01*
%TO.C,C3*%
X129380000Y-52780000D02*
X133120000Y-52780000D01*
X129380000Y-60220000D02*
X133120000Y-60220000D01*
X133120000Y-60220000D02*
X133120000Y-52780000D01*
X129380000Y-60220000D02*
X129380000Y-52780000D01*
%TO.C,J10*%
X83870000Y-81800000D02*
X85400000Y-81800000D01*
X86600000Y-82400000D02*
X73600000Y-82400000D01*
X73600000Y-82400000D02*
X73600000Y-95400000D01*
X86600000Y-95400000D02*
X73600000Y-95400000D01*
X86600000Y-82400000D02*
X86600000Y-95400000D01*
%TO.C,R3*%
X119200000Y-99400000D02*
X119200000Y-129900000D01*
X105700000Y-99400000D02*
X105700000Y-129900000D01*
X119200000Y-99400000D02*
X105700000Y-99400000D01*
X119200000Y-129900000D02*
X105700000Y-129900000D01*
%TO.C,R9*%
X133200000Y-99400000D02*
X133200000Y-129900000D01*
X119700000Y-99400000D02*
X119700000Y-129900000D01*
X133200000Y-99400000D02*
X119700000Y-99400000D01*
X133200000Y-129900000D02*
X119700000Y-129900000D01*
%TO.C,U1*%
X125190000Y-80730000D02*
X126840000Y-80730000D01*
X126840000Y-80730000D02*
X126840000Y-45050000D01*
X126840000Y-45050000D02*
X121540000Y-45050000D01*
X121540000Y-45050000D02*
X121540000Y-80730000D01*
X121540000Y-80730000D02*
X123190000Y-80730000D01*
X123190000Y-80730000D02*
G75*
G02*
X125190000Y-80730000I1000000J0D01*
G01*
%TO.C,R8*%
X82970000Y-116010000D02*
X80230000Y-116010000D01*
X80230000Y-116010000D02*
X80230000Y-122550000D01*
X80230000Y-122550000D02*
X82970000Y-122550000D01*
X82970000Y-122550000D02*
X82970000Y-116010000D01*
X81600000Y-115240000D02*
X81600000Y-116010000D01*
X81600000Y-123320000D02*
X81600000Y-122550000D01*
%TO.C,J4*%
X83870000Y-97000000D02*
X85400000Y-97000000D01*
X86600000Y-97600000D02*
X73600000Y-97600000D01*
X73600000Y-97600000D02*
X73600000Y-110600000D01*
X86600000Y-110600000D02*
X73600000Y-110600000D01*
X86600000Y-97600000D02*
X86600000Y-110600000D01*
%TO.C,D6*%
X73464759Y-122246000D02*
X73464759Y-122876000D01*
X73149759Y-122561000D02*
X73779759Y-122561000D01*
X79491000Y-122198000D02*
X79491000Y-123002000D01*
X79451000Y-121967000D02*
X79451000Y-123233000D01*
X79411000Y-121798000D02*
X79411000Y-123402000D01*
X79371000Y-121660000D02*
X79371000Y-123540000D01*
X79331000Y-121541000D02*
X79331000Y-123659000D01*
X79291000Y-121435000D02*
X79291000Y-123765000D01*
X79251000Y-121338000D02*
X79251000Y-123862000D01*
X79211000Y-121250000D02*
X79211000Y-123950000D01*
X79171000Y-121168000D02*
X79171000Y-124032000D01*
X79131000Y-121091000D02*
X79131000Y-124109000D01*
X79091000Y-121019000D02*
X79091000Y-124181000D01*
X79051000Y-120950000D02*
X79051000Y-124250000D01*
X79011000Y-120886000D02*
X79011000Y-124314000D01*
X78971000Y-120824000D02*
X78971000Y-124376000D01*
X78931000Y-120766000D02*
X78931000Y-124434000D01*
X78891000Y-120710000D02*
X78891000Y-124490000D01*
X78851000Y-120656000D02*
X78851000Y-124544000D01*
X78811000Y-120605000D02*
X78811000Y-124595000D01*
X78771000Y-120556000D02*
X78771000Y-124644000D01*
X78731000Y-120508000D02*
X78731000Y-124692000D01*
X78691000Y-120463000D02*
X78691000Y-124737000D01*
X78651000Y-120418000D02*
X78651000Y-124782000D01*
X78611000Y-120376000D02*
X78611000Y-124824000D01*
X78571000Y-120335000D02*
X78571000Y-124865000D01*
X78531000Y-123640000D02*
X78531000Y-124905000D01*
X78531000Y-120295000D02*
X78531000Y-121560000D01*
X78491000Y-123640000D02*
X78491000Y-124943000D01*
X78491000Y-120257000D02*
X78491000Y-121560000D01*
X78451000Y-123640000D02*
X78451000Y-124980000D01*
X78451000Y-120220000D02*
X78451000Y-121560000D01*
X78411000Y-123640000D02*
X78411000Y-125016000D01*
X78411000Y-120184000D02*
X78411000Y-121560000D01*
X78371000Y-123640000D02*
X78371000Y-125050000D01*
X78371000Y-120150000D02*
X78371000Y-121560000D01*
X78331000Y-123640000D02*
X78331000Y-125084000D01*
X78331000Y-120116000D02*
X78331000Y-121560000D01*
X78291000Y-123640000D02*
X78291000Y-125116000D01*
X78291000Y-120084000D02*
X78291000Y-121560000D01*
X78251000Y-123640000D02*
X78251000Y-125148000D01*
X78251000Y-120052000D02*
X78251000Y-121560000D01*
X78211000Y-123640000D02*
X78211000Y-125178000D01*
X78211000Y-120022000D02*
X78211000Y-121560000D01*
X78171000Y-123640000D02*
X78171000Y-125207000D01*
X78171000Y-119993000D02*
X78171000Y-121560000D01*
X78131000Y-123640000D02*
X78131000Y-125236000D01*
X78131000Y-119964000D02*
X78131000Y-121560000D01*
X78091000Y-123640000D02*
X78091000Y-125264000D01*
X78091000Y-119936000D02*
X78091000Y-121560000D01*
X78051000Y-123640000D02*
X78051000Y-125290000D01*
X78051000Y-119910000D02*
X78051000Y-121560000D01*
X78011000Y-123640000D02*
X78011000Y-125316000D01*
X78011000Y-119884000D02*
X78011000Y-121560000D01*
X77971000Y-123640000D02*
X77971000Y-125342000D01*
X77971000Y-119858000D02*
X77971000Y-121560000D01*
X77931000Y-123640000D02*
X77931000Y-125366000D01*
X77931000Y-119834000D02*
X77931000Y-121560000D01*
X77891000Y-123640000D02*
X77891000Y-125390000D01*
X77891000Y-119810000D02*
X77891000Y-121560000D01*
X77851000Y-123640000D02*
X77851000Y-125412000D01*
X77851000Y-119788000D02*
X77851000Y-121560000D01*
X77811000Y-123640000D02*
X77811000Y-125434000D01*
X77811000Y-119766000D02*
X77811000Y-121560000D01*
X77771000Y-123640000D02*
X77771000Y-125456000D01*
X77771000Y-119744000D02*
X77771000Y-121560000D01*
X77731000Y-123640000D02*
X77731000Y-125476000D01*
X77731000Y-119724000D02*
X77731000Y-121560000D01*
X77691000Y-123640000D02*
X77691000Y-125496000D01*
X77691000Y-119704000D02*
X77691000Y-121560000D01*
X77651000Y-123640000D02*
X77651000Y-125516000D01*
X77651000Y-119684000D02*
X77651000Y-121560000D01*
X77611000Y-123640000D02*
X77611000Y-125534000D01*
X77611000Y-119666000D02*
X77611000Y-121560000D01*
X77571000Y-123640000D02*
X77571000Y-125552000D01*
X77571000Y-119648000D02*
X77571000Y-121560000D01*
X77531000Y-123640000D02*
X77531000Y-125570000D01*
X77531000Y-119630000D02*
X77531000Y-121560000D01*
X77491000Y-123640000D02*
X77491000Y-125586000D01*
X77491000Y-119614000D02*
X77491000Y-121560000D01*
X77451000Y-123640000D02*
X77451000Y-125602000D01*
X77451000Y-119598000D02*
X77451000Y-121560000D01*
X77411000Y-123640000D02*
X77411000Y-125618000D01*
X77411000Y-119582000D02*
X77411000Y-121560000D01*
X77371000Y-119567000D02*
X77371000Y-121560000D01*
X77331000Y-119553000D02*
X77331000Y-121560000D01*
X79520000Y-122600000D02*
G75*
G03*
X79520000Y-122600000I-3270000J0D01*
G01*
%TO.C,D1*%
X76554000Y-112664759D02*
X75924000Y-112664759D01*
X76239000Y-112349759D02*
X76239000Y-112979759D01*
X76602000Y-118691000D02*
X75798000Y-118691000D01*
X76833000Y-118651000D02*
X75567000Y-118651000D01*
X77002000Y-118611000D02*
X75398000Y-118611000D01*
X77140000Y-118571000D02*
X75260000Y-118571000D01*
X77259000Y-118531000D02*
X75141000Y-118531000D01*
X77365000Y-118491000D02*
X75035000Y-118491000D01*
X77462000Y-118451000D02*
X74938000Y-118451000D01*
X77550000Y-118411000D02*
X74850000Y-118411000D01*
X77632000Y-118371000D02*
X74768000Y-118371000D01*
X77709000Y-118331000D02*
X74691000Y-118331000D01*
X77781000Y-118291000D02*
X74619000Y-118291000D01*
X77850000Y-118251000D02*
X74550000Y-118251000D01*
X77914000Y-118211000D02*
X74486000Y-118211000D01*
X77976000Y-118171000D02*
X74424000Y-118171000D01*
X78034000Y-118131000D02*
X74366000Y-118131000D01*
X78090000Y-118091000D02*
X74310000Y-118091000D01*
X78144000Y-118051000D02*
X74256000Y-118051000D01*
X78195000Y-118011000D02*
X74205000Y-118011000D01*
X78244000Y-117971000D02*
X74156000Y-117971000D01*
X78292000Y-117931000D02*
X74108000Y-117931000D01*
X78337000Y-117891000D02*
X74063000Y-117891000D01*
X78382000Y-117851000D02*
X74018000Y-117851000D01*
X78424000Y-117811000D02*
X73976000Y-117811000D01*
X78465000Y-117771000D02*
X73935000Y-117771000D01*
X75160000Y-117731000D02*
X73895000Y-117731000D01*
X78505000Y-117731000D02*
X77240000Y-117731000D01*
X75160000Y-117691000D02*
X73857000Y-117691000D01*
X78543000Y-117691000D02*
X77240000Y-117691000D01*
X75160000Y-117651000D02*
X73820000Y-117651000D01*
X78580000Y-117651000D02*
X77240000Y-117651000D01*
X75160000Y-117611000D02*
X73784000Y-117611000D01*
X78616000Y-117611000D02*
X77240000Y-117611000D01*
X75160000Y-117571000D02*
X73750000Y-117571000D01*
X78650000Y-117571000D02*
X77240000Y-117571000D01*
X75160000Y-117531000D02*
X73716000Y-117531000D01*
X78684000Y-117531000D02*
X77240000Y-117531000D01*
X75160000Y-117491000D02*
X73684000Y-117491000D01*
X78716000Y-117491000D02*
X77240000Y-117491000D01*
X75160000Y-117451000D02*
X73652000Y-117451000D01*
X78748000Y-117451000D02*
X77240000Y-117451000D01*
X75160000Y-117411000D02*
X73622000Y-117411000D01*
X78778000Y-117411000D02*
X77240000Y-117411000D01*
X75160000Y-117371000D02*
X73593000Y-117371000D01*
X78807000Y-117371000D02*
X77240000Y-117371000D01*
X75160000Y-117331000D02*
X73564000Y-117331000D01*
X78836000Y-117331000D02*
X77240000Y-117331000D01*
X75160000Y-117291000D02*
X73536000Y-117291000D01*
X78864000Y-117291000D02*
X77240000Y-117291000D01*
X75160000Y-117251000D02*
X73510000Y-117251000D01*
X78890000Y-117251000D02*
X77240000Y-117251000D01*
X75160000Y-117211000D02*
X73484000Y-117211000D01*
X78916000Y-117211000D02*
X77240000Y-117211000D01*
X75160000Y-117171000D02*
X73458000Y-117171000D01*
X78942000Y-117171000D02*
X77240000Y-117171000D01*
X75160000Y-117131000D02*
X73434000Y-117131000D01*
X78966000Y-117131000D02*
X77240000Y-117131000D01*
X75160000Y-117091000D02*
X73410000Y-117091000D01*
X78990000Y-117091000D02*
X77240000Y-117091000D01*
X75160000Y-117051000D02*
X73388000Y-117051000D01*
X79012000Y-117051000D02*
X77240000Y-117051000D01*
X75160000Y-117011000D02*
X73366000Y-117011000D01*
X79034000Y-117011000D02*
X77240000Y-117011000D01*
X75160000Y-116971000D02*
X73344000Y-116971000D01*
X79056000Y-116971000D02*
X77240000Y-116971000D01*
X75160000Y-116931000D02*
X73324000Y-116931000D01*
X79076000Y-116931000D02*
X77240000Y-116931000D01*
X75160000Y-116891000D02*
X73304000Y-116891000D01*
X79096000Y-116891000D02*
X77240000Y-116891000D01*
X75160000Y-116851000D02*
X73284000Y-116851000D01*
X79116000Y-116851000D02*
X77240000Y-116851000D01*
X75160000Y-116811000D02*
X73266000Y-116811000D01*
X79134000Y-116811000D02*
X77240000Y-116811000D01*
X75160000Y-116771000D02*
X73248000Y-116771000D01*
X79152000Y-116771000D02*
X77240000Y-116771000D01*
X75160000Y-116731000D02*
X73230000Y-116731000D01*
X79170000Y-116731000D02*
X77240000Y-116731000D01*
X75160000Y-116691000D02*
X73214000Y-116691000D01*
X79186000Y-116691000D02*
X77240000Y-116691000D01*
X75160000Y-116651000D02*
X73198000Y-116651000D01*
X79202000Y-116651000D02*
X77240000Y-116651000D01*
X75160000Y-116611000D02*
X73182000Y-116611000D01*
X79218000Y-116611000D02*
X77240000Y-116611000D01*
X79233000Y-116571000D02*
X77240000Y-116571000D01*
X79247000Y-116531000D02*
X77240000Y-116531000D01*
X79470000Y-115450000D02*
G75*
G03*
X79470000Y-115450000I-3270000J0D01*
G01*
%TO.C,C2*%
X133380000Y-60220000D02*
X133380000Y-52780000D01*
X137120000Y-60220000D02*
X137120000Y-52780000D01*
X133380000Y-60220000D02*
X137120000Y-60220000D01*
X133380000Y-52780000D02*
X137120000Y-52780000D01*
%TO.C,JP1*%
X110900000Y-54400000D02*
X118500000Y-54400000D01*
X110900000Y-58000000D02*
X118500000Y-58000000D01*
X110900000Y-54400000D02*
X110900000Y-58000000D01*
X118500000Y-54400000D02*
X118500000Y-58000000D01*
%TO.C,JP3*%
X110900000Y-44800000D02*
X118500000Y-44800000D01*
X110900000Y-48400000D02*
X118500000Y-48400000D01*
X110900000Y-44800000D02*
X110900000Y-48400000D01*
X118500000Y-44800000D02*
X118500000Y-48400000D01*
%TO.C,JP2*%
X110900000Y-49600000D02*
X118500000Y-49600000D01*
X110900000Y-53200000D02*
X118500000Y-53200000D01*
X110900000Y-49600000D02*
X110900000Y-53200000D01*
X118500000Y-49600000D02*
X118500000Y-53200000D01*
%TO.C,U2*%
X164000000Y-53880000D02*
X164000000Y-43230000D01*
X164000000Y-43220000D02*
X147240000Y-43220000D01*
X147240000Y-43220000D02*
X147240000Y-53880000D01*
X147240000Y-53880000D02*
X164000000Y-53880000D01*
%TO.C,J1*%
X192020000Y-49340000D02*
X181860000Y-49340000D01*
X192020000Y-50610000D02*
X192020000Y-42990000D01*
X192020000Y-42990000D02*
X181860000Y-42990000D01*
X181860000Y-42990000D02*
X181860000Y-50610000D01*
X181860000Y-50610000D02*
X192020000Y-50610000D01*
%TO.C,C5*%
X165330000Y-52220000D02*
X165330000Y-44780000D01*
X169070000Y-52220000D02*
X169070000Y-44780000D01*
X165330000Y-52220000D02*
X169070000Y-52220000D01*
X165330000Y-44780000D02*
X169070000Y-44780000D01*
%TO.C,C4*%
X179920000Y-47900000D02*
G75*
G03*
X179920000Y-47900000I-4120000J0D01*
G01*
X171720000Y-47900000D02*
X179880000Y-47900000D01*
X171720000Y-47860000D02*
X179880000Y-47860000D01*
X171720000Y-47820000D02*
X179880000Y-47820000D01*
X171721000Y-47780000D02*
X179879000Y-47780000D01*
X171723000Y-47740000D02*
X179877000Y-47740000D01*
X171724000Y-47700000D02*
X179876000Y-47700000D01*
X171726000Y-47660000D02*
X179874000Y-47660000D01*
X171729000Y-47620000D02*
X179871000Y-47620000D01*
X171732000Y-47580000D02*
X179868000Y-47580000D01*
X171735000Y-47540000D02*
X179865000Y-47540000D01*
X171739000Y-47500000D02*
X179861000Y-47500000D01*
X171743000Y-47460000D02*
X179857000Y-47460000D01*
X171748000Y-47420000D02*
X179852000Y-47420000D01*
X171752000Y-47380000D02*
X179848000Y-47380000D01*
X171758000Y-47340000D02*
X179842000Y-47340000D01*
X171763000Y-47300000D02*
X179837000Y-47300000D01*
X171770000Y-47260000D02*
X179830000Y-47260000D01*
X171776000Y-47220000D02*
X179824000Y-47220000D01*
X171783000Y-47179000D02*
X179817000Y-47179000D01*
X171790000Y-47139000D02*
X179810000Y-47139000D01*
X171798000Y-47099000D02*
X179802000Y-47099000D01*
X171806000Y-47059000D02*
X179794000Y-47059000D01*
X171815000Y-47019000D02*
X179785000Y-47019000D01*
X171824000Y-46979000D02*
X179776000Y-46979000D01*
X171833000Y-46939000D02*
X179767000Y-46939000D01*
X171843000Y-46899000D02*
X179757000Y-46899000D01*
X171853000Y-46859000D02*
X179747000Y-46859000D01*
X171864000Y-46819000D02*
X179736000Y-46819000D01*
X171875000Y-46779000D02*
X179725000Y-46779000D01*
X171886000Y-46739000D02*
X179714000Y-46739000D01*
X171898000Y-46699000D02*
X179702000Y-46699000D01*
X171911000Y-46659000D02*
X179689000Y-46659000D01*
X171923000Y-46619000D02*
X179677000Y-46619000D01*
X171937000Y-46579000D02*
X179663000Y-46579000D01*
X171950000Y-46539000D02*
X179650000Y-46539000D01*
X171965000Y-46499000D02*
X179635000Y-46499000D01*
X171979000Y-46459000D02*
X179621000Y-46459000D01*
X171995000Y-46419000D02*
X174760000Y-46419000D01*
X176840000Y-46419000D02*
X179605000Y-46419000D01*
X172010000Y-46379000D02*
X174760000Y-46379000D01*
X176840000Y-46379000D02*
X179590000Y-46379000D01*
X172026000Y-46339000D02*
X174760000Y-46339000D01*
X176840000Y-46339000D02*
X179574000Y-46339000D01*
X172043000Y-46299000D02*
X174760000Y-46299000D01*
X176840000Y-46299000D02*
X179557000Y-46299000D01*
X172060000Y-46259000D02*
X174760000Y-46259000D01*
X176840000Y-46259000D02*
X179540000Y-46259000D01*
X172078000Y-46219000D02*
X174760000Y-46219000D01*
X176840000Y-46219000D02*
X179522000Y-46219000D01*
X172096000Y-46179000D02*
X174760000Y-46179000D01*
X176840000Y-46179000D02*
X179504000Y-46179000D01*
X172114000Y-46139000D02*
X174760000Y-46139000D01*
X176840000Y-46139000D02*
X179486000Y-46139000D01*
X172134000Y-46099000D02*
X174760000Y-46099000D01*
X176840000Y-46099000D02*
X179466000Y-46099000D01*
X172153000Y-46059000D02*
X174760000Y-46059000D01*
X176840000Y-46059000D02*
X179447000Y-46059000D01*
X172173000Y-46019000D02*
X174760000Y-46019000D01*
X176840000Y-46019000D02*
X179427000Y-46019000D01*
X172194000Y-45979000D02*
X174760000Y-45979000D01*
X176840000Y-45979000D02*
X179406000Y-45979000D01*
X172216000Y-45939000D02*
X174760000Y-45939000D01*
X176840000Y-45939000D02*
X179384000Y-45939000D01*
X172238000Y-45899000D02*
X174760000Y-45899000D01*
X176840000Y-45899000D02*
X179362000Y-45899000D01*
X172260000Y-45859000D02*
X174760000Y-45859000D01*
X176840000Y-45859000D02*
X179340000Y-45859000D01*
X172283000Y-45819000D02*
X174760000Y-45819000D01*
X176840000Y-45819000D02*
X179317000Y-45819000D01*
X172307000Y-45779000D02*
X174760000Y-45779000D01*
X176840000Y-45779000D02*
X179293000Y-45779000D01*
X172331000Y-45739000D02*
X174760000Y-45739000D01*
X176840000Y-45739000D02*
X179269000Y-45739000D01*
X172356000Y-45699000D02*
X174760000Y-45699000D01*
X176840000Y-45699000D02*
X179244000Y-45699000D01*
X172382000Y-45659000D02*
X174760000Y-45659000D01*
X176840000Y-45659000D02*
X179218000Y-45659000D01*
X172408000Y-45619000D02*
X174760000Y-45619000D01*
X176840000Y-45619000D02*
X179192000Y-45619000D01*
X172435000Y-45579000D02*
X174760000Y-45579000D01*
X176840000Y-45579000D02*
X179165000Y-45579000D01*
X172462000Y-45539000D02*
X174760000Y-45539000D01*
X176840000Y-45539000D02*
X179138000Y-45539000D01*
X172491000Y-45499000D02*
X174760000Y-45499000D01*
X176840000Y-45499000D02*
X179109000Y-45499000D01*
X172520000Y-45459000D02*
X174760000Y-45459000D01*
X176840000Y-45459000D02*
X179080000Y-45459000D01*
X172550000Y-45419000D02*
X174760000Y-45419000D01*
X176840000Y-45419000D02*
X179050000Y-45419000D01*
X172580000Y-45379000D02*
X174760000Y-45379000D01*
X176840000Y-45379000D02*
X179020000Y-45379000D01*
X172611000Y-45339000D02*
X174760000Y-45339000D01*
X176840000Y-45339000D02*
X178989000Y-45339000D01*
X172644000Y-45299000D02*
X174760000Y-45299000D01*
X176840000Y-45299000D02*
X178956000Y-45299000D01*
X172676000Y-45259000D02*
X174760000Y-45259000D01*
X176840000Y-45259000D02*
X178924000Y-45259000D01*
X172710000Y-45219000D02*
X174760000Y-45219000D01*
X176840000Y-45219000D02*
X178890000Y-45219000D01*
X172745000Y-45179000D02*
X174760000Y-45179000D01*
X176840000Y-45179000D02*
X178855000Y-45179000D01*
X172781000Y-45139000D02*
X174760000Y-45139000D01*
X176840000Y-45139000D02*
X178819000Y-45139000D01*
X172817000Y-45099000D02*
X174760000Y-45099000D01*
X176840000Y-45099000D02*
X178783000Y-45099000D01*
X172855000Y-45059000D02*
X174760000Y-45059000D01*
X176840000Y-45059000D02*
X178745000Y-45059000D01*
X172893000Y-45019000D02*
X174760000Y-45019000D01*
X176840000Y-45019000D02*
X178707000Y-45019000D01*
X172933000Y-44979000D02*
X174760000Y-44979000D01*
X176840000Y-44979000D02*
X178667000Y-44979000D01*
X172974000Y-44939000D02*
X174760000Y-44939000D01*
X176840000Y-44939000D02*
X178626000Y-44939000D01*
X173016000Y-44899000D02*
X174760000Y-44899000D01*
X176840000Y-44899000D02*
X178584000Y-44899000D01*
X173059000Y-44859000D02*
X174760000Y-44859000D01*
X176840000Y-44859000D02*
X178541000Y-44859000D01*
X173103000Y-44819000D02*
X174760000Y-44819000D01*
X176840000Y-44819000D02*
X178497000Y-44819000D01*
X173149000Y-44779000D02*
X174760000Y-44779000D01*
X176840000Y-44779000D02*
X178451000Y-44779000D01*
X173196000Y-44739000D02*
X174760000Y-44739000D01*
X176840000Y-44739000D02*
X178404000Y-44739000D01*
X173244000Y-44699000D02*
X174760000Y-44699000D01*
X176840000Y-44699000D02*
X178356000Y-44699000D01*
X173295000Y-44659000D02*
X174760000Y-44659000D01*
X176840000Y-44659000D02*
X178305000Y-44659000D01*
X173346000Y-44619000D02*
X174760000Y-44619000D01*
X176840000Y-44619000D02*
X178254000Y-44619000D01*
X173400000Y-44579000D02*
X174760000Y-44579000D01*
X176840000Y-44579000D02*
X178200000Y-44579000D01*
X173455000Y-44539000D02*
X174760000Y-44539000D01*
X176840000Y-44539000D02*
X178145000Y-44539000D01*
X173513000Y-44499000D02*
X174760000Y-44499000D01*
X176840000Y-44499000D02*
X178087000Y-44499000D01*
X173572000Y-44459000D02*
X174760000Y-44459000D01*
X176840000Y-44459000D02*
X178028000Y-44459000D01*
X173634000Y-44419000D02*
X174760000Y-44419000D01*
X176840000Y-44419000D02*
X177966000Y-44419000D01*
X173698000Y-44379000D02*
X174760000Y-44379000D01*
X176840000Y-44379000D02*
X177902000Y-44379000D01*
X173766000Y-44339000D02*
X177834000Y-44339000D01*
X173836000Y-44299000D02*
X177764000Y-44299000D01*
X173910000Y-44259000D02*
X177690000Y-44259000D01*
X173987000Y-44219000D02*
X177613000Y-44219000D01*
X174069000Y-44179000D02*
X177531000Y-44179000D01*
X174155000Y-44139000D02*
X177445000Y-44139000D01*
X174248000Y-44099000D02*
X177352000Y-44099000D01*
X174347000Y-44059000D02*
X177253000Y-44059000D01*
X174454000Y-44019000D02*
X177146000Y-44019000D01*
X174571000Y-43979000D02*
X177029000Y-43979000D01*
X174702000Y-43939000D02*
X176898000Y-43939000D01*
X174852000Y-43899000D02*
X176748000Y-43899000D01*
X175032000Y-43859000D02*
X176568000Y-43859000D01*
X175267000Y-43819000D02*
X176333000Y-43819000D01*
X173485000Y-52309698D02*
X173485000Y-51509698D01*
X173085000Y-51909698D02*
X173885000Y-51909698D01*
%TO.C,R36*%
X216400000Y-85800000D02*
X216400000Y-55300000D01*
X229900000Y-85800000D02*
X229900000Y-55300000D01*
X216400000Y-85800000D02*
X229900000Y-85800000D01*
X216400000Y-55300000D02*
X229900000Y-55300000D01*
%TO.C,R35*%
X229800000Y-99400000D02*
X229800000Y-129900000D01*
X216300000Y-99400000D02*
X216300000Y-129900000D01*
X229800000Y-99400000D02*
X216300000Y-99400000D01*
X229800000Y-129900000D02*
X216300000Y-129900000D01*
%TO.C,R34*%
X161200000Y-85800000D02*
X161200000Y-55300000D01*
X174700000Y-85800000D02*
X174700000Y-55300000D01*
X161200000Y-85800000D02*
X174700000Y-85800000D01*
X161200000Y-55300000D02*
X174700000Y-55300000D01*
%TO.C,R32*%
X202600000Y-85800000D02*
X202600000Y-55300000D01*
X216100000Y-85800000D02*
X216100000Y-55300000D01*
X202600000Y-85800000D02*
X216100000Y-85800000D01*
X202600000Y-55300000D02*
X216100000Y-55300000D01*
%TO.C,R31*%
X216000000Y-99400000D02*
X216000000Y-129900000D01*
X202500000Y-99400000D02*
X202500000Y-129900000D01*
X216000000Y-99400000D02*
X202500000Y-99400000D01*
X216000000Y-129900000D02*
X202500000Y-129900000D01*
%TO.C,R30*%
X147400000Y-85800000D02*
X147400000Y-55300000D01*
X160900000Y-85800000D02*
X160900000Y-55300000D01*
X147400000Y-85800000D02*
X160900000Y-85800000D01*
X147400000Y-55300000D02*
X160900000Y-55300000D01*
%TO.C,R28*%
X188800000Y-85800000D02*
X188800000Y-55300000D01*
X202300000Y-85800000D02*
X202300000Y-55300000D01*
X188800000Y-85800000D02*
X202300000Y-85800000D01*
X188800000Y-55300000D02*
X202300000Y-55300000D01*
%TO.C,R27*%
X202200000Y-99400000D02*
X202200000Y-129900000D01*
X188700000Y-99400000D02*
X188700000Y-129900000D01*
X202200000Y-99400000D02*
X188700000Y-99400000D01*
X202200000Y-129900000D02*
X188700000Y-129900000D01*
%TO.C,R26*%
X188400000Y-99400000D02*
X188400000Y-129900000D01*
X174900000Y-99400000D02*
X174900000Y-129900000D01*
X188400000Y-99400000D02*
X174900000Y-99400000D01*
X188400000Y-129900000D02*
X174900000Y-129900000D01*
%TO.C,R22*%
X174600000Y-99400000D02*
X174600000Y-129900000D01*
X161100000Y-99400000D02*
X161100000Y-129900000D01*
X174600000Y-99400000D02*
X161100000Y-99400000D01*
X174600000Y-129900000D02*
X161100000Y-129900000D01*
%TO.C,J9*%
X228800000Y-98600000D02*
X211800000Y-98600000D01*
X228800000Y-86600000D02*
X211800000Y-86600000D01*
X228800000Y-98600000D02*
X228800000Y-86600000D01*
X211800000Y-98600000D02*
X211800000Y-86600000D01*
%TO.C,J8*%
X209600000Y-98600000D02*
X192600000Y-98600000D01*
X209600000Y-86600000D02*
X192600000Y-86600000D01*
X209600000Y-98600000D02*
X209600000Y-86600000D01*
X192600000Y-98600000D02*
X192600000Y-86600000D01*
%TO.C,J7*%
X190200000Y-98600000D02*
X173200000Y-98600000D01*
X190200000Y-86600000D02*
X173200000Y-86600000D01*
X190200000Y-98600000D02*
X190200000Y-86600000D01*
X173200000Y-98600000D02*
X173200000Y-86600000D01*
%TO.C,J6*%
X170800000Y-98600000D02*
X153800000Y-98600000D01*
X170800000Y-86600000D02*
X153800000Y-86600000D01*
X170800000Y-98600000D02*
X170800000Y-86600000D01*
X153800000Y-98600000D02*
X153800000Y-86600000D01*
%TO.C,J3*%
X84200000Y-62200000D02*
X84200000Y-79200000D01*
X72200000Y-62200000D02*
X72200000Y-79200000D01*
X84200000Y-62200000D02*
X72200000Y-62200000D01*
X84200000Y-79200000D02*
X72200000Y-79200000D01*
%TO.C,J2*%
X84200000Y-42200000D02*
X84200000Y-59200000D01*
X72200000Y-42200000D02*
X72200000Y-59200000D01*
X84200000Y-42200000D02*
X72200000Y-42200000D01*
X84200000Y-59200000D02*
X72200000Y-59200000D01*
%TO.C,J5*%
X151200000Y-98600000D02*
X134200000Y-98600000D01*
X151200000Y-86600000D02*
X134200000Y-86600000D01*
X151200000Y-98600000D02*
X151200000Y-86600000D01*
X134200000Y-98600000D02*
X134200000Y-86600000D01*
%TO.C,R33*%
X85900000Y-80400000D02*
X85900000Y-78200000D01*
X88000000Y-80400000D02*
X85900000Y-80400000D01*
X98800000Y-80200000D02*
X86100000Y-80200000D01*
X98800000Y-72400000D02*
X98800000Y-80200000D01*
X86100000Y-72400000D02*
X98800000Y-72400000D01*
X86100000Y-80200000D02*
X86100000Y-72400000D01*
X91210000Y-75854000D02*
X92226000Y-76489000D01*
X91083000Y-78038000D02*
X91718000Y-78038000D01*
X91718000Y-78038000D02*
X91718000Y-77378000D01*
X91083000Y-74838000D02*
X91718000Y-74838000D01*
X91718000Y-74838000D02*
X91718000Y-75473000D01*
X91210000Y-75473000D02*
X91210000Y-77378000D01*
X91210000Y-77378000D02*
X92226000Y-77378000D01*
X92226000Y-77378000D02*
X92226000Y-75473000D01*
X91210000Y-75473000D02*
X92226000Y-75473000D01*
%TO.C,R14*%
X85900000Y-60200000D02*
X85900000Y-58000000D01*
X88000000Y-60200000D02*
X85900000Y-60200000D01*
X98800000Y-60000000D02*
X86100000Y-60000000D01*
X98800000Y-52200000D02*
X98800000Y-60000000D01*
X86100000Y-52200000D02*
X98800000Y-52200000D01*
X86100000Y-60000000D02*
X86100000Y-52200000D01*
X91210000Y-55654000D02*
X92226000Y-56289000D01*
X91083000Y-57838000D02*
X91718000Y-57838000D01*
X91718000Y-57838000D02*
X91718000Y-57178000D01*
X91083000Y-54638000D02*
X91718000Y-54638000D01*
X91718000Y-54638000D02*
X91718000Y-55273000D01*
X91210000Y-55273000D02*
X91210000Y-57178000D01*
X91210000Y-57178000D02*
X92226000Y-57178000D01*
X92226000Y-57178000D02*
X92226000Y-55273000D01*
X91210000Y-55273000D02*
X92226000Y-55273000D01*
%TO.C,R29*%
X160800000Y-99400000D02*
X160800000Y-129900000D01*
X147300000Y-99400000D02*
X147300000Y-129900000D01*
X160800000Y-99400000D02*
X147300000Y-99400000D01*
X160800000Y-129900000D02*
X147300000Y-129900000D01*
%TO.C,R25*%
X85900000Y-70200000D02*
X85900000Y-68000000D01*
X88000000Y-70200000D02*
X85900000Y-70200000D01*
X98800000Y-70000000D02*
X86100000Y-70000000D01*
X98800000Y-62200000D02*
X98800000Y-70000000D01*
X86100000Y-62200000D02*
X98800000Y-62200000D01*
X86100000Y-70000000D02*
X86100000Y-62200000D01*
X91210000Y-65654000D02*
X92226000Y-66289000D01*
X91083000Y-67838000D02*
X91718000Y-67838000D01*
X91718000Y-67838000D02*
X91718000Y-67178000D01*
X91083000Y-64638000D02*
X91718000Y-64638000D01*
X91718000Y-64638000D02*
X91718000Y-65273000D01*
X91210000Y-65273000D02*
X91210000Y-67178000D01*
X91210000Y-67178000D02*
X92226000Y-67178000D01*
X92226000Y-67178000D02*
X92226000Y-65273000D01*
X91210000Y-65273000D02*
X92226000Y-65273000D01*
%TO.C,R6*%
X85900000Y-50400000D02*
X85900000Y-48200000D01*
X88000000Y-50400000D02*
X85900000Y-50400000D01*
X98800000Y-50200000D02*
X86100000Y-50200000D01*
X98800000Y-42400000D02*
X98800000Y-50200000D01*
X86100000Y-42400000D02*
X98800000Y-42400000D01*
X86100000Y-50200000D02*
X86100000Y-42400000D01*
X91210000Y-45854000D02*
X92226000Y-46489000D01*
X91083000Y-48038000D02*
X91718000Y-48038000D01*
X91718000Y-48038000D02*
X91718000Y-47378000D01*
X91083000Y-44838000D02*
X91718000Y-44838000D01*
X91718000Y-44838000D02*
X91718000Y-45473000D01*
X91210000Y-45473000D02*
X91210000Y-47378000D01*
X91210000Y-47378000D02*
X92226000Y-47378000D01*
X92226000Y-47378000D02*
X92226000Y-45473000D01*
X91210000Y-45473000D02*
X92226000Y-45473000D01*
%TO.C,R23*%
X175000000Y-85800000D02*
X175000000Y-55300000D01*
X188500000Y-85800000D02*
X188500000Y-55300000D01*
X175000000Y-85800000D02*
X188500000Y-85800000D01*
X175000000Y-55300000D02*
X188500000Y-55300000D01*
%TO.C,R21*%
X147000000Y-99400000D02*
X147000000Y-129900000D01*
X133500000Y-99400000D02*
X133500000Y-129900000D01*
X147000000Y-99400000D02*
X133500000Y-99400000D01*
X147000000Y-129900000D02*
X133500000Y-129900000D01*
%TO.C,R1*%
X83430000Y-122590000D02*
X86170000Y-122590000D01*
X86170000Y-122590000D02*
X86170000Y-116050000D01*
X86170000Y-116050000D02*
X83430000Y-116050000D01*
X83430000Y-116050000D02*
X83430000Y-122590000D01*
X84800000Y-123360000D02*
X84800000Y-122590000D01*
X84800000Y-115280000D02*
X84800000Y-116050000D01*
%TO.C,D21*%
X103130000Y-72440000D02*
X106070000Y-72440000D01*
X106070000Y-72440000D02*
X106070000Y-67000000D01*
X106070000Y-67000000D02*
X103130000Y-67000000D01*
X103130000Y-67000000D02*
X103130000Y-72440000D01*
X104600000Y-73460000D02*
X104600000Y-72440000D01*
X104600000Y-65980000D02*
X104600000Y-67000000D01*
X103130000Y-71540000D02*
X106070000Y-71540000D01*
X103130000Y-71420000D02*
X106070000Y-71420000D01*
X103130000Y-71660000D02*
X106070000Y-71660000D01*
%TO.C,D10*%
X106070000Y-49760000D02*
X103130000Y-49760000D01*
X103130000Y-49760000D02*
X103130000Y-55200000D01*
X103130000Y-55200000D02*
X106070000Y-55200000D01*
X106070000Y-55200000D02*
X106070000Y-49760000D01*
X104600000Y-48740000D02*
X104600000Y-49760000D01*
X104600000Y-56220000D02*
X104600000Y-55200000D01*
X106070000Y-50660000D02*
X103130000Y-50660000D01*
X106070000Y-50780000D02*
X103130000Y-50780000D01*
X106070000Y-50540000D02*
X103130000Y-50540000D01*
%TO.C,D20*%
X99530000Y-72440000D02*
X102470000Y-72440000D01*
X102470000Y-72440000D02*
X102470000Y-67000000D01*
X102470000Y-67000000D02*
X99530000Y-67000000D01*
X99530000Y-67000000D02*
X99530000Y-72440000D01*
X101000000Y-73460000D02*
X101000000Y-72440000D01*
X101000000Y-65980000D02*
X101000000Y-67000000D01*
X99530000Y-71540000D02*
X102470000Y-71540000D01*
X99530000Y-71420000D02*
X102470000Y-71420000D01*
X99530000Y-71660000D02*
X102470000Y-71660000D01*
%TO.C,D4*%
X102470000Y-49760000D02*
X99530000Y-49760000D01*
X99530000Y-49760000D02*
X99530000Y-55200000D01*
X99530000Y-55200000D02*
X102470000Y-55200000D01*
X102470000Y-55200000D02*
X102470000Y-49760000D01*
X101000000Y-48740000D02*
X101000000Y-49760000D01*
X101000000Y-56220000D02*
X101000000Y-55200000D01*
X102470000Y-50660000D02*
X99530000Y-50660000D01*
X102470000Y-50780000D02*
X99530000Y-50780000D01*
X102470000Y-50540000D02*
X99530000Y-50540000D01*
%TO.C,C1*%
X197470000Y-42980000D02*
X197470000Y-50420000D01*
X193730000Y-42980000D02*
X193730000Y-50420000D01*
X197470000Y-42980000D02*
X193730000Y-42980000D01*
X197470000Y-50420000D02*
X193730000Y-50420000D01*
%TO.C,R13*%
D13*
X114107142Y-63702380D02*
X113773809Y-63226190D01*
X113535714Y-63702380D02*
X113535714Y-62702380D01*
X113916666Y-62702380D01*
X114011904Y-62750000D01*
X114059523Y-62797619D01*
X114107142Y-62892857D01*
X114107142Y-63035714D01*
X114059523Y-63130952D01*
X114011904Y-63178571D01*
X113916666Y-63226190D01*
X113535714Y-63226190D01*
X115059523Y-63702380D02*
X114488095Y-63702380D01*
X114773809Y-63702380D02*
X114773809Y-62702380D01*
X114678571Y-62845238D01*
X114583333Y-62940476D01*
X114488095Y-62988095D01*
X115392857Y-62702380D02*
X116011904Y-62702380D01*
X115678571Y-63083333D01*
X115821428Y-63083333D01*
X115916666Y-63130952D01*
X115964285Y-63178571D01*
X116011904Y-63273809D01*
X116011904Y-63511904D01*
X115964285Y-63607142D01*
X115916666Y-63654761D01*
X115821428Y-63702380D01*
X115535714Y-63702380D01*
X115440476Y-63654761D01*
X115392857Y-63607142D01*
X112035714Y-62702380D02*
X111464285Y-62702380D01*
X111750000Y-62702380D02*
X111750000Y-61702380D01*
X111654761Y-61845238D01*
X111559523Y-61940476D01*
X111464285Y-61988095D01*
X112464285Y-62702380D02*
X112464285Y-61702380D01*
X113035714Y-62702380D02*
X112607142Y-62130952D01*
X113035714Y-61702380D02*
X112464285Y-62273809D01*
%TO.C,R2*%
X139583333Y-64022380D02*
X139250000Y-63546190D01*
X139011904Y-64022380D02*
X139011904Y-63022380D01*
X139392857Y-63022380D01*
X139488095Y-63070000D01*
X139535714Y-63117619D01*
X139583333Y-63212857D01*
X139583333Y-63355714D01*
X139535714Y-63450952D01*
X139488095Y-63498571D01*
X139392857Y-63546190D01*
X139011904Y-63546190D01*
X139964285Y-63117619D02*
X140011904Y-63070000D01*
X140107142Y-63022380D01*
X140345238Y-63022380D01*
X140440476Y-63070000D01*
X140488095Y-63117619D01*
X140535714Y-63212857D01*
X140535714Y-63308095D01*
X140488095Y-63450952D01*
X139916666Y-64022380D01*
X140535714Y-64022380D01*
X139535714Y-66882380D02*
X138964285Y-66882380D01*
X139250000Y-66882380D02*
X139250000Y-65882380D01*
X139154761Y-66025238D01*
X139059523Y-66120476D01*
X138964285Y-66168095D01*
X139964285Y-66882380D02*
X139964285Y-65882380D01*
X140535714Y-66882380D02*
X140107142Y-66310952D01*
X140535714Y-65882380D02*
X139964285Y-66453809D01*
%TO.C,R24*%
X120894642Y-88272380D02*
X120561309Y-87796190D01*
X120323214Y-88272380D02*
X120323214Y-87272380D01*
X120704166Y-87272380D01*
X120799404Y-87320000D01*
X120847023Y-87367619D01*
X120894642Y-87462857D01*
X120894642Y-87605714D01*
X120847023Y-87700952D01*
X120799404Y-87748571D01*
X120704166Y-87796190D01*
X120323214Y-87796190D01*
X121275595Y-87367619D02*
X121323214Y-87320000D01*
X121418452Y-87272380D01*
X121656547Y-87272380D01*
X121751785Y-87320000D01*
X121799404Y-87367619D01*
X121847023Y-87462857D01*
X121847023Y-87558095D01*
X121799404Y-87700952D01*
X121227976Y-88272380D01*
X121847023Y-88272380D01*
X122704166Y-87605714D02*
X122704166Y-88272380D01*
X122466071Y-87224761D02*
X122227976Y-87939047D01*
X122847023Y-87939047D01*
X124035714Y-89702380D02*
X123464285Y-89702380D01*
X123750000Y-89702380D02*
X123750000Y-88702380D01*
X123654761Y-88845238D01*
X123559523Y-88940476D01*
X123464285Y-88988095D01*
X124464285Y-89702380D02*
X124464285Y-88702380D01*
X125035714Y-89702380D02*
X124607142Y-89130952D01*
X125035714Y-88702380D02*
X124464285Y-89273809D01*
%TO.C,R20*%
X130857142Y-46202380D02*
X130523809Y-45726190D01*
X130285714Y-46202380D02*
X130285714Y-45202380D01*
X130666666Y-45202380D01*
X130761904Y-45250000D01*
X130809523Y-45297619D01*
X130857142Y-45392857D01*
X130857142Y-45535714D01*
X130809523Y-45630952D01*
X130761904Y-45678571D01*
X130666666Y-45726190D01*
X130285714Y-45726190D01*
X131238095Y-45297619D02*
X131285714Y-45250000D01*
X131380952Y-45202380D01*
X131619047Y-45202380D01*
X131714285Y-45250000D01*
X131761904Y-45297619D01*
X131809523Y-45392857D01*
X131809523Y-45488095D01*
X131761904Y-45630952D01*
X131190476Y-46202380D01*
X131809523Y-46202380D01*
X132428571Y-45202380D02*
X132523809Y-45202380D01*
X132619047Y-45250000D01*
X132666666Y-45297619D01*
X132714285Y-45392857D01*
X132761904Y-45583333D01*
X132761904Y-45821428D01*
X132714285Y-46011904D01*
X132666666Y-46107142D01*
X132619047Y-46154761D01*
X132523809Y-46202380D01*
X132428571Y-46202380D01*
X132333333Y-46154761D01*
X132285714Y-46107142D01*
X132238095Y-46011904D01*
X132190476Y-45821428D01*
X132190476Y-45583333D01*
X132238095Y-45392857D01*
X132285714Y-45297619D01*
X132333333Y-45250000D01*
X132428571Y-45202380D01*
X134285714Y-46202380D02*
X133714285Y-46202380D01*
X134000000Y-46202380D02*
X134000000Y-45202380D01*
X133904761Y-45345238D01*
X133809523Y-45440476D01*
X133714285Y-45488095D01*
X134714285Y-46202380D02*
X134714285Y-45202380D01*
X135285714Y-46202380D02*
X134857142Y-45630952D01*
X135285714Y-45202380D02*
X134714285Y-45773809D01*
%TO.C,R15*%
X107857142Y-66132380D02*
X107523809Y-65656190D01*
X107285714Y-66132380D02*
X107285714Y-65132380D01*
X107666666Y-65132380D01*
X107761904Y-65180000D01*
X107809523Y-65227619D01*
X107857142Y-65322857D01*
X107857142Y-65465714D01*
X107809523Y-65560952D01*
X107761904Y-65608571D01*
X107666666Y-65656190D01*
X107285714Y-65656190D01*
X108809523Y-66132380D02*
X108238095Y-66132380D01*
X108523809Y-66132380D02*
X108523809Y-65132380D01*
X108428571Y-65275238D01*
X108333333Y-65370476D01*
X108238095Y-65418095D01*
X109714285Y-65132380D02*
X109238095Y-65132380D01*
X109190476Y-65608571D01*
X109238095Y-65560952D01*
X109333333Y-65513333D01*
X109571428Y-65513333D01*
X109666666Y-65560952D01*
X109714285Y-65608571D01*
X109761904Y-65703809D01*
X109761904Y-65941904D01*
X109714285Y-66037142D01*
X109666666Y-66084761D01*
X109571428Y-66132380D01*
X109333333Y-66132380D01*
X109238095Y-66084761D01*
X109190476Y-66037142D01*
X110785714Y-64702380D02*
X110214285Y-64702380D01*
X110500000Y-64702380D02*
X110500000Y-63702380D01*
X110404761Y-63845238D01*
X110309523Y-63940476D01*
X110214285Y-63988095D01*
X111214285Y-64702380D02*
X111214285Y-63702380D01*
X111785714Y-64702380D02*
X111357142Y-64130952D01*
X111785714Y-63702380D02*
X111214285Y-64273809D01*
%TO.C,R10*%
X144144642Y-70772380D02*
X143811309Y-70296190D01*
X143573214Y-70772380D02*
X143573214Y-69772380D01*
X143954166Y-69772380D01*
X144049404Y-69820000D01*
X144097023Y-69867619D01*
X144144642Y-69962857D01*
X144144642Y-70105714D01*
X144097023Y-70200952D01*
X144049404Y-70248571D01*
X143954166Y-70296190D01*
X143573214Y-70296190D01*
X145097023Y-70772380D02*
X144525595Y-70772380D01*
X144811309Y-70772380D02*
X144811309Y-69772380D01*
X144716071Y-69915238D01*
X144620833Y-70010476D01*
X144525595Y-70058095D01*
X145716071Y-69772380D02*
X145811309Y-69772380D01*
X145906547Y-69820000D01*
X145954166Y-69867619D01*
X146001785Y-69962857D01*
X146049404Y-70153333D01*
X146049404Y-70391428D01*
X146001785Y-70581904D01*
X145954166Y-70677142D01*
X145906547Y-70724761D01*
X145811309Y-70772380D01*
X145716071Y-70772380D01*
X145620833Y-70724761D01*
X145573214Y-70677142D01*
X145525595Y-70581904D01*
X145477976Y-70391428D01*
X145477976Y-70153333D01*
X145525595Y-69962857D01*
X145573214Y-69867619D01*
X145620833Y-69820000D01*
X145716071Y-69772380D01*
X144573214Y-73632380D02*
X144001785Y-73632380D01*
X144287500Y-73632380D02*
X144287500Y-72632380D01*
X144192261Y-72775238D01*
X144097023Y-72870476D01*
X144001785Y-72918095D01*
X145001785Y-73632380D02*
X145001785Y-72632380D01*
X145573214Y-73632380D02*
X145144642Y-73060952D01*
X145573214Y-72632380D02*
X145001785Y-73203809D01*
%TO.C,H5*%
X211988095Y-43252380D02*
X211988095Y-42252380D01*
X211988095Y-42728571D02*
X212559523Y-42728571D01*
X212559523Y-43252380D02*
X212559523Y-42252380D01*
X213511904Y-42252380D02*
X213035714Y-42252380D01*
X212988095Y-42728571D01*
X213035714Y-42680952D01*
X213130952Y-42633333D01*
X213369047Y-42633333D01*
X213464285Y-42680952D01*
X213511904Y-42728571D01*
X213559523Y-42823809D01*
X213559523Y-43061904D01*
X213511904Y-43157142D01*
X213464285Y-43204761D01*
X213369047Y-43252380D01*
X213130952Y-43252380D01*
X213035714Y-43204761D01*
X212988095Y-43157142D01*
%TO.C,C10*%
X208357142Y-47392857D02*
X208404761Y-47440476D01*
X208452380Y-47583333D01*
X208452380Y-47678571D01*
X208404761Y-47821428D01*
X208309523Y-47916666D01*
X208214285Y-47964285D01*
X208023809Y-48011904D01*
X207880952Y-48011904D01*
X207690476Y-47964285D01*
X207595238Y-47916666D01*
X207500000Y-47821428D01*
X207452380Y-47678571D01*
X207452380Y-47583333D01*
X207500000Y-47440476D01*
X207547619Y-47392857D01*
X208452380Y-46440476D02*
X208452380Y-47011904D01*
X208452380Y-46726190D02*
X207452380Y-46726190D01*
X207595238Y-46821428D01*
X207690476Y-46916666D01*
X207738095Y-47011904D01*
X207452380Y-45821428D02*
X207452380Y-45726190D01*
X207500000Y-45630952D01*
X207547619Y-45583333D01*
X207642857Y-45535714D01*
X207833333Y-45488095D01*
X208071428Y-45488095D01*
X208261904Y-45535714D01*
X208357142Y-45583333D01*
X208404761Y-45630952D01*
X208452380Y-45726190D01*
X208452380Y-45821428D01*
X208404761Y-45916666D01*
X208357142Y-45964285D01*
X208261904Y-46011904D01*
X208071428Y-46059523D01*
X207833333Y-46059523D01*
X207642857Y-46011904D01*
X207547619Y-45964285D01*
X207500000Y-45916666D01*
X207452380Y-45821428D01*
X200630952Y-41297619D02*
X200678571Y-41250000D01*
X200773809Y-41202380D01*
X201011904Y-41202380D01*
X201107142Y-41250000D01*
X201154761Y-41297619D01*
X201202380Y-41392857D01*
X201202380Y-41488095D01*
X201154761Y-41630952D01*
X200583333Y-42202380D01*
X201202380Y-42202380D01*
X201583333Y-41297619D02*
X201630952Y-41250000D01*
X201726190Y-41202380D01*
X201964285Y-41202380D01*
X202059523Y-41250000D01*
X202107142Y-41297619D01*
X202154761Y-41392857D01*
X202154761Y-41488095D01*
X202107142Y-41630952D01*
X201535714Y-42202380D01*
X202154761Y-42202380D01*
X202773809Y-41202380D02*
X202869047Y-41202380D01*
X202964285Y-41250000D01*
X203011904Y-41297619D01*
X203059523Y-41392857D01*
X203107142Y-41583333D01*
X203107142Y-41821428D01*
X203059523Y-42011904D01*
X203011904Y-42107142D01*
X202964285Y-42154761D01*
X202869047Y-42202380D01*
X202773809Y-42202380D01*
X202678571Y-42154761D01*
X202630952Y-42107142D01*
X202583333Y-42011904D01*
X202535714Y-41821428D01*
X202535714Y-41583333D01*
X202583333Y-41392857D01*
X202630952Y-41297619D01*
X202678571Y-41250000D01*
X202773809Y-41202380D01*
X203964285Y-41535714D02*
X203964285Y-42202380D01*
X203535714Y-41535714D02*
X203535714Y-42059523D01*
X203583333Y-42154761D01*
X203678571Y-42202380D01*
X203821428Y-42202380D01*
X203916666Y-42154761D01*
X203964285Y-42107142D01*
X204773809Y-41678571D02*
X204440476Y-41678571D01*
X204440476Y-42202380D02*
X204440476Y-41202380D01*
X204916666Y-41202380D01*
%TO.C,C9*%
X215333333Y-132607142D02*
X215285714Y-132654761D01*
X215142857Y-132702380D01*
X215047619Y-132702380D01*
X214904761Y-132654761D01*
X214809523Y-132559523D01*
X214761904Y-132464285D01*
X214714285Y-132273809D01*
X214714285Y-132130952D01*
X214761904Y-131940476D01*
X214809523Y-131845238D01*
X214904761Y-131750000D01*
X215047619Y-131702380D01*
X215142857Y-131702380D01*
X215285714Y-131750000D01*
X215333333Y-131797619D01*
X215809523Y-132702380D02*
X216000000Y-132702380D01*
X216095238Y-132654761D01*
X216142857Y-132607142D01*
X216238095Y-132464285D01*
X216285714Y-132273809D01*
X216285714Y-131892857D01*
X216238095Y-131797619D01*
X216190476Y-131750000D01*
X216095238Y-131702380D01*
X215904761Y-131702380D01*
X215809523Y-131750000D01*
X215761904Y-131797619D01*
X215714285Y-131892857D01*
X215714285Y-132130952D01*
X215761904Y-132226190D01*
X215809523Y-132273809D01*
X215904761Y-132321428D01*
X216095238Y-132321428D01*
X216190476Y-132273809D01*
X216238095Y-132226190D01*
X216285714Y-132130952D01*
X213380952Y-134547619D02*
X213428571Y-134500000D01*
X213523809Y-134452380D01*
X213761904Y-134452380D01*
X213857142Y-134500000D01*
X213904761Y-134547619D01*
X213952380Y-134642857D01*
X213952380Y-134738095D01*
X213904761Y-134880952D01*
X213333333Y-135452380D01*
X213952380Y-135452380D01*
X214333333Y-134547619D02*
X214380952Y-134500000D01*
X214476190Y-134452380D01*
X214714285Y-134452380D01*
X214809523Y-134500000D01*
X214857142Y-134547619D01*
X214904761Y-134642857D01*
X214904761Y-134738095D01*
X214857142Y-134880952D01*
X214285714Y-135452380D01*
X214904761Y-135452380D01*
X215523809Y-134452380D02*
X215619047Y-134452380D01*
X215714285Y-134500000D01*
X215761904Y-134547619D01*
X215809523Y-134642857D01*
X215857142Y-134833333D01*
X215857142Y-135071428D01*
X215809523Y-135261904D01*
X215761904Y-135357142D01*
X215714285Y-135404761D01*
X215619047Y-135452380D01*
X215523809Y-135452380D01*
X215428571Y-135404761D01*
X215380952Y-135357142D01*
X215333333Y-135261904D01*
X215285714Y-135071428D01*
X215285714Y-134833333D01*
X215333333Y-134642857D01*
X215380952Y-134547619D01*
X215428571Y-134500000D01*
X215523809Y-134452380D01*
X216285714Y-134785714D02*
X216285714Y-135452380D01*
X216285714Y-134880952D02*
X216333333Y-134833333D01*
X216428571Y-134785714D01*
X216571428Y-134785714D01*
X216666666Y-134833333D01*
X216714285Y-134928571D01*
X216714285Y-135452380D01*
X217523809Y-134928571D02*
X217190476Y-134928571D01*
X217190476Y-135452380D02*
X217190476Y-134452380D01*
X217666666Y-134452380D01*
%TO.C,C8*%
X200583333Y-133357142D02*
X200535714Y-133404761D01*
X200392857Y-133452380D01*
X200297619Y-133452380D01*
X200154761Y-133404761D01*
X200059523Y-133309523D01*
X200011904Y-133214285D01*
X199964285Y-133023809D01*
X199964285Y-132880952D01*
X200011904Y-132690476D01*
X200059523Y-132595238D01*
X200154761Y-132500000D01*
X200297619Y-132452380D01*
X200392857Y-132452380D01*
X200535714Y-132500000D01*
X200583333Y-132547619D01*
X201154761Y-132880952D02*
X201059523Y-132833333D01*
X201011904Y-132785714D01*
X200964285Y-132690476D01*
X200964285Y-132642857D01*
X201011904Y-132547619D01*
X201059523Y-132500000D01*
X201154761Y-132452380D01*
X201345238Y-132452380D01*
X201440476Y-132500000D01*
X201488095Y-132547619D01*
X201535714Y-132642857D01*
X201535714Y-132690476D01*
X201488095Y-132785714D01*
X201440476Y-132833333D01*
X201345238Y-132880952D01*
X201154761Y-132880952D01*
X201059523Y-132928571D01*
X201011904Y-132976190D01*
X200964285Y-133071428D01*
X200964285Y-133261904D01*
X201011904Y-133357142D01*
X201059523Y-133404761D01*
X201154761Y-133452380D01*
X201345238Y-133452380D01*
X201440476Y-133404761D01*
X201488095Y-133357142D01*
X201535714Y-133261904D01*
X201535714Y-133071428D01*
X201488095Y-132976190D01*
X201440476Y-132928571D01*
X201345238Y-132880952D01*
X199380952Y-131047619D02*
X199428571Y-131000000D01*
X199523809Y-130952380D01*
X199761904Y-130952380D01*
X199857142Y-131000000D01*
X199904761Y-131047619D01*
X199952380Y-131142857D01*
X199952380Y-131238095D01*
X199904761Y-131380952D01*
X199333333Y-131952380D01*
X199952380Y-131952380D01*
X200333333Y-131047619D02*
X200380952Y-131000000D01*
X200476190Y-130952380D01*
X200714285Y-130952380D01*
X200809523Y-131000000D01*
X200857142Y-131047619D01*
X200904761Y-131142857D01*
X200904761Y-131238095D01*
X200857142Y-131380952D01*
X200285714Y-131952380D01*
X200904761Y-131952380D01*
X201523809Y-130952380D02*
X201619047Y-130952380D01*
X201714285Y-131000000D01*
X201761904Y-131047619D01*
X201809523Y-131142857D01*
X201857142Y-131333333D01*
X201857142Y-131571428D01*
X201809523Y-131761904D01*
X201761904Y-131857142D01*
X201714285Y-131904761D01*
X201619047Y-131952380D01*
X201523809Y-131952380D01*
X201428571Y-131904761D01*
X201380952Y-131857142D01*
X201333333Y-131761904D01*
X201285714Y-131571428D01*
X201285714Y-131333333D01*
X201333333Y-131142857D01*
X201380952Y-131047619D01*
X201428571Y-131000000D01*
X201523809Y-130952380D01*
X202714285Y-131285714D02*
X202714285Y-131952380D01*
X202285714Y-131285714D02*
X202285714Y-131809523D01*
X202333333Y-131904761D01*
X202428571Y-131952380D01*
X202571428Y-131952380D01*
X202666666Y-131904761D01*
X202714285Y-131857142D01*
X203523809Y-131428571D02*
X203190476Y-131428571D01*
X203190476Y-131952380D02*
X203190476Y-130952380D01*
X203666666Y-130952380D01*
%TO.C,C7*%
X81833333Y-129107142D02*
X81785714Y-129154761D01*
X81642857Y-129202380D01*
X81547619Y-129202380D01*
X81404761Y-129154761D01*
X81309523Y-129059523D01*
X81261904Y-128964285D01*
X81214285Y-128773809D01*
X81214285Y-128630952D01*
X81261904Y-128440476D01*
X81309523Y-128345238D01*
X81404761Y-128250000D01*
X81547619Y-128202380D01*
X81642857Y-128202380D01*
X81785714Y-128250000D01*
X81833333Y-128297619D01*
X82166666Y-128202380D02*
X82833333Y-128202380D01*
X82404761Y-129202380D01*
X83880952Y-131297619D02*
X83928571Y-131250000D01*
X84023809Y-131202380D01*
X84261904Y-131202380D01*
X84357142Y-131250000D01*
X84404761Y-131297619D01*
X84452380Y-131392857D01*
X84452380Y-131488095D01*
X84404761Y-131630952D01*
X83833333Y-132202380D01*
X84452380Y-132202380D01*
X84833333Y-131297619D02*
X84880952Y-131250000D01*
X84976190Y-131202380D01*
X85214285Y-131202380D01*
X85309523Y-131250000D01*
X85357142Y-131297619D01*
X85404761Y-131392857D01*
X85404761Y-131488095D01*
X85357142Y-131630952D01*
X84785714Y-132202380D01*
X85404761Y-132202380D01*
X86023809Y-131202380D02*
X86119047Y-131202380D01*
X86214285Y-131250000D01*
X86261904Y-131297619D01*
X86309523Y-131392857D01*
X86357142Y-131583333D01*
X86357142Y-131821428D01*
X86309523Y-132011904D01*
X86261904Y-132107142D01*
X86214285Y-132154761D01*
X86119047Y-132202380D01*
X86023809Y-132202380D01*
X85928571Y-132154761D01*
X85880952Y-132107142D01*
X85833333Y-132011904D01*
X85785714Y-131821428D01*
X85785714Y-131583333D01*
X85833333Y-131392857D01*
X85880952Y-131297619D01*
X85928571Y-131250000D01*
X86023809Y-131202380D01*
X86785714Y-131535714D02*
X86785714Y-132202380D01*
X86785714Y-131630952D02*
X86833333Y-131583333D01*
X86928571Y-131535714D01*
X87071428Y-131535714D01*
X87166666Y-131583333D01*
X87214285Y-131678571D01*
X87214285Y-132202380D01*
X88023809Y-131678571D02*
X87690476Y-131678571D01*
X87690476Y-132202380D02*
X87690476Y-131202380D01*
X88166666Y-131202380D01*
%TO.C,C6*%
X95107142Y-126416666D02*
X95154761Y-126464285D01*
X95202380Y-126607142D01*
X95202380Y-126702380D01*
X95154761Y-126845238D01*
X95059523Y-126940476D01*
X94964285Y-126988095D01*
X94773809Y-127035714D01*
X94630952Y-127035714D01*
X94440476Y-126988095D01*
X94345238Y-126940476D01*
X94250000Y-126845238D01*
X94202380Y-126702380D01*
X94202380Y-126607142D01*
X94250000Y-126464285D01*
X94297619Y-126416666D01*
X94202380Y-125559523D02*
X94202380Y-125750000D01*
X94250000Y-125845238D01*
X94297619Y-125892857D01*
X94440476Y-125988095D01*
X94630952Y-126035714D01*
X95011904Y-126035714D01*
X95107142Y-125988095D01*
X95154761Y-125940476D01*
X95202380Y-125845238D01*
X95202380Y-125654761D01*
X95154761Y-125559523D01*
X95107142Y-125511904D01*
X95011904Y-125464285D01*
X94773809Y-125464285D01*
X94678571Y-125511904D01*
X94630952Y-125559523D01*
X94583333Y-125654761D01*
X94583333Y-125845238D01*
X94630952Y-125940476D01*
X94678571Y-125988095D01*
X94773809Y-126035714D01*
X92797619Y-127619047D02*
X92750000Y-127571428D01*
X92702380Y-127476190D01*
X92702380Y-127238095D01*
X92750000Y-127142857D01*
X92797619Y-127095238D01*
X92892857Y-127047619D01*
X92988095Y-127047619D01*
X93130952Y-127095238D01*
X93702380Y-127666666D01*
X93702380Y-127047619D01*
X92797619Y-126666666D02*
X92750000Y-126619047D01*
X92702380Y-126523809D01*
X92702380Y-126285714D01*
X92750000Y-126190476D01*
X92797619Y-126142857D01*
X92892857Y-126095238D01*
X92988095Y-126095238D01*
X93130952Y-126142857D01*
X93702380Y-126714285D01*
X93702380Y-126095238D01*
X92702380Y-125476190D02*
X92702380Y-125380952D01*
X92750000Y-125285714D01*
X92797619Y-125238095D01*
X92892857Y-125190476D01*
X93083333Y-125142857D01*
X93321428Y-125142857D01*
X93511904Y-125190476D01*
X93607142Y-125238095D01*
X93654761Y-125285714D01*
X93702380Y-125380952D01*
X93702380Y-125476190D01*
X93654761Y-125571428D01*
X93607142Y-125619047D01*
X93511904Y-125666666D01*
X93321428Y-125714285D01*
X93083333Y-125714285D01*
X92892857Y-125666666D01*
X92797619Y-125619047D01*
X92750000Y-125571428D01*
X92702380Y-125476190D01*
X93035714Y-124285714D02*
X93702380Y-124285714D01*
X93035714Y-124714285D02*
X93559523Y-124714285D01*
X93654761Y-124666666D01*
X93702380Y-124571428D01*
X93702380Y-124428571D01*
X93654761Y-124333333D01*
X93607142Y-124285714D01*
X93178571Y-123476190D02*
X93178571Y-123809523D01*
X93702380Y-123809523D02*
X92702380Y-123809523D01*
X92702380Y-123333333D01*
%TO.C,C3*%
X131607142Y-56666666D02*
X131654761Y-56714285D01*
X131702380Y-56857142D01*
X131702380Y-56952380D01*
X131654761Y-57095238D01*
X131559523Y-57190476D01*
X131464285Y-57238095D01*
X131273809Y-57285714D01*
X131130952Y-57285714D01*
X130940476Y-57238095D01*
X130845238Y-57190476D01*
X130750000Y-57095238D01*
X130702380Y-56952380D01*
X130702380Y-56857142D01*
X130750000Y-56714285D01*
X130797619Y-56666666D01*
X130702380Y-56333333D02*
X130702380Y-55714285D01*
X131083333Y-56047619D01*
X131083333Y-55904761D01*
X131130952Y-55809523D01*
X131178571Y-55761904D01*
X131273809Y-55714285D01*
X131511904Y-55714285D01*
X131607142Y-55761904D01*
X131654761Y-55809523D01*
X131702380Y-55904761D01*
X131702380Y-56190476D01*
X131654761Y-56285714D01*
X131607142Y-56333333D01*
X131047619Y-51892857D02*
X131000000Y-51845238D01*
X130952380Y-51750000D01*
X130952380Y-51511904D01*
X131000000Y-51416666D01*
X131047619Y-51369047D01*
X131142857Y-51321428D01*
X131238095Y-51321428D01*
X131380952Y-51369047D01*
X131952380Y-51940476D01*
X131952380Y-51321428D01*
X131047619Y-50940476D02*
X131000000Y-50892857D01*
X130952380Y-50797619D01*
X130952380Y-50559523D01*
X131000000Y-50464285D01*
X131047619Y-50416666D01*
X131142857Y-50369047D01*
X131238095Y-50369047D01*
X131380952Y-50416666D01*
X131952380Y-50988095D01*
X131952380Y-50369047D01*
X131285714Y-49940476D02*
X131952380Y-49940476D01*
X131380952Y-49940476D02*
X131333333Y-49892857D01*
X131285714Y-49797619D01*
X131285714Y-49654761D01*
X131333333Y-49559523D01*
X131428571Y-49511904D01*
X131952380Y-49511904D01*
X131428571Y-48702380D02*
X131428571Y-49035714D01*
X131952380Y-49035714D02*
X130952380Y-49035714D01*
X130952380Y-48559523D01*
%TO.C,H4*%
X83238095Y-138452380D02*
X83238095Y-137452380D01*
X83238095Y-137928571D02*
X83809523Y-137928571D01*
X83809523Y-138452380D02*
X83809523Y-137452380D01*
X84714285Y-137785714D02*
X84714285Y-138452380D01*
X84476190Y-137404761D02*
X84238095Y-138119047D01*
X84857142Y-138119047D01*
%TO.C,H3*%
X222238095Y-131252380D02*
X222238095Y-130252380D01*
X222238095Y-130728571D02*
X222809523Y-130728571D01*
X222809523Y-131252380D02*
X222809523Y-130252380D01*
X223190476Y-130252380D02*
X223809523Y-130252380D01*
X223476190Y-130633333D01*
X223619047Y-130633333D01*
X223714285Y-130680952D01*
X223761904Y-130728571D01*
X223809523Y-130823809D01*
X223809523Y-131061904D01*
X223761904Y-131157142D01*
X223714285Y-131204761D01*
X223619047Y-131252380D01*
X223333333Y-131252380D01*
X223238095Y-131204761D01*
X223190476Y-131157142D01*
%TO.C,H2*%
X129238095Y-89252380D02*
X129238095Y-88252380D01*
X129238095Y-88728571D02*
X129809523Y-88728571D01*
X129809523Y-89252380D02*
X129809523Y-88252380D01*
X130238095Y-88347619D02*
X130285714Y-88300000D01*
X130380952Y-88252380D01*
X130619047Y-88252380D01*
X130714285Y-88300000D01*
X130761904Y-88347619D01*
X130809523Y-88442857D01*
X130809523Y-88538095D01*
X130761904Y-88680952D01*
X130190476Y-89252380D01*
X130809523Y-89252380D01*
%TO.C,H1*%
X222238095Y-43252380D02*
X222238095Y-42252380D01*
X222238095Y-42728571D02*
X222809523Y-42728571D01*
X222809523Y-43252380D02*
X222809523Y-42252380D01*
X223809523Y-43252380D02*
X223238095Y-43252380D01*
X223523809Y-43252380D02*
X223523809Y-42252380D01*
X223428571Y-42395238D01*
X223333333Y-42490476D01*
X223238095Y-42538095D01*
%TO.C,J10*%
X76252380Y-91409523D02*
X76966666Y-91409523D01*
X77109523Y-91457142D01*
X77204761Y-91552380D01*
X77252380Y-91695238D01*
X77252380Y-91790476D01*
X77252380Y-90409523D02*
X77252380Y-90980952D01*
X77252380Y-90695238D02*
X76252380Y-90695238D01*
X76395238Y-90790476D01*
X76490476Y-90885714D01*
X76538095Y-90980952D01*
X76252380Y-89790476D02*
X76252380Y-89695238D01*
X76300000Y-89600000D01*
X76347619Y-89552380D01*
X76442857Y-89504761D01*
X76633333Y-89457142D01*
X76871428Y-89457142D01*
X77061904Y-89504761D01*
X77157142Y-89552380D01*
X77204761Y-89600000D01*
X77252380Y-89695238D01*
X77252380Y-89790476D01*
X77204761Y-89885714D01*
X77157142Y-89933333D01*
X77061904Y-89980952D01*
X76871428Y-90028571D01*
X76633333Y-90028571D01*
X76442857Y-89980952D01*
X76347619Y-89933333D01*
X76300000Y-89885714D01*
X76252380Y-89790476D01*
%TO.C,R3*%
X111652380Y-107566666D02*
X111176190Y-107900000D01*
X111652380Y-108138095D02*
X110652380Y-108138095D01*
X110652380Y-107757142D01*
X110700000Y-107661904D01*
X110747619Y-107614285D01*
X110842857Y-107566666D01*
X110985714Y-107566666D01*
X111080952Y-107614285D01*
X111128571Y-107661904D01*
X111176190Y-107757142D01*
X111176190Y-108138095D01*
X110652380Y-107233333D02*
X110652380Y-106614285D01*
X111033333Y-106947619D01*
X111033333Y-106804761D01*
X111080952Y-106709523D01*
X111128571Y-106661904D01*
X111223809Y-106614285D01*
X111461904Y-106614285D01*
X111557142Y-106661904D01*
X111604761Y-106709523D01*
X111652380Y-106804761D01*
X111652380Y-107090476D01*
X111604761Y-107185714D01*
X111557142Y-107233333D01*
%TO.C,R9*%
X125652380Y-107566666D02*
X125176190Y-107900000D01*
X125652380Y-108138095D02*
X124652380Y-108138095D01*
X124652380Y-107757142D01*
X124700000Y-107661904D01*
X124747619Y-107614285D01*
X124842857Y-107566666D01*
X124985714Y-107566666D01*
X125080952Y-107614285D01*
X125128571Y-107661904D01*
X125176190Y-107757142D01*
X125176190Y-108138095D01*
X125652380Y-107090476D02*
X125652380Y-106900000D01*
X125604761Y-106804761D01*
X125557142Y-106757142D01*
X125414285Y-106661904D01*
X125223809Y-106614285D01*
X124842857Y-106614285D01*
X124747619Y-106661904D01*
X124700000Y-106709523D01*
X124652380Y-106804761D01*
X124652380Y-106995238D01*
X124700000Y-107090476D01*
X124747619Y-107138095D01*
X124842857Y-107185714D01*
X125080952Y-107185714D01*
X125176190Y-107138095D01*
X125223809Y-107090476D01*
X125271428Y-106995238D01*
X125271428Y-106804761D01*
X125223809Y-106709523D01*
X125176190Y-106661904D01*
X125080952Y-106614285D01*
%TO.C,U1*%
X123428095Y-81182380D02*
X123428095Y-81991904D01*
X123475714Y-82087142D01*
X123523333Y-82134761D01*
X123618571Y-82182380D01*
X123809047Y-82182380D01*
X123904285Y-82134761D01*
X123951904Y-82087142D01*
X123999523Y-81991904D01*
X123999523Y-81182380D01*
X124999523Y-82182380D02*
X124428095Y-82182380D01*
X124713809Y-82182380D02*
X124713809Y-81182380D01*
X124618571Y-81325238D01*
X124523333Y-81420476D01*
X124428095Y-81468095D01*
X119428571Y-43952380D02*
X119428571Y-42952380D01*
X119761904Y-43666666D01*
X120095238Y-42952380D01*
X120095238Y-43952380D01*
X121142857Y-43857142D02*
X121095238Y-43904761D01*
X120952380Y-43952380D01*
X120857142Y-43952380D01*
X120714285Y-43904761D01*
X120619047Y-43809523D01*
X120571428Y-43714285D01*
X120523809Y-43523809D01*
X120523809Y-43380952D01*
X120571428Y-43190476D01*
X120619047Y-43095238D01*
X120714285Y-43000000D01*
X120857142Y-42952380D01*
X120952380Y-42952380D01*
X121095238Y-43000000D01*
X121142857Y-43047619D01*
X121571428Y-43952380D02*
X121571428Y-42952380D01*
X121952380Y-42952380D01*
X122047619Y-43000000D01*
X122095238Y-43047619D01*
X122142857Y-43142857D01*
X122142857Y-43285714D01*
X122095238Y-43380952D01*
X122047619Y-43428571D01*
X121952380Y-43476190D01*
X121571428Y-43476190D01*
X122523809Y-43047619D02*
X122571428Y-43000000D01*
X122666666Y-42952380D01*
X122904761Y-42952380D01*
X123000000Y-43000000D01*
X123047619Y-43047619D01*
X123095238Y-43142857D01*
X123095238Y-43238095D01*
X123047619Y-43380952D01*
X122476190Y-43952380D01*
X123095238Y-43952380D01*
X123428571Y-42952380D02*
X124047619Y-42952380D01*
X123714285Y-43333333D01*
X123857142Y-43333333D01*
X123952380Y-43380952D01*
X124000000Y-43428571D01*
X124047619Y-43523809D01*
X124047619Y-43761904D01*
X124000000Y-43857142D01*
X123952380Y-43904761D01*
X123857142Y-43952380D01*
X123571428Y-43952380D01*
X123476190Y-43904761D01*
X123428571Y-43857142D01*
X124666666Y-42952380D02*
X124761904Y-42952380D01*
X124857142Y-43000000D01*
X124904761Y-43047619D01*
X124952380Y-43142857D01*
X125000000Y-43333333D01*
X125000000Y-43571428D01*
X124952380Y-43761904D01*
X124904761Y-43857142D01*
X124857142Y-43904761D01*
X124761904Y-43952380D01*
X124666666Y-43952380D01*
X124571428Y-43904761D01*
X124523809Y-43857142D01*
X124476190Y-43761904D01*
X124428571Y-43571428D01*
X124428571Y-43333333D01*
X124476190Y-43142857D01*
X124523809Y-43047619D01*
X124571428Y-43000000D01*
X124666666Y-42952380D01*
X125952380Y-43952380D02*
X125380952Y-43952380D01*
X125666666Y-43952380D02*
X125666666Y-42952380D01*
X125571428Y-43095238D01*
X125476190Y-43190476D01*
X125380952Y-43238095D01*
X126285714Y-42952380D02*
X126952380Y-42952380D01*
X126523809Y-43952380D01*
X127095238Y-44047619D02*
X127857142Y-44047619D01*
X128047619Y-43904761D02*
X128190476Y-43952380D01*
X128428571Y-43952380D01*
X128523809Y-43904761D01*
X128571428Y-43857142D01*
X128619047Y-43761904D01*
X128619047Y-43666666D01*
X128571428Y-43571428D01*
X128523809Y-43523809D01*
X128428571Y-43476190D01*
X128238095Y-43428571D01*
X128142857Y-43380952D01*
X128095238Y-43333333D01*
X128047619Y-43238095D01*
X128047619Y-43142857D01*
X128095238Y-43047619D01*
X128142857Y-43000000D01*
X128238095Y-42952380D01*
X128476190Y-42952380D01*
X128619047Y-43000000D01*
X129047619Y-43952380D02*
X129047619Y-42952380D01*
X129428571Y-42952380D01*
X129523809Y-43000000D01*
X129571428Y-43047619D01*
X129619047Y-43142857D01*
X129619047Y-43285714D01*
X129571428Y-43380952D01*
X129523809Y-43428571D01*
X129428571Y-43476190D01*
X129047619Y-43476190D01*
%TO.C,R8*%
X82202380Y-117416666D02*
X81726190Y-117750000D01*
X82202380Y-117988095D02*
X81202380Y-117988095D01*
X81202380Y-117607142D01*
X81250000Y-117511904D01*
X81297619Y-117464285D01*
X81392857Y-117416666D01*
X81535714Y-117416666D01*
X81630952Y-117464285D01*
X81678571Y-117511904D01*
X81726190Y-117607142D01*
X81726190Y-117988095D01*
X81630952Y-116845238D02*
X81583333Y-116940476D01*
X81535714Y-116988095D01*
X81440476Y-117035714D01*
X81392857Y-117035714D01*
X81297619Y-116988095D01*
X81250000Y-116940476D01*
X81202380Y-116845238D01*
X81202380Y-116654761D01*
X81250000Y-116559523D01*
X81297619Y-116511904D01*
X81392857Y-116464285D01*
X81440476Y-116464285D01*
X81535714Y-116511904D01*
X81583333Y-116559523D01*
X81630952Y-116654761D01*
X81630952Y-116845238D01*
X81678571Y-116940476D01*
X81726190Y-116988095D01*
X81821428Y-117035714D01*
X82011904Y-117035714D01*
X82107142Y-116988095D01*
X82154761Y-116940476D01*
X82202380Y-116845238D01*
X82202380Y-116654761D01*
X82154761Y-116559523D01*
X82107142Y-116511904D01*
X82011904Y-116464285D01*
X81821428Y-116464285D01*
X81726190Y-116511904D01*
X81678571Y-116559523D01*
X81630952Y-116654761D01*
X81785714Y-121261904D02*
X82452380Y-121261904D01*
X81404761Y-121500000D02*
X82119047Y-121738095D01*
X82119047Y-121119047D01*
X81452380Y-120833333D02*
X81452380Y-120166666D01*
X82452380Y-120595238D01*
X81452380Y-119595238D02*
X81452380Y-119500000D01*
X81500000Y-119404761D01*
X81547619Y-119357142D01*
X81642857Y-119309523D01*
X81833333Y-119261904D01*
X82071428Y-119261904D01*
X82261904Y-119309523D01*
X82357142Y-119357142D01*
X82404761Y-119404761D01*
X82452380Y-119500000D01*
X82452380Y-119595238D01*
X82404761Y-119690476D01*
X82357142Y-119738095D01*
X82261904Y-119785714D01*
X82071428Y-119833333D01*
X81833333Y-119833333D01*
X81642857Y-119785714D01*
X81547619Y-119738095D01*
X81500000Y-119690476D01*
X81452380Y-119595238D01*
%TO.C,J4*%
X76252380Y-106133333D02*
X76966666Y-106133333D01*
X77109523Y-106180952D01*
X77204761Y-106276190D01*
X77252380Y-106419047D01*
X77252380Y-106514285D01*
X76585714Y-105228571D02*
X77252380Y-105228571D01*
X76204761Y-105466666D02*
X76919047Y-105704761D01*
X76919047Y-105085714D01*
%TO.C,D6*%
X74861904Y-124852380D02*
X74861904Y-123852380D01*
X75100000Y-123852380D01*
X75242857Y-123900000D01*
X75338095Y-123995238D01*
X75385714Y-124090476D01*
X75433333Y-124280952D01*
X75433333Y-124423809D01*
X75385714Y-124614285D01*
X75338095Y-124709523D01*
X75242857Y-124804761D01*
X75100000Y-124852380D01*
X74861904Y-124852380D01*
X76290476Y-123852380D02*
X76100000Y-123852380D01*
X76004761Y-123900000D01*
X75957142Y-123947619D01*
X75861904Y-124090476D01*
X75814285Y-124280952D01*
X75814285Y-124661904D01*
X75861904Y-124757142D01*
X75909523Y-124804761D01*
X76004761Y-124852380D01*
X76195238Y-124852380D01*
X76290476Y-124804761D01*
X76338095Y-124757142D01*
X76385714Y-124661904D01*
X76385714Y-124423809D01*
X76338095Y-124328571D01*
X76290476Y-124280952D01*
X76195238Y-124233333D01*
X76004761Y-124233333D01*
X75909523Y-124280952D01*
X75861904Y-124328571D01*
X75814285Y-124423809D01*
%TO.C,D1*%
X74852380Y-115538095D02*
X73852380Y-115538095D01*
X73852380Y-115300000D01*
X73900000Y-115157142D01*
X73995238Y-115061904D01*
X74090476Y-115014285D01*
X74280952Y-114966666D01*
X74423809Y-114966666D01*
X74614285Y-115014285D01*
X74709523Y-115061904D01*
X74804761Y-115157142D01*
X74852380Y-115300000D01*
X74852380Y-115538095D01*
X74852380Y-114014285D02*
X74852380Y-114585714D01*
X74852380Y-114300000D02*
X73852380Y-114300000D01*
X73995238Y-114395238D01*
X74090476Y-114490476D01*
X74138095Y-114585714D01*
%TO.C,C2*%
X136407142Y-56916666D02*
X136454761Y-56964285D01*
X136502380Y-57107142D01*
X136502380Y-57202380D01*
X136454761Y-57345238D01*
X136359523Y-57440476D01*
X136264285Y-57488095D01*
X136073809Y-57535714D01*
X135930952Y-57535714D01*
X135740476Y-57488095D01*
X135645238Y-57440476D01*
X135550000Y-57345238D01*
X135502380Y-57202380D01*
X135502380Y-57107142D01*
X135550000Y-56964285D01*
X135597619Y-56916666D01*
X135597619Y-56535714D02*
X135550000Y-56488095D01*
X135502380Y-56392857D01*
X135502380Y-56154761D01*
X135550000Y-56059523D01*
X135597619Y-56011904D01*
X135692857Y-55964285D01*
X135788095Y-55964285D01*
X135930952Y-56011904D01*
X136502380Y-56583333D01*
X136502380Y-55964285D01*
X134797619Y-52119047D02*
X134750000Y-52071428D01*
X134702380Y-51976190D01*
X134702380Y-51738095D01*
X134750000Y-51642857D01*
X134797619Y-51595238D01*
X134892857Y-51547619D01*
X134988095Y-51547619D01*
X135130952Y-51595238D01*
X135702380Y-52166666D01*
X135702380Y-51547619D01*
X134797619Y-51166666D02*
X134750000Y-51119047D01*
X134702380Y-51023809D01*
X134702380Y-50785714D01*
X134750000Y-50690476D01*
X134797619Y-50642857D01*
X134892857Y-50595238D01*
X134988095Y-50595238D01*
X135130952Y-50642857D01*
X135702380Y-51214285D01*
X135702380Y-50595238D01*
X134702380Y-49976190D02*
X134702380Y-49880952D01*
X134750000Y-49785714D01*
X134797619Y-49738095D01*
X134892857Y-49690476D01*
X135083333Y-49642857D01*
X135321428Y-49642857D01*
X135511904Y-49690476D01*
X135607142Y-49738095D01*
X135654761Y-49785714D01*
X135702380Y-49880952D01*
X135702380Y-49976190D01*
X135654761Y-50071428D01*
X135607142Y-50119047D01*
X135511904Y-50166666D01*
X135321428Y-50214285D01*
X135083333Y-50214285D01*
X134892857Y-50166666D01*
X134797619Y-50119047D01*
X134750000Y-50071428D01*
X134702380Y-49976190D01*
X135035714Y-49214285D02*
X135702380Y-49214285D01*
X135130952Y-49214285D02*
X135083333Y-49166666D01*
X135035714Y-49071428D01*
X135035714Y-48928571D01*
X135083333Y-48833333D01*
X135178571Y-48785714D01*
X135702380Y-48785714D01*
X135178571Y-47976190D02*
X135178571Y-48309523D01*
X135702380Y-48309523D02*
X134702380Y-48309523D01*
X134702380Y-47833333D01*
%TO.C,U2*%
X154452380Y-49361904D02*
X155261904Y-49361904D01*
X155357142Y-49314285D01*
X155404761Y-49266666D01*
X155452380Y-49171428D01*
X155452380Y-48980952D01*
X155404761Y-48885714D01*
X155357142Y-48838095D01*
X155261904Y-48790476D01*
X154452380Y-48790476D01*
X154547619Y-48361904D02*
X154500000Y-48314285D01*
X154452380Y-48219047D01*
X154452380Y-47980952D01*
X154500000Y-47885714D01*
X154547619Y-47838095D01*
X154642857Y-47790476D01*
X154738095Y-47790476D01*
X154880952Y-47838095D01*
X155452380Y-48409523D01*
X155452380Y-47790476D01*
%TO.C,J1*%
X186866666Y-43452380D02*
X186866666Y-44166666D01*
X186819047Y-44309523D01*
X186723809Y-44404761D01*
X186580952Y-44452380D01*
X186485714Y-44452380D01*
X187866666Y-44452380D02*
X187295238Y-44452380D01*
X187580952Y-44452380D02*
X187580952Y-43452380D01*
X187485714Y-43595238D01*
X187390476Y-43690476D01*
X187295238Y-43738095D01*
%TO.C,C5*%
X167607142Y-48666666D02*
X167654761Y-48714285D01*
X167702380Y-48857142D01*
X167702380Y-48952380D01*
X167654761Y-49095238D01*
X167559523Y-49190476D01*
X167464285Y-49238095D01*
X167273809Y-49285714D01*
X167130952Y-49285714D01*
X166940476Y-49238095D01*
X166845238Y-49190476D01*
X166750000Y-49095238D01*
X166702380Y-48952380D01*
X166702380Y-48857142D01*
X166750000Y-48714285D01*
X166797619Y-48666666D01*
X166702380Y-47761904D02*
X166702380Y-48238095D01*
X167178571Y-48285714D01*
X167130952Y-48238095D01*
X167083333Y-48142857D01*
X167083333Y-47904761D01*
X167130952Y-47809523D01*
X167178571Y-47761904D01*
X167273809Y-47714285D01*
X167511904Y-47714285D01*
X167607142Y-47761904D01*
X167654761Y-47809523D01*
X167702380Y-47904761D01*
X167702380Y-48142857D01*
X167654761Y-48238095D01*
X167607142Y-48285714D01*
X165630952Y-43047619D02*
X165678571Y-43000000D01*
X165773809Y-42952380D01*
X166011904Y-42952380D01*
X166107142Y-43000000D01*
X166154761Y-43047619D01*
X166202380Y-43142857D01*
X166202380Y-43238095D01*
X166154761Y-43380952D01*
X165583333Y-43952380D01*
X166202380Y-43952380D01*
X166583333Y-43047619D02*
X166630952Y-43000000D01*
X166726190Y-42952380D01*
X166964285Y-42952380D01*
X167059523Y-43000000D01*
X167107142Y-43047619D01*
X167154761Y-43142857D01*
X167154761Y-43238095D01*
X167107142Y-43380952D01*
X166535714Y-43952380D01*
X167154761Y-43952380D01*
X167773809Y-42952380D02*
X167869047Y-42952380D01*
X167964285Y-43000000D01*
X168011904Y-43047619D01*
X168059523Y-43142857D01*
X168107142Y-43333333D01*
X168107142Y-43571428D01*
X168059523Y-43761904D01*
X168011904Y-43857142D01*
X167964285Y-43904761D01*
X167869047Y-43952380D01*
X167773809Y-43952380D01*
X167678571Y-43904761D01*
X167630952Y-43857142D01*
X167583333Y-43761904D01*
X167535714Y-43571428D01*
X167535714Y-43333333D01*
X167583333Y-43142857D01*
X167630952Y-43047619D01*
X167678571Y-43000000D01*
X167773809Y-42952380D01*
X168535714Y-43285714D02*
X168535714Y-43952380D01*
X168535714Y-43380952D02*
X168583333Y-43333333D01*
X168678571Y-43285714D01*
X168821428Y-43285714D01*
X168916666Y-43333333D01*
X168964285Y-43428571D01*
X168964285Y-43952380D01*
X169773809Y-43428571D02*
X169440476Y-43428571D01*
X169440476Y-43952380D02*
X169440476Y-42952380D01*
X169916666Y-42952380D01*
%TO.C,C4*%
X173557142Y-49566666D02*
X173604761Y-49614285D01*
X173652380Y-49757142D01*
X173652380Y-49852380D01*
X173604761Y-49995238D01*
X173509523Y-50090476D01*
X173414285Y-50138095D01*
X173223809Y-50185714D01*
X173080952Y-50185714D01*
X172890476Y-50138095D01*
X172795238Y-50090476D01*
X172700000Y-49995238D01*
X172652380Y-49852380D01*
X172652380Y-49757142D01*
X172700000Y-49614285D01*
X172747619Y-49566666D01*
X172985714Y-48709523D02*
X173652380Y-48709523D01*
X172604761Y-48947619D02*
X173319047Y-49185714D01*
X173319047Y-48566666D01*
X174130952Y-42047619D02*
X174178571Y-42000000D01*
X174273809Y-41952380D01*
X174511904Y-41952380D01*
X174607142Y-42000000D01*
X174654761Y-42047619D01*
X174702380Y-42142857D01*
X174702380Y-42238095D01*
X174654761Y-42380952D01*
X174083333Y-42952380D01*
X174702380Y-42952380D01*
X175083333Y-42047619D02*
X175130952Y-42000000D01*
X175226190Y-41952380D01*
X175464285Y-41952380D01*
X175559523Y-42000000D01*
X175607142Y-42047619D01*
X175654761Y-42142857D01*
X175654761Y-42238095D01*
X175607142Y-42380952D01*
X175035714Y-42952380D01*
X175654761Y-42952380D01*
X176273809Y-41952380D02*
X176369047Y-41952380D01*
X176464285Y-42000000D01*
X176511904Y-42047619D01*
X176559523Y-42142857D01*
X176607142Y-42333333D01*
X176607142Y-42571428D01*
X176559523Y-42761904D01*
X176511904Y-42857142D01*
X176464285Y-42904761D01*
X176369047Y-42952380D01*
X176273809Y-42952380D01*
X176178571Y-42904761D01*
X176130952Y-42857142D01*
X176083333Y-42761904D01*
X176035714Y-42571428D01*
X176035714Y-42333333D01*
X176083333Y-42142857D01*
X176130952Y-42047619D01*
X176178571Y-42000000D01*
X176273809Y-41952380D01*
X177464285Y-42285714D02*
X177464285Y-42952380D01*
X177035714Y-42285714D02*
X177035714Y-42809523D01*
X177083333Y-42904761D01*
X177178571Y-42952380D01*
X177321428Y-42952380D01*
X177416666Y-42904761D01*
X177464285Y-42857142D01*
X178273809Y-42428571D02*
X177940476Y-42428571D01*
X177940476Y-42952380D02*
X177940476Y-41952380D01*
X178416666Y-41952380D01*
%TO.C,R36*%
X224852380Y-78442857D02*
X224376190Y-78776190D01*
X224852380Y-79014285D02*
X223852380Y-79014285D01*
X223852380Y-78633333D01*
X223900000Y-78538095D01*
X223947619Y-78490476D01*
X224042857Y-78442857D01*
X224185714Y-78442857D01*
X224280952Y-78490476D01*
X224328571Y-78538095D01*
X224376190Y-78633333D01*
X224376190Y-79014285D01*
X223852380Y-78109523D02*
X223852380Y-77490476D01*
X224233333Y-77823809D01*
X224233333Y-77680952D01*
X224280952Y-77585714D01*
X224328571Y-77538095D01*
X224423809Y-77490476D01*
X224661904Y-77490476D01*
X224757142Y-77538095D01*
X224804761Y-77585714D01*
X224852380Y-77680952D01*
X224852380Y-77966666D01*
X224804761Y-78061904D01*
X224757142Y-78109523D01*
X223852380Y-76633333D02*
X223852380Y-76823809D01*
X223900000Y-76919047D01*
X223947619Y-76966666D01*
X224090476Y-77061904D01*
X224280952Y-77109523D01*
X224661904Y-77109523D01*
X224757142Y-77061904D01*
X224804761Y-77014285D01*
X224852380Y-76919047D01*
X224852380Y-76728571D01*
X224804761Y-76633333D01*
X224757142Y-76585714D01*
X224661904Y-76538095D01*
X224423809Y-76538095D01*
X224328571Y-76585714D01*
X224280952Y-76633333D01*
X224233333Y-76728571D01*
X224233333Y-76919047D01*
X224280952Y-77014285D01*
X224328571Y-77061904D01*
X224423809Y-77109523D01*
%TO.C,R35*%
X222252380Y-108042857D02*
X221776190Y-108376190D01*
X222252380Y-108614285D02*
X221252380Y-108614285D01*
X221252380Y-108233333D01*
X221300000Y-108138095D01*
X221347619Y-108090476D01*
X221442857Y-108042857D01*
X221585714Y-108042857D01*
X221680952Y-108090476D01*
X221728571Y-108138095D01*
X221776190Y-108233333D01*
X221776190Y-108614285D01*
X221252380Y-107709523D02*
X221252380Y-107090476D01*
X221633333Y-107423809D01*
X221633333Y-107280952D01*
X221680952Y-107185714D01*
X221728571Y-107138095D01*
X221823809Y-107090476D01*
X222061904Y-107090476D01*
X222157142Y-107138095D01*
X222204761Y-107185714D01*
X222252380Y-107280952D01*
X222252380Y-107566666D01*
X222204761Y-107661904D01*
X222157142Y-107709523D01*
X221252380Y-106185714D02*
X221252380Y-106661904D01*
X221728571Y-106709523D01*
X221680952Y-106661904D01*
X221633333Y-106566666D01*
X221633333Y-106328571D01*
X221680952Y-106233333D01*
X221728571Y-106185714D01*
X221823809Y-106138095D01*
X222061904Y-106138095D01*
X222157142Y-106185714D01*
X222204761Y-106233333D01*
X222252380Y-106328571D01*
X222252380Y-106566666D01*
X222204761Y-106661904D01*
X222157142Y-106709523D01*
%TO.C,R34*%
X169652380Y-78442857D02*
X169176190Y-78776190D01*
X169652380Y-79014285D02*
X168652380Y-79014285D01*
X168652380Y-78633333D01*
X168700000Y-78538095D01*
X168747619Y-78490476D01*
X168842857Y-78442857D01*
X168985714Y-78442857D01*
X169080952Y-78490476D01*
X169128571Y-78538095D01*
X169176190Y-78633333D01*
X169176190Y-79014285D01*
X168652380Y-78109523D02*
X168652380Y-77490476D01*
X169033333Y-77823809D01*
X169033333Y-77680952D01*
X169080952Y-77585714D01*
X169128571Y-77538095D01*
X169223809Y-77490476D01*
X169461904Y-77490476D01*
X169557142Y-77538095D01*
X169604761Y-77585714D01*
X169652380Y-77680952D01*
X169652380Y-77966666D01*
X169604761Y-78061904D01*
X169557142Y-78109523D01*
X168985714Y-76633333D02*
X169652380Y-76633333D01*
X168604761Y-76871428D02*
X169319047Y-77109523D01*
X169319047Y-76490476D01*
%TO.C,R32*%
X211052380Y-78442857D02*
X210576190Y-78776190D01*
X211052380Y-79014285D02*
X210052380Y-79014285D01*
X210052380Y-78633333D01*
X210100000Y-78538095D01*
X210147619Y-78490476D01*
X210242857Y-78442857D01*
X210385714Y-78442857D01*
X210480952Y-78490476D01*
X210528571Y-78538095D01*
X210576190Y-78633333D01*
X210576190Y-79014285D01*
X210052380Y-78109523D02*
X210052380Y-77490476D01*
X210433333Y-77823809D01*
X210433333Y-77680952D01*
X210480952Y-77585714D01*
X210528571Y-77538095D01*
X210623809Y-77490476D01*
X210861904Y-77490476D01*
X210957142Y-77538095D01*
X211004761Y-77585714D01*
X211052380Y-77680952D01*
X211052380Y-77966666D01*
X211004761Y-78061904D01*
X210957142Y-78109523D01*
X210147619Y-77109523D02*
X210100000Y-77061904D01*
X210052380Y-76966666D01*
X210052380Y-76728571D01*
X210100000Y-76633333D01*
X210147619Y-76585714D01*
X210242857Y-76538095D01*
X210338095Y-76538095D01*
X210480952Y-76585714D01*
X211052380Y-77157142D01*
X211052380Y-76538095D01*
%TO.C,R31*%
X208452380Y-108042857D02*
X207976190Y-108376190D01*
X208452380Y-108614285D02*
X207452380Y-108614285D01*
X207452380Y-108233333D01*
X207500000Y-108138095D01*
X207547619Y-108090476D01*
X207642857Y-108042857D01*
X207785714Y-108042857D01*
X207880952Y-108090476D01*
X207928571Y-108138095D01*
X207976190Y-108233333D01*
X207976190Y-108614285D01*
X207452380Y-107709523D02*
X207452380Y-107090476D01*
X207833333Y-107423809D01*
X207833333Y-107280952D01*
X207880952Y-107185714D01*
X207928571Y-107138095D01*
X208023809Y-107090476D01*
X208261904Y-107090476D01*
X208357142Y-107138095D01*
X208404761Y-107185714D01*
X208452380Y-107280952D01*
X208452380Y-107566666D01*
X208404761Y-107661904D01*
X208357142Y-107709523D01*
X208452380Y-106138095D02*
X208452380Y-106709523D01*
X208452380Y-106423809D02*
X207452380Y-106423809D01*
X207595238Y-106519047D01*
X207690476Y-106614285D01*
X207738095Y-106709523D01*
%TO.C,R30*%
X155852380Y-78442857D02*
X155376190Y-78776190D01*
X155852380Y-79014285D02*
X154852380Y-79014285D01*
X154852380Y-78633333D01*
X154900000Y-78538095D01*
X154947619Y-78490476D01*
X155042857Y-78442857D01*
X155185714Y-78442857D01*
X155280952Y-78490476D01*
X155328571Y-78538095D01*
X155376190Y-78633333D01*
X155376190Y-79014285D01*
X154852380Y-78109523D02*
X154852380Y-77490476D01*
X155233333Y-77823809D01*
X155233333Y-77680952D01*
X155280952Y-77585714D01*
X155328571Y-77538095D01*
X155423809Y-77490476D01*
X155661904Y-77490476D01*
X155757142Y-77538095D01*
X155804761Y-77585714D01*
X155852380Y-77680952D01*
X155852380Y-77966666D01*
X155804761Y-78061904D01*
X155757142Y-78109523D01*
X154852380Y-76871428D02*
X154852380Y-76776190D01*
X154900000Y-76680952D01*
X154947619Y-76633333D01*
X155042857Y-76585714D01*
X155233333Y-76538095D01*
X155471428Y-76538095D01*
X155661904Y-76585714D01*
X155757142Y-76633333D01*
X155804761Y-76680952D01*
X155852380Y-76776190D01*
X155852380Y-76871428D01*
X155804761Y-76966666D01*
X155757142Y-77014285D01*
X155661904Y-77061904D01*
X155471428Y-77109523D01*
X155233333Y-77109523D01*
X155042857Y-77061904D01*
X154947619Y-77014285D01*
X154900000Y-76966666D01*
X154852380Y-76871428D01*
%TO.C,R28*%
X197252380Y-78442857D02*
X196776190Y-78776190D01*
X197252380Y-79014285D02*
X196252380Y-79014285D01*
X196252380Y-78633333D01*
X196300000Y-78538095D01*
X196347619Y-78490476D01*
X196442857Y-78442857D01*
X196585714Y-78442857D01*
X196680952Y-78490476D01*
X196728571Y-78538095D01*
X196776190Y-78633333D01*
X196776190Y-79014285D01*
X196347619Y-78061904D02*
X196300000Y-78014285D01*
X196252380Y-77919047D01*
X196252380Y-77680952D01*
X196300000Y-77585714D01*
X196347619Y-77538095D01*
X196442857Y-77490476D01*
X196538095Y-77490476D01*
X196680952Y-77538095D01*
X197252380Y-78109523D01*
X197252380Y-77490476D01*
X196680952Y-76919047D02*
X196633333Y-77014285D01*
X196585714Y-77061904D01*
X196490476Y-77109523D01*
X196442857Y-77109523D01*
X196347619Y-77061904D01*
X196300000Y-77014285D01*
X196252380Y-76919047D01*
X196252380Y-76728571D01*
X196300000Y-76633333D01*
X196347619Y-76585714D01*
X196442857Y-76538095D01*
X196490476Y-76538095D01*
X196585714Y-76585714D01*
X196633333Y-76633333D01*
X196680952Y-76728571D01*
X196680952Y-76919047D01*
X196728571Y-77014285D01*
X196776190Y-77061904D01*
X196871428Y-77109523D01*
X197061904Y-77109523D01*
X197157142Y-77061904D01*
X197204761Y-77014285D01*
X197252380Y-76919047D01*
X197252380Y-76728571D01*
X197204761Y-76633333D01*
X197157142Y-76585714D01*
X197061904Y-76538095D01*
X196871428Y-76538095D01*
X196776190Y-76585714D01*
X196728571Y-76633333D01*
X196680952Y-76728571D01*
%TO.C,R27*%
X194652380Y-108042857D02*
X194176190Y-108376190D01*
X194652380Y-108614285D02*
X193652380Y-108614285D01*
X193652380Y-108233333D01*
X193700000Y-108138095D01*
X193747619Y-108090476D01*
X193842857Y-108042857D01*
X193985714Y-108042857D01*
X194080952Y-108090476D01*
X194128571Y-108138095D01*
X194176190Y-108233333D01*
X194176190Y-108614285D01*
X193747619Y-107661904D02*
X193700000Y-107614285D01*
X193652380Y-107519047D01*
X193652380Y-107280952D01*
X193700000Y-107185714D01*
X193747619Y-107138095D01*
X193842857Y-107090476D01*
X193938095Y-107090476D01*
X194080952Y-107138095D01*
X194652380Y-107709523D01*
X194652380Y-107090476D01*
X193652380Y-106757142D02*
X193652380Y-106090476D01*
X194652380Y-106519047D01*
%TO.C,R26*%
X180852380Y-108042857D02*
X180376190Y-108376190D01*
X180852380Y-108614285D02*
X179852380Y-108614285D01*
X179852380Y-108233333D01*
X179900000Y-108138095D01*
X179947619Y-108090476D01*
X180042857Y-108042857D01*
X180185714Y-108042857D01*
X180280952Y-108090476D01*
X180328571Y-108138095D01*
X180376190Y-108233333D01*
X180376190Y-108614285D01*
X179947619Y-107661904D02*
X179900000Y-107614285D01*
X179852380Y-107519047D01*
X179852380Y-107280952D01*
X179900000Y-107185714D01*
X179947619Y-107138095D01*
X180042857Y-107090476D01*
X180138095Y-107090476D01*
X180280952Y-107138095D01*
X180852380Y-107709523D01*
X180852380Y-107090476D01*
X179852380Y-106233333D02*
X179852380Y-106423809D01*
X179900000Y-106519047D01*
X179947619Y-106566666D01*
X180090476Y-106661904D01*
X180280952Y-106709523D01*
X180661904Y-106709523D01*
X180757142Y-106661904D01*
X180804761Y-106614285D01*
X180852380Y-106519047D01*
X180852380Y-106328571D01*
X180804761Y-106233333D01*
X180757142Y-106185714D01*
X180661904Y-106138095D01*
X180423809Y-106138095D01*
X180328571Y-106185714D01*
X180280952Y-106233333D01*
X180233333Y-106328571D01*
X180233333Y-106519047D01*
X180280952Y-106614285D01*
X180328571Y-106661904D01*
X180423809Y-106709523D01*
%TO.C,R22*%
X167052380Y-108042857D02*
X166576190Y-108376190D01*
X167052380Y-108614285D02*
X166052380Y-108614285D01*
X166052380Y-108233333D01*
X166100000Y-108138095D01*
X166147619Y-108090476D01*
X166242857Y-108042857D01*
X166385714Y-108042857D01*
X166480952Y-108090476D01*
X166528571Y-108138095D01*
X166576190Y-108233333D01*
X166576190Y-108614285D01*
X166147619Y-107661904D02*
X166100000Y-107614285D01*
X166052380Y-107519047D01*
X166052380Y-107280952D01*
X166100000Y-107185714D01*
X166147619Y-107138095D01*
X166242857Y-107090476D01*
X166338095Y-107090476D01*
X166480952Y-107138095D01*
X167052380Y-107709523D01*
X167052380Y-107090476D01*
X166147619Y-106709523D02*
X166100000Y-106661904D01*
X166052380Y-106566666D01*
X166052380Y-106328571D01*
X166100000Y-106233333D01*
X166147619Y-106185714D01*
X166242857Y-106138095D01*
X166338095Y-106138095D01*
X166480952Y-106185714D01*
X167052380Y-106757142D01*
X167052380Y-106138095D01*
%TO.C,J9*%
X225866666Y-88052380D02*
X225866666Y-88766666D01*
X225819047Y-88909523D01*
X225723809Y-89004761D01*
X225580952Y-89052380D01*
X225485714Y-89052380D01*
X226390476Y-89052380D02*
X226580952Y-89052380D01*
X226676190Y-89004761D01*
X226723809Y-88957142D01*
X226819047Y-88814285D01*
X226866666Y-88623809D01*
X226866666Y-88242857D01*
X226819047Y-88147619D01*
X226771428Y-88100000D01*
X226676190Y-88052380D01*
X226485714Y-88052380D01*
X226390476Y-88100000D01*
X226342857Y-88147619D01*
X226295238Y-88242857D01*
X226295238Y-88480952D01*
X226342857Y-88576190D01*
X226390476Y-88623809D01*
X226485714Y-88671428D01*
X226676190Y-88671428D01*
X226771428Y-88623809D01*
X226819047Y-88576190D01*
X226866666Y-88480952D01*
%TO.C,J8*%
X206666666Y-88052380D02*
X206666666Y-88766666D01*
X206619047Y-88909523D01*
X206523809Y-89004761D01*
X206380952Y-89052380D01*
X206285714Y-89052380D01*
X207285714Y-88480952D02*
X207190476Y-88433333D01*
X207142857Y-88385714D01*
X207095238Y-88290476D01*
X207095238Y-88242857D01*
X207142857Y-88147619D01*
X207190476Y-88100000D01*
X207285714Y-88052380D01*
X207476190Y-88052380D01*
X207571428Y-88100000D01*
X207619047Y-88147619D01*
X207666666Y-88242857D01*
X207666666Y-88290476D01*
X207619047Y-88385714D01*
X207571428Y-88433333D01*
X207476190Y-88480952D01*
X207285714Y-88480952D01*
X207190476Y-88528571D01*
X207142857Y-88576190D01*
X207095238Y-88671428D01*
X207095238Y-88861904D01*
X207142857Y-88957142D01*
X207190476Y-89004761D01*
X207285714Y-89052380D01*
X207476190Y-89052380D01*
X207571428Y-89004761D01*
X207619047Y-88957142D01*
X207666666Y-88861904D01*
X207666666Y-88671428D01*
X207619047Y-88576190D01*
X207571428Y-88528571D01*
X207476190Y-88480952D01*
%TO.C,J7*%
X187266666Y-88052380D02*
X187266666Y-88766666D01*
X187219047Y-88909523D01*
X187123809Y-89004761D01*
X186980952Y-89052380D01*
X186885714Y-89052380D01*
X187647619Y-88052380D02*
X188314285Y-88052380D01*
X187885714Y-89052380D01*
%TO.C,J6*%
X167866666Y-88052380D02*
X167866666Y-88766666D01*
X167819047Y-88909523D01*
X167723809Y-89004761D01*
X167580952Y-89052380D01*
X167485714Y-89052380D01*
X168771428Y-88052380D02*
X168580952Y-88052380D01*
X168485714Y-88100000D01*
X168438095Y-88147619D01*
X168342857Y-88290476D01*
X168295238Y-88480952D01*
X168295238Y-88861904D01*
X168342857Y-88957142D01*
X168390476Y-89004761D01*
X168485714Y-89052380D01*
X168676190Y-89052380D01*
X168771428Y-89004761D01*
X168819047Y-88957142D01*
X168866666Y-88861904D01*
X168866666Y-88623809D01*
X168819047Y-88528571D01*
X168771428Y-88480952D01*
X168676190Y-88433333D01*
X168485714Y-88433333D01*
X168390476Y-88480952D01*
X168342857Y-88528571D01*
X168295238Y-88623809D01*
%TO.C,J3*%
X73652380Y-65133333D02*
X74366666Y-65133333D01*
X74509523Y-65180952D01*
X74604761Y-65276190D01*
X74652380Y-65419047D01*
X74652380Y-65514285D01*
X73652380Y-64752380D02*
X73652380Y-64133333D01*
X74033333Y-64466666D01*
X74033333Y-64323809D01*
X74080952Y-64228571D01*
X74128571Y-64180952D01*
X74223809Y-64133333D01*
X74461904Y-64133333D01*
X74557142Y-64180952D01*
X74604761Y-64228571D01*
X74652380Y-64323809D01*
X74652380Y-64609523D01*
X74604761Y-64704761D01*
X74557142Y-64752380D01*
%TO.C,J2*%
X73652380Y-45133333D02*
X74366666Y-45133333D01*
X74509523Y-45180952D01*
X74604761Y-45276190D01*
X74652380Y-45419047D01*
X74652380Y-45514285D01*
X73747619Y-44704761D02*
X73700000Y-44657142D01*
X73652380Y-44561904D01*
X73652380Y-44323809D01*
X73700000Y-44228571D01*
X73747619Y-44180952D01*
X73842857Y-44133333D01*
X73938095Y-44133333D01*
X74080952Y-44180952D01*
X74652380Y-44752380D01*
X74652380Y-44133333D01*
%TO.C,J5*%
X148266666Y-88052380D02*
X148266666Y-88766666D01*
X148219047Y-88909523D01*
X148123809Y-89004761D01*
X147980952Y-89052380D01*
X147885714Y-89052380D01*
X149219047Y-88052380D02*
X148742857Y-88052380D01*
X148695238Y-88528571D01*
X148742857Y-88480952D01*
X148838095Y-88433333D01*
X149076190Y-88433333D01*
X149171428Y-88480952D01*
X149219047Y-88528571D01*
X149266666Y-88623809D01*
X149266666Y-88861904D01*
X149219047Y-88957142D01*
X149171428Y-89004761D01*
X149076190Y-89052380D01*
X148838095Y-89052380D01*
X148742857Y-89004761D01*
X148695238Y-88957142D01*
%TO.C,R33*%
X94052380Y-76842857D02*
X93576190Y-77176190D01*
X94052380Y-77414285D02*
X93052380Y-77414285D01*
X93052380Y-77033333D01*
X93100000Y-76938095D01*
X93147619Y-76890476D01*
X93242857Y-76842857D01*
X93385714Y-76842857D01*
X93480952Y-76890476D01*
X93528571Y-76938095D01*
X93576190Y-77033333D01*
X93576190Y-77414285D01*
X93052380Y-76509523D02*
X93052380Y-75890476D01*
X93433333Y-76223809D01*
X93433333Y-76080952D01*
X93480952Y-75985714D01*
X93528571Y-75938095D01*
X93623809Y-75890476D01*
X93861904Y-75890476D01*
X93957142Y-75938095D01*
X94004761Y-75985714D01*
X94052380Y-76080952D01*
X94052380Y-76366666D01*
X94004761Y-76461904D01*
X93957142Y-76509523D01*
X93052380Y-75557142D02*
X93052380Y-74938095D01*
X93433333Y-75271428D01*
X93433333Y-75128571D01*
X93480952Y-75033333D01*
X93528571Y-74985714D01*
X93623809Y-74938095D01*
X93861904Y-74938095D01*
X93957142Y-74985714D01*
X94004761Y-75033333D01*
X94052380Y-75128571D01*
X94052380Y-75414285D01*
X94004761Y-75509523D01*
X93957142Y-75557142D01*
%TO.C,R14*%
X93952380Y-56892857D02*
X93476190Y-57226190D01*
X93952380Y-57464285D02*
X92952380Y-57464285D01*
X92952380Y-57083333D01*
X93000000Y-56988095D01*
X93047619Y-56940476D01*
X93142857Y-56892857D01*
X93285714Y-56892857D01*
X93380952Y-56940476D01*
X93428571Y-56988095D01*
X93476190Y-57083333D01*
X93476190Y-57464285D01*
X93952380Y-55940476D02*
X93952380Y-56511904D01*
X93952380Y-56226190D02*
X92952380Y-56226190D01*
X93095238Y-56321428D01*
X93190476Y-56416666D01*
X93238095Y-56511904D01*
X93285714Y-55083333D02*
X93952380Y-55083333D01*
X92904761Y-55321428D02*
X93619047Y-55559523D01*
X93619047Y-54940476D01*
%TO.C,R29*%
X153252380Y-108042857D02*
X152776190Y-108376190D01*
X153252380Y-108614285D02*
X152252380Y-108614285D01*
X152252380Y-108233333D01*
X152300000Y-108138095D01*
X152347619Y-108090476D01*
X152442857Y-108042857D01*
X152585714Y-108042857D01*
X152680952Y-108090476D01*
X152728571Y-108138095D01*
X152776190Y-108233333D01*
X152776190Y-108614285D01*
X152347619Y-107661904D02*
X152300000Y-107614285D01*
X152252380Y-107519047D01*
X152252380Y-107280952D01*
X152300000Y-107185714D01*
X152347619Y-107138095D01*
X152442857Y-107090476D01*
X152538095Y-107090476D01*
X152680952Y-107138095D01*
X153252380Y-107709523D01*
X153252380Y-107090476D01*
X153252380Y-106614285D02*
X153252380Y-106423809D01*
X153204761Y-106328571D01*
X153157142Y-106280952D01*
X153014285Y-106185714D01*
X152823809Y-106138095D01*
X152442857Y-106138095D01*
X152347619Y-106185714D01*
X152300000Y-106233333D01*
X152252380Y-106328571D01*
X152252380Y-106519047D01*
X152300000Y-106614285D01*
X152347619Y-106661904D01*
X152442857Y-106709523D01*
X152680952Y-106709523D01*
X152776190Y-106661904D01*
X152823809Y-106614285D01*
X152871428Y-106519047D01*
X152871428Y-106328571D01*
X152823809Y-106233333D01*
X152776190Y-106185714D01*
X152680952Y-106138095D01*
%TO.C,R25*%
X94252380Y-66842857D02*
X93776190Y-67176190D01*
X94252380Y-67414285D02*
X93252380Y-67414285D01*
X93252380Y-67033333D01*
X93300000Y-66938095D01*
X93347619Y-66890476D01*
X93442857Y-66842857D01*
X93585714Y-66842857D01*
X93680952Y-66890476D01*
X93728571Y-66938095D01*
X93776190Y-67033333D01*
X93776190Y-67414285D01*
X93347619Y-66461904D02*
X93300000Y-66414285D01*
X93252380Y-66319047D01*
X93252380Y-66080952D01*
X93300000Y-65985714D01*
X93347619Y-65938095D01*
X93442857Y-65890476D01*
X93538095Y-65890476D01*
X93680952Y-65938095D01*
X94252380Y-66509523D01*
X94252380Y-65890476D01*
X93252380Y-64985714D02*
X93252380Y-65461904D01*
X93728571Y-65509523D01*
X93680952Y-65461904D01*
X93633333Y-65366666D01*
X93633333Y-65128571D01*
X93680952Y-65033333D01*
X93728571Y-64985714D01*
X93823809Y-64938095D01*
X94061904Y-64938095D01*
X94157142Y-64985714D01*
X94204761Y-65033333D01*
X94252380Y-65128571D01*
X94252380Y-65366666D01*
X94204761Y-65461904D01*
X94157142Y-65509523D01*
%TO.C,R6*%
X94252380Y-46466666D02*
X93776190Y-46800000D01*
X94252380Y-47038095D02*
X93252380Y-47038095D01*
X93252380Y-46657142D01*
X93300000Y-46561904D01*
X93347619Y-46514285D01*
X93442857Y-46466666D01*
X93585714Y-46466666D01*
X93680952Y-46514285D01*
X93728571Y-46561904D01*
X93776190Y-46657142D01*
X93776190Y-47038095D01*
X93252380Y-45609523D02*
X93252380Y-45800000D01*
X93300000Y-45895238D01*
X93347619Y-45942857D01*
X93490476Y-46038095D01*
X93680952Y-46085714D01*
X94061904Y-46085714D01*
X94157142Y-46038095D01*
X94204761Y-45990476D01*
X94252380Y-45895238D01*
X94252380Y-45704761D01*
X94204761Y-45609523D01*
X94157142Y-45561904D01*
X94061904Y-45514285D01*
X93823809Y-45514285D01*
X93728571Y-45561904D01*
X93680952Y-45609523D01*
X93633333Y-45704761D01*
X93633333Y-45895238D01*
X93680952Y-45990476D01*
X93728571Y-46038095D01*
X93823809Y-46085714D01*
%TO.C,R23*%
X183452380Y-78442857D02*
X182976190Y-78776190D01*
X183452380Y-79014285D02*
X182452380Y-79014285D01*
X182452380Y-78633333D01*
X182500000Y-78538095D01*
X182547619Y-78490476D01*
X182642857Y-78442857D01*
X182785714Y-78442857D01*
X182880952Y-78490476D01*
X182928571Y-78538095D01*
X182976190Y-78633333D01*
X182976190Y-79014285D01*
X182547619Y-78061904D02*
X182500000Y-78014285D01*
X182452380Y-77919047D01*
X182452380Y-77680952D01*
X182500000Y-77585714D01*
X182547619Y-77538095D01*
X182642857Y-77490476D01*
X182738095Y-77490476D01*
X182880952Y-77538095D01*
X183452380Y-78109523D01*
X183452380Y-77490476D01*
X182452380Y-77157142D02*
X182452380Y-76538095D01*
X182833333Y-76871428D01*
X182833333Y-76728571D01*
X182880952Y-76633333D01*
X182928571Y-76585714D01*
X183023809Y-76538095D01*
X183261904Y-76538095D01*
X183357142Y-76585714D01*
X183404761Y-76633333D01*
X183452380Y-76728571D01*
X183452380Y-77014285D01*
X183404761Y-77109523D01*
X183357142Y-77157142D01*
%TO.C,R21*%
X139452380Y-108042857D02*
X138976190Y-108376190D01*
X139452380Y-108614285D02*
X138452380Y-108614285D01*
X138452380Y-108233333D01*
X138500000Y-108138095D01*
X138547619Y-108090476D01*
X138642857Y-108042857D01*
X138785714Y-108042857D01*
X138880952Y-108090476D01*
X138928571Y-108138095D01*
X138976190Y-108233333D01*
X138976190Y-108614285D01*
X138547619Y-107661904D02*
X138500000Y-107614285D01*
X138452380Y-107519047D01*
X138452380Y-107280952D01*
X138500000Y-107185714D01*
X138547619Y-107138095D01*
X138642857Y-107090476D01*
X138738095Y-107090476D01*
X138880952Y-107138095D01*
X139452380Y-107709523D01*
X139452380Y-107090476D01*
X139452380Y-106138095D02*
X139452380Y-106709523D01*
X139452380Y-106423809D02*
X138452380Y-106423809D01*
X138595238Y-106519047D01*
X138690476Y-106614285D01*
X138738095Y-106709523D01*
%TO.C,R1*%
X85202380Y-117416666D02*
X84726190Y-117750000D01*
X85202380Y-117988095D02*
X84202380Y-117988095D01*
X84202380Y-117607142D01*
X84250000Y-117511904D01*
X84297619Y-117464285D01*
X84392857Y-117416666D01*
X84535714Y-117416666D01*
X84630952Y-117464285D01*
X84678571Y-117511904D01*
X84726190Y-117607142D01*
X84726190Y-117988095D01*
X85202380Y-116464285D02*
X85202380Y-117035714D01*
X85202380Y-116750000D02*
X84202380Y-116750000D01*
X84345238Y-116845238D01*
X84440476Y-116940476D01*
X84488095Y-117035714D01*
X84535714Y-121261904D02*
X85202380Y-121261904D01*
X84154761Y-121500000D02*
X84869047Y-121738095D01*
X84869047Y-121119047D01*
X84202380Y-120833333D02*
X84202380Y-120166666D01*
X85202380Y-120595238D01*
X84202380Y-119595238D02*
X84202380Y-119500000D01*
X84250000Y-119404761D01*
X84297619Y-119357142D01*
X84392857Y-119309523D01*
X84583333Y-119261904D01*
X84821428Y-119261904D01*
X85011904Y-119309523D01*
X85107142Y-119357142D01*
X85154761Y-119404761D01*
X85202380Y-119500000D01*
X85202380Y-119595238D01*
X85154761Y-119690476D01*
X85107142Y-119738095D01*
X85011904Y-119785714D01*
X84821428Y-119833333D01*
X84583333Y-119833333D01*
X84392857Y-119785714D01*
X84297619Y-119738095D01*
X84250000Y-119690476D01*
X84202380Y-119595238D01*
%TO.C,D21*%
X103535714Y-62702380D02*
X103535714Y-61702380D01*
X103773809Y-61702380D01*
X103916666Y-61750000D01*
X104011904Y-61845238D01*
X104059523Y-61940476D01*
X104107142Y-62130952D01*
X104107142Y-62273809D01*
X104059523Y-62464285D01*
X104011904Y-62559523D01*
X103916666Y-62654761D01*
X103773809Y-62702380D01*
X103535714Y-62702380D01*
X104488095Y-61797619D02*
X104535714Y-61750000D01*
X104630952Y-61702380D01*
X104869047Y-61702380D01*
X104964285Y-61750000D01*
X105011904Y-61797619D01*
X105059523Y-61892857D01*
X105059523Y-61988095D01*
X105011904Y-62130952D01*
X104440476Y-62702380D01*
X105059523Y-62702380D01*
X106011904Y-62702380D02*
X105440476Y-62702380D01*
X105726190Y-62702380D02*
X105726190Y-61702380D01*
X105630952Y-61845238D01*
X105535714Y-61940476D01*
X105440476Y-61988095D01*
X107702380Y-71862857D02*
X107702380Y-72434285D01*
X107702380Y-72148571D02*
X106702380Y-72148571D01*
X106845238Y-72243809D01*
X106940476Y-72339047D01*
X106988095Y-72434285D01*
X107702380Y-71434285D02*
X106702380Y-71434285D01*
X107702380Y-70862857D01*
X106702380Y-70862857D01*
X107035714Y-69958095D02*
X107702380Y-69958095D01*
X106654761Y-70196190D02*
X107369047Y-70434285D01*
X107369047Y-69815238D01*
X106702380Y-69243809D02*
X106702380Y-69148571D01*
X106750000Y-69053333D01*
X106797619Y-69005714D01*
X106892857Y-68958095D01*
X107083333Y-68910476D01*
X107321428Y-68910476D01*
X107511904Y-68958095D01*
X107607142Y-69005714D01*
X107654761Y-69053333D01*
X107702380Y-69148571D01*
X107702380Y-69243809D01*
X107654761Y-69339047D01*
X107607142Y-69386666D01*
X107511904Y-69434285D01*
X107321428Y-69481904D01*
X107083333Y-69481904D01*
X106892857Y-69434285D01*
X106797619Y-69386666D01*
X106750000Y-69339047D01*
X106702380Y-69243809D01*
X106702380Y-68291428D02*
X106702380Y-68196190D01*
X106750000Y-68100952D01*
X106797619Y-68053333D01*
X106892857Y-68005714D01*
X107083333Y-67958095D01*
X107321428Y-67958095D01*
X107511904Y-68005714D01*
X107607142Y-68053333D01*
X107654761Y-68100952D01*
X107702380Y-68196190D01*
X107702380Y-68291428D01*
X107654761Y-68386666D01*
X107607142Y-68434285D01*
X107511904Y-68481904D01*
X107321428Y-68529523D01*
X107083333Y-68529523D01*
X106892857Y-68481904D01*
X106797619Y-68434285D01*
X106750000Y-68386666D01*
X106702380Y-68291428D01*
X106702380Y-67624761D02*
X106702380Y-66958095D01*
X107702380Y-67386666D01*
%TO.C,D10*%
X103285714Y-45202380D02*
X103285714Y-44202380D01*
X103523809Y-44202380D01*
X103666666Y-44250000D01*
X103761904Y-44345238D01*
X103809523Y-44440476D01*
X103857142Y-44630952D01*
X103857142Y-44773809D01*
X103809523Y-44964285D01*
X103761904Y-45059523D01*
X103666666Y-45154761D01*
X103523809Y-45202380D01*
X103285714Y-45202380D01*
X104809523Y-45202380D02*
X104238095Y-45202380D01*
X104523809Y-45202380D02*
X104523809Y-44202380D01*
X104428571Y-44345238D01*
X104333333Y-44440476D01*
X104238095Y-44488095D01*
X105428571Y-44202380D02*
X105523809Y-44202380D01*
X105619047Y-44250000D01*
X105666666Y-44297619D01*
X105714285Y-44392857D01*
X105761904Y-44583333D01*
X105761904Y-44821428D01*
X105714285Y-45011904D01*
X105666666Y-45107142D01*
X105619047Y-45154761D01*
X105523809Y-45202380D01*
X105428571Y-45202380D01*
X105333333Y-45154761D01*
X105285714Y-45107142D01*
X105238095Y-45011904D01*
X105190476Y-44821428D01*
X105190476Y-44583333D01*
X105238095Y-44392857D01*
X105285714Y-44297619D01*
X105333333Y-44250000D01*
X105428571Y-44202380D01*
%TO.C,D20*%
X99785714Y-62702380D02*
X99785714Y-61702380D01*
X100023809Y-61702380D01*
X100166666Y-61750000D01*
X100261904Y-61845238D01*
X100309523Y-61940476D01*
X100357142Y-62130952D01*
X100357142Y-62273809D01*
X100309523Y-62464285D01*
X100261904Y-62559523D01*
X100166666Y-62654761D01*
X100023809Y-62702380D01*
X99785714Y-62702380D01*
X100738095Y-61797619D02*
X100785714Y-61750000D01*
X100880952Y-61702380D01*
X101119047Y-61702380D01*
X101214285Y-61750000D01*
X101261904Y-61797619D01*
X101309523Y-61892857D01*
X101309523Y-61988095D01*
X101261904Y-62130952D01*
X100690476Y-62702380D01*
X101309523Y-62702380D01*
X101928571Y-61702380D02*
X102023809Y-61702380D01*
X102119047Y-61750000D01*
X102166666Y-61797619D01*
X102214285Y-61892857D01*
X102261904Y-62083333D01*
X102261904Y-62321428D01*
X102214285Y-62511904D01*
X102166666Y-62607142D01*
X102119047Y-62654761D01*
X102023809Y-62702380D01*
X101928571Y-62702380D01*
X101833333Y-62654761D01*
X101785714Y-62607142D01*
X101738095Y-62511904D01*
X101690476Y-62321428D01*
X101690476Y-62083333D01*
X101738095Y-61892857D01*
X101785714Y-61797619D01*
X101833333Y-61750000D01*
X101928571Y-61702380D01*
%TO.C,D4*%
X100261904Y-45202380D02*
X100261904Y-44202380D01*
X100500000Y-44202380D01*
X100642857Y-44250000D01*
X100738095Y-44345238D01*
X100785714Y-44440476D01*
X100833333Y-44630952D01*
X100833333Y-44773809D01*
X100785714Y-44964285D01*
X100738095Y-45059523D01*
X100642857Y-45154761D01*
X100500000Y-45202380D01*
X100261904Y-45202380D01*
X101690476Y-44535714D02*
X101690476Y-45202380D01*
X101452380Y-44154761D02*
X101214285Y-44869047D01*
X101833333Y-44869047D01*
%TO.C,C1*%
X196157142Y-46966666D02*
X196204761Y-47014285D01*
X196252380Y-47157142D01*
X196252380Y-47252380D01*
X196204761Y-47395238D01*
X196109523Y-47490476D01*
X196014285Y-47538095D01*
X195823809Y-47585714D01*
X195680952Y-47585714D01*
X195490476Y-47538095D01*
X195395238Y-47490476D01*
X195300000Y-47395238D01*
X195252380Y-47252380D01*
X195252380Y-47157142D01*
X195300000Y-47014285D01*
X195347619Y-46966666D01*
X196252380Y-46014285D02*
X196252380Y-46585714D01*
X196252380Y-46300000D02*
X195252380Y-46300000D01*
X195395238Y-46395238D01*
X195490476Y-46490476D01*
X195538095Y-46585714D01*
%TD*%
M02*
