M48
; DRILL file {KiCad (5.1.6)-1} date 11/13/21 13:18:45
; FORMAT={-:-/ absolute / metric / decimal}
; #@! TF.CreationDate,2021-11-13T13:18:45+01:00
; #@! TF.GenerationSoftware,Kicad,Pcbnew,(5.1.6)-1
; #@! TF.FileFunction,Plated,1,2,PTH
FMAT,2
METRIC
T1C0.600
T2C0.760
T3C0.800
T4C0.900
T5C1.000
T6C1.100
T7C1.200
%
G90
G05
T1
X74.75Y-43.25
X90.4Y-82.8
X94.75Y-58.0
X97.4Y-111.0
X97.4Y-133.6
X99.6Y-111.6
X99.6Y-134.6
X101.0Y-136.4
X101.4Y-109.8
X110.25Y-92.5
X111.5Y-75.25
X114.25Y-75.5
X114.25Y-91.25
X115.5Y-87.25
X118.25Y-87.25
X123.0Y-47.5
X135.5Y-49.25
X138.0Y-73.6
X139.6Y-77.0
X140.6Y-73.6
X142.2Y-75.6
X144.75Y-48.75
X145.75Y-56.75
T2
X82.06Y-88.3
X82.06Y-90.5
X84.6Y-87.4
X84.6Y-89.6
X82.06Y-103.5
X82.06Y-105.7
X84.6Y-102.6
X84.6Y-104.8
T3
X81.6Y-114.2
X81.6Y-124.36
X84.8Y-114.24
X84.8Y-124.4
X213.0Y-132.25
X218.0Y-132.25
X135.25Y-54.0
X135.25Y-59.0
X202.75Y-44.25
X202.75Y-49.25
X120.38Y-46.38
X120.38Y-48.92
X120.38Y-51.46
X120.38Y-54.0
X120.38Y-56.54
X120.38Y-59.08
X120.38Y-61.62
X120.38Y-64.16
X120.38Y-66.7
X120.38Y-69.24
X120.38Y-71.78
X120.38Y-74.32
X120.38Y-76.86
X120.38Y-79.4
X128.0Y-46.38
X128.0Y-48.92
X128.0Y-51.46
X128.0Y-54.0
X128.0Y-56.54
X128.0Y-59.08
X128.0Y-61.62
X128.0Y-64.16
X128.0Y-66.7
X128.0Y-69.24
X128.0Y-71.78
X128.0Y-74.32
X128.0Y-76.86
X128.0Y-79.4
X195.6Y-44.2
X195.6Y-49.2
X131.25Y-54.0
X131.25Y-59.0
X175.8Y-45.4
X175.8Y-50.4
X167.2Y-46.0
X167.2Y-51.0
X79.5Y-128.75
X84.5Y-128.75
T4
X75.0Y-122.6
X77.5Y-122.6
X76.2Y-114.2
X76.2Y-116.7
T5
X213.8Y-91.6
X216.3Y-96.6
X218.8Y-91.6
X221.3Y-96.6
X223.8Y-91.6
X226.3Y-96.6
X194.6Y-91.6
X197.1Y-96.6
X199.6Y-91.6
X202.1Y-96.6
X204.6Y-91.6
X207.1Y-96.6
X162.6Y-46.0
X162.6Y-48.54
X162.6Y-51.08
X178.0Y-82.8
X185.5Y-82.8
X87.4Y-53.52
X87.4Y-58.6
X89.94Y-53.52
X89.94Y-58.6
X97.56Y-53.52
X97.56Y-58.6
X164.1Y-102.4
X171.6Y-102.4
X112.2Y-56.2
X114.7Y-56.2
X117.2Y-56.2
X136.5Y-102.4
X144.0Y-102.4
X87.4Y-43.72
X87.4Y-48.8
X89.94Y-43.72
X89.94Y-48.8
X97.56Y-43.72
X97.56Y-48.8
X87.4Y-73.72
X87.4Y-78.8
X89.94Y-73.72
X89.94Y-78.8
X97.56Y-73.72
X97.56Y-78.8
X191.7Y-102.4
X199.2Y-102.4
X112.2Y-51.4
X114.7Y-51.4
X117.2Y-51.4
X177.9Y-102.4
X185.4Y-102.4
X108.7Y-102.4
X116.2Y-102.4
X136.2Y-91.6
X138.7Y-96.6
X141.2Y-91.6
X143.7Y-96.6
X146.2Y-91.6
X148.7Y-96.6
X191.8Y-82.8
X199.3Y-82.8
X205.5Y-102.4
X213.0Y-102.4
X87.4Y-63.52
X87.4Y-68.6
X89.94Y-63.52
X89.94Y-68.6
X97.56Y-63.52
X97.56Y-68.6
X150.3Y-102.4
X157.8Y-102.4
X77.2Y-47.2
X77.2Y-52.2
X77.2Y-57.2
X82.2Y-44.7
X82.2Y-49.7
X82.2Y-54.7
X150.4Y-82.8
X157.9Y-82.8
X205.6Y-82.8
X213.1Y-82.8
X122.7Y-102.4
X130.2Y-102.4
X77.2Y-67.2
X77.2Y-72.2
X77.2Y-77.2
X82.2Y-64.7
X82.2Y-69.7
X82.2Y-74.7
X219.3Y-102.4
X226.8Y-102.4
X164.2Y-82.8
X171.7Y-82.8
X112.2Y-46.6
X114.7Y-46.6
X117.2Y-46.6
X175.2Y-91.6
X177.7Y-96.6
X180.2Y-91.6
X182.7Y-96.6
X185.2Y-91.6
X187.7Y-96.6
X155.8Y-91.6
X158.3Y-96.6
X160.8Y-91.6
X163.3Y-96.6
X165.8Y-91.6
X168.3Y-96.6
X219.4Y-82.8
X226.9Y-82.8
T6
X219.4Y-57.46
X219.4Y-62.5
X219.4Y-67.54
X226.9Y-57.46
X226.9Y-62.5
X226.9Y-67.54
X184.4Y-46.8
X189.48Y-46.8
X104.6Y-47.4
X104.6Y-57.56
X178.0Y-57.46
X178.0Y-62.5
X178.0Y-67.54
X185.5Y-57.46
X185.5Y-62.5
X185.5Y-67.54
X101.0Y-47.4
X101.0Y-57.56
X164.1Y-117.66
X164.1Y-122.7
X164.1Y-127.74
X171.6Y-117.66
X171.6Y-122.7
X171.6Y-127.74
X136.5Y-117.66
X136.5Y-122.7
X136.5Y-127.74
X144.0Y-117.66
X144.0Y-122.7
X144.0Y-127.74
X101.0Y-64.64
X101.0Y-74.8
X191.7Y-117.66
X191.7Y-122.7
X191.7Y-127.74
X199.2Y-117.66
X199.2Y-122.7
X199.2Y-127.74
X177.9Y-117.66
X177.9Y-122.7
X177.9Y-127.74
X185.4Y-117.66
X185.4Y-122.7
X185.4Y-127.74
X108.7Y-117.66
X108.7Y-122.7
X108.7Y-127.74
X116.2Y-117.66
X116.2Y-122.7
X116.2Y-127.74
X191.8Y-57.46
X191.8Y-62.5
X191.8Y-67.54
X199.3Y-57.46
X199.3Y-62.5
X199.3Y-67.54
X205.5Y-117.66
X205.5Y-122.7
X205.5Y-127.74
X213.0Y-117.66
X213.0Y-122.7
X213.0Y-127.74
X150.3Y-117.66
X150.3Y-122.7
X150.3Y-127.74
X157.8Y-117.66
X157.8Y-122.7
X157.8Y-127.74
X150.4Y-57.46
X150.4Y-62.5
X150.4Y-67.54
X157.9Y-57.46
X157.9Y-62.5
X157.9Y-67.54
X205.6Y-57.46
X205.6Y-62.5
X205.6Y-67.54
X213.1Y-57.46
X213.1Y-62.5
X213.1Y-67.54
X122.7Y-117.66
X122.7Y-122.7
X122.7Y-127.74
X130.2Y-117.66
X130.2Y-122.7
X130.2Y-127.74
X104.6Y-64.64
X104.6Y-74.8
X219.3Y-117.66
X219.3Y-122.7
X219.3Y-127.74
X226.8Y-117.66
X226.8Y-122.7
X226.8Y-127.74
X164.2Y-57.46
X164.2Y-62.5
X164.2Y-67.54
X171.7Y-57.46
X171.7Y-62.5
X171.7Y-67.54
T7
X94.75Y-117.25
X94.75Y-135.25
X191.75Y-133.0
X209.75Y-133.0
T0
M30
