%TF.GenerationSoftware,KiCad,Pcbnew,(5.1.6)-1*%
%TF.CreationDate,2021-11-13T13:18:41+01:00*%
%TF.ProjectId,MCP23017 Sensor Board,4d435032-3330-4313-9720-53656e736f72,rev?*%
%TF.SameCoordinates,Original*%
%TF.FileFunction,Soldermask,Top*%
%TF.FilePolarity,Negative*%
%FSLAX46Y46*%
G04 Gerber Fmt 4.6, Leading zero omitted, Abs format (unit mm)*
G04 Created by KiCad (PCBNEW (5.1.6)-1) date 2021-11-13 13:18:41*
%MOMM*%
%LPD*%
G01*
G04 APERTURE LIST*
%ADD10C,3.300000*%
%ADD11C,1.700000*%
%ADD12R,1.700000X1.700000*%
%ADD13O,2.500000X2.500000*%
%ADD14R,2.500000X2.500000*%
%ADD15R,1.620000X1.620000*%
%ADD16C,2.100000*%
%ADD17C,1.620000*%
%ADD18C,2.600000*%
%ADD19O,1.700000X1.700000*%
%ADD20C,2.000000*%
%ADD21R,2.000000X2.000000*%
%ADD22O,1.700000X3.100000*%
%ADD23R,1.700000X3.100000*%
%ADD24C,1.900000*%
%ADD25R,1.900000X1.900000*%
%ADD26O,2.500000X4.900000*%
%ADD27R,2.500000X4.900000*%
%ADD28O,2.500000X3.700000*%
%ADD29C,0.100000*%
%ADD30O,3.700000X2.500000*%
%ADD31R,2.100000X2.100000*%
%ADD32O,2.300000X2.300000*%
%ADD33R,2.300000X2.300000*%
G04 APERTURE END LIST*
%TO.C,R16*%
G36*
G01*
X113450000Y-66468750D02*
X113450000Y-67031250D01*
G75*
G02*
X113206250Y-67275000I-243750J0D01*
G01*
X112718750Y-67275000D01*
G75*
G02*
X112475000Y-67031250I0J243750D01*
G01*
X112475000Y-66468750D01*
G75*
G02*
X112718750Y-66225000I243750J0D01*
G01*
X113206250Y-66225000D01*
G75*
G02*
X113450000Y-66468750I0J-243750D01*
G01*
G37*
G36*
G01*
X115025000Y-66468750D02*
X115025000Y-67031250D01*
G75*
G02*
X114781250Y-67275000I-243750J0D01*
G01*
X114293750Y-67275000D01*
G75*
G02*
X114050000Y-67031250I0J243750D01*
G01*
X114050000Y-66468750D01*
G75*
G02*
X114293750Y-66225000I243750J0D01*
G01*
X114781250Y-66225000D01*
G75*
G02*
X115025000Y-66468750I0J-243750D01*
G01*
G37*
%TD*%
%TO.C,R17*%
G36*
G01*
X107662500Y-74468750D02*
X107662500Y-75031250D01*
G75*
G02*
X107418750Y-75275000I-243750J0D01*
G01*
X106931250Y-75275000D01*
G75*
G02*
X106687500Y-75031250I0J243750D01*
G01*
X106687500Y-74468750D01*
G75*
G02*
X106931250Y-74225000I243750J0D01*
G01*
X107418750Y-74225000D01*
G75*
G02*
X107662500Y-74468750I0J-243750D01*
G01*
G37*
G36*
G01*
X109237500Y-74468750D02*
X109237500Y-75031250D01*
G75*
G02*
X108993750Y-75275000I-243750J0D01*
G01*
X108506250Y-75275000D01*
G75*
G02*
X108262500Y-75031250I0J243750D01*
G01*
X108262500Y-74468750D01*
G75*
G02*
X108506250Y-74225000I243750J0D01*
G01*
X108993750Y-74225000D01*
G75*
G02*
X109237500Y-74468750I0J-243750D01*
G01*
G37*
%TD*%
%TO.C,R13*%
G36*
G01*
X114450000Y-61468750D02*
X114450000Y-62031250D01*
G75*
G02*
X114206250Y-62275000I-243750J0D01*
G01*
X113718750Y-62275000D01*
G75*
G02*
X113475000Y-62031250I0J243750D01*
G01*
X113475000Y-61468750D01*
G75*
G02*
X113718750Y-61225000I243750J0D01*
G01*
X114206250Y-61225000D01*
G75*
G02*
X114450000Y-61468750I0J-243750D01*
G01*
G37*
G36*
G01*
X116025000Y-61468750D02*
X116025000Y-62031250D01*
G75*
G02*
X115781250Y-62275000I-243750J0D01*
G01*
X115293750Y-62275000D01*
G75*
G02*
X115050000Y-62031250I0J243750D01*
G01*
X115050000Y-61468750D01*
G75*
G02*
X115293750Y-61225000I243750J0D01*
G01*
X115781250Y-61225000D01*
G75*
G02*
X116025000Y-61468750I0J-243750D01*
G01*
G37*
%TD*%
%TO.C,R12*%
G36*
G01*
X132087500Y-64281250D02*
X132087500Y-63718750D01*
G75*
G02*
X132331250Y-63475000I243750J0D01*
G01*
X132818750Y-63475000D01*
G75*
G02*
X133062500Y-63718750I0J-243750D01*
G01*
X133062500Y-64281250D01*
G75*
G02*
X132818750Y-64525000I-243750J0D01*
G01*
X132331250Y-64525000D01*
G75*
G02*
X132087500Y-64281250I0J243750D01*
G01*
G37*
G36*
G01*
X130512500Y-64281250D02*
X130512500Y-63718750D01*
G75*
G02*
X130756250Y-63475000I243750J0D01*
G01*
X131243750Y-63475000D01*
G75*
G02*
X131487500Y-63718750I0J-243750D01*
G01*
X131487500Y-64281250D01*
G75*
G02*
X131243750Y-64525000I-243750J0D01*
G01*
X130756250Y-64525000D01*
G75*
G02*
X130512500Y-64281250I0J243750D01*
G01*
G37*
%TD*%
%TO.C,R18*%
G36*
G01*
X154300000Y-115531250D02*
X154300000Y-114968750D01*
G75*
G02*
X154543750Y-114725000I243750J0D01*
G01*
X155031250Y-114725000D01*
G75*
G02*
X155275000Y-114968750I0J-243750D01*
G01*
X155275000Y-115531250D01*
G75*
G02*
X155031250Y-115775000I-243750J0D01*
G01*
X154543750Y-115775000D01*
G75*
G02*
X154300000Y-115531250I0J243750D01*
G01*
G37*
G36*
G01*
X152725000Y-115531250D02*
X152725000Y-114968750D01*
G75*
G02*
X152968750Y-114725000I243750J0D01*
G01*
X153456250Y-114725000D01*
G75*
G02*
X153700000Y-114968750I0J-243750D01*
G01*
X153700000Y-115531250D01*
G75*
G02*
X153456250Y-115775000I-243750J0D01*
G01*
X152968750Y-115775000D01*
G75*
G02*
X152725000Y-115531250I0J243750D01*
G01*
G37*
%TD*%
%TO.C,R7*%
G36*
G01*
X180012500Y-136031250D02*
X180012500Y-135468750D01*
G75*
G02*
X180256250Y-135225000I243750J0D01*
G01*
X180743750Y-135225000D01*
G75*
G02*
X180987500Y-135468750I0J-243750D01*
G01*
X180987500Y-136031250D01*
G75*
G02*
X180743750Y-136275000I-243750J0D01*
G01*
X180256250Y-136275000D01*
G75*
G02*
X180012500Y-136031250I0J243750D01*
G01*
G37*
G36*
G01*
X178437500Y-136031250D02*
X178437500Y-135468750D01*
G75*
G02*
X178681250Y-135225000I243750J0D01*
G01*
X179168750Y-135225000D01*
G75*
G02*
X179412500Y-135468750I0J-243750D01*
G01*
X179412500Y-136031250D01*
G75*
G02*
X179168750Y-136275000I-243750J0D01*
G01*
X178681250Y-136275000D01*
G75*
G02*
X178437500Y-136031250I0J243750D01*
G01*
G37*
%TD*%
%TO.C,R19*%
G36*
G01*
X165762500Y-114031250D02*
X165762500Y-113468750D01*
G75*
G02*
X166006250Y-113225000I243750J0D01*
G01*
X166493750Y-113225000D01*
G75*
G02*
X166737500Y-113468750I0J-243750D01*
G01*
X166737500Y-114031250D01*
G75*
G02*
X166493750Y-114275000I-243750J0D01*
G01*
X166006250Y-114275000D01*
G75*
G02*
X165762500Y-114031250I0J243750D01*
G01*
G37*
G36*
G01*
X164187500Y-114031250D02*
X164187500Y-113468750D01*
G75*
G02*
X164431250Y-113225000I243750J0D01*
G01*
X164918750Y-113225000D01*
G75*
G02*
X165162500Y-113468750I0J-243750D01*
G01*
X165162500Y-114031250D01*
G75*
G02*
X164918750Y-114275000I-243750J0D01*
G01*
X164431250Y-114275000D01*
G75*
G02*
X164187500Y-114031250I0J243750D01*
G01*
G37*
%TD*%
%TO.C,R11*%
G36*
G01*
X132087500Y-66781250D02*
X132087500Y-66218750D01*
G75*
G02*
X132331250Y-65975000I243750J0D01*
G01*
X132818750Y-65975000D01*
G75*
G02*
X133062500Y-66218750I0J-243750D01*
G01*
X133062500Y-66781250D01*
G75*
G02*
X132818750Y-67025000I-243750J0D01*
G01*
X132331250Y-67025000D01*
G75*
G02*
X132087500Y-66781250I0J243750D01*
G01*
G37*
G36*
G01*
X130512500Y-66781250D02*
X130512500Y-66218750D01*
G75*
G02*
X130756250Y-65975000I243750J0D01*
G01*
X131243750Y-65975000D01*
G75*
G02*
X131487500Y-66218750I0J-243750D01*
G01*
X131487500Y-66781250D01*
G75*
G02*
X131243750Y-67025000I-243750J0D01*
G01*
X130756250Y-67025000D01*
G75*
G02*
X130512500Y-66781250I0J243750D01*
G01*
G37*
%TD*%
%TO.C,R2*%
G36*
G01*
X140050000Y-65281250D02*
X140050000Y-64718750D01*
G75*
G02*
X140293750Y-64475000I243750J0D01*
G01*
X140781250Y-64475000D01*
G75*
G02*
X141025000Y-64718750I0J-243750D01*
G01*
X141025000Y-65281250D01*
G75*
G02*
X140781250Y-65525000I-243750J0D01*
G01*
X140293750Y-65525000D01*
G75*
G02*
X140050000Y-65281250I0J243750D01*
G01*
G37*
G36*
G01*
X138475000Y-65281250D02*
X138475000Y-64718750D01*
G75*
G02*
X138718750Y-64475000I243750J0D01*
G01*
X139206250Y-64475000D01*
G75*
G02*
X139450000Y-64718750I0J-243750D01*
G01*
X139450000Y-65281250D01*
G75*
G02*
X139206250Y-65525000I-243750J0D01*
G01*
X138718750Y-65525000D01*
G75*
G02*
X138475000Y-65281250I0J243750D01*
G01*
G37*
%TD*%
%TO.C,R4*%
G36*
G01*
X183300000Y-132781250D02*
X183300000Y-132218750D01*
G75*
G02*
X183543750Y-131975000I243750J0D01*
G01*
X184031250Y-131975000D01*
G75*
G02*
X184275000Y-132218750I0J-243750D01*
G01*
X184275000Y-132781250D01*
G75*
G02*
X184031250Y-133025000I-243750J0D01*
G01*
X183543750Y-133025000D01*
G75*
G02*
X183300000Y-132781250I0J243750D01*
G01*
G37*
G36*
G01*
X181725000Y-132781250D02*
X181725000Y-132218750D01*
G75*
G02*
X181968750Y-131975000I243750J0D01*
G01*
X182456250Y-131975000D01*
G75*
G02*
X182700000Y-132218750I0J-243750D01*
G01*
X182700000Y-132781250D01*
G75*
G02*
X182456250Y-133025000I-243750J0D01*
G01*
X181968750Y-133025000D01*
G75*
G02*
X181725000Y-132781250I0J243750D01*
G01*
G37*
%TD*%
%TO.C,R5*%
G36*
G01*
X186837500Y-136281250D02*
X186837500Y-135718750D01*
G75*
G02*
X187081250Y-135475000I243750J0D01*
G01*
X187568750Y-135475000D01*
G75*
G02*
X187812500Y-135718750I0J-243750D01*
G01*
X187812500Y-136281250D01*
G75*
G02*
X187568750Y-136525000I-243750J0D01*
G01*
X187081250Y-136525000D01*
G75*
G02*
X186837500Y-136281250I0J243750D01*
G01*
G37*
G36*
G01*
X185262500Y-136281250D02*
X185262500Y-135718750D01*
G75*
G02*
X185506250Y-135475000I243750J0D01*
G01*
X185993750Y-135475000D01*
G75*
G02*
X186237500Y-135718750I0J-243750D01*
G01*
X186237500Y-136281250D01*
G75*
G02*
X185993750Y-136525000I-243750J0D01*
G01*
X185506250Y-136525000D01*
G75*
G02*
X185262500Y-136281250I0J243750D01*
G01*
G37*
%TD*%
%TO.C,R24*%
G36*
G01*
X121837500Y-89531250D02*
X121837500Y-88968750D01*
G75*
G02*
X122081250Y-88725000I243750J0D01*
G01*
X122568750Y-88725000D01*
G75*
G02*
X122812500Y-88968750I0J-243750D01*
G01*
X122812500Y-89531250D01*
G75*
G02*
X122568750Y-89775000I-243750J0D01*
G01*
X122081250Y-89775000D01*
G75*
G02*
X121837500Y-89531250I0J243750D01*
G01*
G37*
G36*
G01*
X120262500Y-89531250D02*
X120262500Y-88968750D01*
G75*
G02*
X120506250Y-88725000I243750J0D01*
G01*
X120993750Y-88725000D01*
G75*
G02*
X121237500Y-88968750I0J-243750D01*
G01*
X121237500Y-89531250D01*
G75*
G02*
X120993750Y-89775000I-243750J0D01*
G01*
X120506250Y-89775000D01*
G75*
G02*
X120262500Y-89531250I0J243750D01*
G01*
G37*
%TD*%
%TO.C,R20*%
G36*
G01*
X133087500Y-47531250D02*
X133087500Y-46968750D01*
G75*
G02*
X133331250Y-46725000I243750J0D01*
G01*
X133818750Y-46725000D01*
G75*
G02*
X134062500Y-46968750I0J-243750D01*
G01*
X134062500Y-47531250D01*
G75*
G02*
X133818750Y-47775000I-243750J0D01*
G01*
X133331250Y-47775000D01*
G75*
G02*
X133087500Y-47531250I0J243750D01*
G01*
G37*
G36*
G01*
X131512500Y-47531250D02*
X131512500Y-46968750D01*
G75*
G02*
X131756250Y-46725000I243750J0D01*
G01*
X132243750Y-46725000D01*
G75*
G02*
X132487500Y-46968750I0J-243750D01*
G01*
X132487500Y-47531250D01*
G75*
G02*
X132243750Y-47775000I-243750J0D01*
G01*
X131756250Y-47775000D01*
G75*
G02*
X131512500Y-47531250I0J243750D01*
G01*
G37*
%TD*%
%TO.C,R15*%
G36*
G01*
X108200000Y-63968750D02*
X108200000Y-64531250D01*
G75*
G02*
X107956250Y-64775000I-243750J0D01*
G01*
X107468750Y-64775000D01*
G75*
G02*
X107225000Y-64531250I0J243750D01*
G01*
X107225000Y-63968750D01*
G75*
G02*
X107468750Y-63725000I243750J0D01*
G01*
X107956250Y-63725000D01*
G75*
G02*
X108200000Y-63968750I0J-243750D01*
G01*
G37*
G36*
G01*
X109775000Y-63968750D02*
X109775000Y-64531250D01*
G75*
G02*
X109531250Y-64775000I-243750J0D01*
G01*
X109043750Y-64775000D01*
G75*
G02*
X108800000Y-64531250I0J243750D01*
G01*
X108800000Y-63968750D01*
G75*
G02*
X109043750Y-63725000I243750J0D01*
G01*
X109531250Y-63725000D01*
G75*
G02*
X109775000Y-63968750I0J-243750D01*
G01*
G37*
%TD*%
%TO.C,R10*%
G36*
G01*
X145087500Y-72031250D02*
X145087500Y-71468750D01*
G75*
G02*
X145331250Y-71225000I243750J0D01*
G01*
X145818750Y-71225000D01*
G75*
G02*
X146062500Y-71468750I0J-243750D01*
G01*
X146062500Y-72031250D01*
G75*
G02*
X145818750Y-72275000I-243750J0D01*
G01*
X145331250Y-72275000D01*
G75*
G02*
X145087500Y-72031250I0J243750D01*
G01*
G37*
G36*
G01*
X143512500Y-72031250D02*
X143512500Y-71468750D01*
G75*
G02*
X143756250Y-71225000I243750J0D01*
G01*
X144243750Y-71225000D01*
G75*
G02*
X144487500Y-71468750I0J-243750D01*
G01*
X144487500Y-72031250D01*
G75*
G02*
X144243750Y-72275000I-243750J0D01*
G01*
X143756250Y-72275000D01*
G75*
G02*
X143512500Y-72031250I0J243750D01*
G01*
G37*
%TD*%
D10*
%TO.C,H5*%
X212750000Y-47000000D03*
%TD*%
D11*
%TO.C,C10*%
X202750000Y-49250000D03*
D12*
X202750000Y-44250000D03*
%TD*%
D11*
%TO.C,C9*%
X213000000Y-132250000D03*
X218000000Y-132250000D03*
%TD*%
D13*
%TO.C,C8*%
X209750000Y-133000000D03*
D14*
X191750000Y-133000000D03*
%TD*%
D11*
%TO.C,C7*%
X79500000Y-128750000D03*
X84500000Y-128750000D03*
%TD*%
D13*
%TO.C,C6*%
X94750000Y-117250000D03*
D14*
X94750000Y-135250000D03*
%TD*%
D11*
%TO.C,C3*%
X131250000Y-54000000D03*
X131250000Y-59000000D03*
%TD*%
D10*
%TO.C,H4*%
X80000000Y-135000000D03*
%TD*%
%TO.C,H3*%
X223000000Y-135000000D03*
%TD*%
%TO.C,H2*%
X130000000Y-93000000D03*
%TD*%
%TO.C,H1*%
X223000000Y-47000000D03*
%TD*%
D15*
%TO.C,J10*%
X84600000Y-87400000D03*
D16*
X79600000Y-82800000D03*
D17*
X82060000Y-88300000D03*
X84600000Y-89600000D03*
X82060000Y-90500000D03*
D16*
X79600000Y-95000000D03*
%TD*%
D18*
%TO.C,R3*%
X108700000Y-127740000D03*
X116200000Y-127740000D03*
X108700000Y-122700000D03*
X116200000Y-122700000D03*
X108700000Y-117660000D03*
X116200000Y-117660000D03*
X108700000Y-102400000D03*
X116200000Y-102400000D03*
%TD*%
%TO.C,R9*%
X122700000Y-127740000D03*
X130200000Y-127740000D03*
X122700000Y-122700000D03*
X130200000Y-122700000D03*
X122700000Y-117660000D03*
X130200000Y-117660000D03*
X122700000Y-102400000D03*
X130200000Y-102400000D03*
%TD*%
D19*
%TO.C,U1*%
X120380000Y-79400000D03*
X128000000Y-46380000D03*
X120380000Y-76860000D03*
X128000000Y-48920000D03*
X120380000Y-74320000D03*
X128000000Y-51460000D03*
X120380000Y-71780000D03*
X128000000Y-54000000D03*
X120380000Y-69240000D03*
X128000000Y-56540000D03*
X120380000Y-66700000D03*
X128000000Y-59080000D03*
X120380000Y-64160000D03*
X128000000Y-61620000D03*
X120380000Y-61620000D03*
X128000000Y-64160000D03*
X120380000Y-59080000D03*
X128000000Y-66700000D03*
X120380000Y-56540000D03*
X128000000Y-69240000D03*
X120380000Y-54000000D03*
X128000000Y-71780000D03*
X120380000Y-51460000D03*
X128000000Y-74320000D03*
X120380000Y-48920000D03*
X128000000Y-76860000D03*
X120380000Y-46380000D03*
D12*
X128000000Y-79400000D03*
%TD*%
D19*
%TO.C,R8*%
X81600000Y-124360000D03*
D11*
X81600000Y-114200000D03*
%TD*%
D15*
%TO.C,J4*%
X84600000Y-102600000D03*
D16*
X79600000Y-98000000D03*
D17*
X82060000Y-103500000D03*
X84600000Y-104800000D03*
X82060000Y-105700000D03*
D16*
X79600000Y-110200000D03*
%TD*%
D20*
%TO.C,D6*%
X77500000Y-122600000D03*
D21*
X75000000Y-122600000D03*
%TD*%
D20*
%TO.C,D1*%
X76200000Y-116700000D03*
D21*
X76200000Y-114200000D03*
%TD*%
D11*
%TO.C,C2*%
X135250000Y-54000000D03*
X135250000Y-59000000D03*
%TD*%
D22*
%TO.C,JP1*%
X117200000Y-56200000D03*
X114700000Y-56200000D03*
D23*
X112200000Y-56200000D03*
%TD*%
D22*
%TO.C,JP3*%
X117200000Y-46600000D03*
X114700000Y-46600000D03*
D23*
X112200000Y-46600000D03*
%TD*%
D22*
%TO.C,JP2*%
X117200000Y-51400000D03*
X114700000Y-51400000D03*
D23*
X112200000Y-51400000D03*
%TD*%
D24*
%TO.C,U2*%
X162600000Y-51080000D03*
X162600000Y-48540000D03*
D25*
X162600000Y-46000000D03*
%TD*%
D26*
%TO.C,J1*%
X189480000Y-46800000D03*
D27*
X184400000Y-46800000D03*
%TD*%
D11*
%TO.C,C5*%
X167200000Y-46000000D03*
X167200000Y-51000000D03*
%TD*%
%TO.C,C4*%
X175800000Y-45400000D03*
D12*
X175800000Y-50400000D03*
%TD*%
D18*
%TO.C,R36*%
X226900000Y-57460000D03*
X219400000Y-57460000D03*
X226900000Y-62500000D03*
X219400000Y-62500000D03*
X226900000Y-67540000D03*
X219400000Y-67540000D03*
X226900000Y-82800000D03*
X219400000Y-82800000D03*
%TD*%
%TO.C,R35*%
X219300000Y-127740000D03*
X226800000Y-127740000D03*
X219300000Y-122700000D03*
X226800000Y-122700000D03*
X219300000Y-117660000D03*
X226800000Y-117660000D03*
X219300000Y-102400000D03*
X226800000Y-102400000D03*
%TD*%
%TO.C,R34*%
X171700000Y-57460000D03*
X164200000Y-57460000D03*
X171700000Y-62500000D03*
X164200000Y-62500000D03*
X171700000Y-67540000D03*
X164200000Y-67540000D03*
X171700000Y-82800000D03*
X164200000Y-82800000D03*
%TD*%
%TO.C,R32*%
X213100000Y-57460000D03*
X205600000Y-57460000D03*
X213100000Y-62500000D03*
X205600000Y-62500000D03*
X213100000Y-67540000D03*
X205600000Y-67540000D03*
X213100000Y-82800000D03*
X205600000Y-82800000D03*
%TD*%
%TO.C,R31*%
X205500000Y-127740000D03*
X213000000Y-127740000D03*
X205500000Y-122700000D03*
X213000000Y-122700000D03*
X205500000Y-117660000D03*
X213000000Y-117660000D03*
X205500000Y-102400000D03*
X213000000Y-102400000D03*
%TD*%
%TO.C,R30*%
X157900000Y-57460000D03*
X150400000Y-57460000D03*
X157900000Y-62500000D03*
X150400000Y-62500000D03*
X157900000Y-67540000D03*
X150400000Y-67540000D03*
X157900000Y-82800000D03*
X150400000Y-82800000D03*
%TD*%
%TO.C,R28*%
X199300000Y-57460000D03*
X191800000Y-57460000D03*
X199300000Y-62500000D03*
X191800000Y-62500000D03*
X199300000Y-67540000D03*
X191800000Y-67540000D03*
X199300000Y-82800000D03*
X191800000Y-82800000D03*
%TD*%
%TO.C,R27*%
X191700000Y-127740000D03*
X199200000Y-127740000D03*
X191700000Y-122700000D03*
X199200000Y-122700000D03*
X191700000Y-117660000D03*
X199200000Y-117660000D03*
X191700000Y-102400000D03*
X199200000Y-102400000D03*
%TD*%
%TO.C,R26*%
X177900000Y-127740000D03*
X185400000Y-127740000D03*
X177900000Y-122700000D03*
X185400000Y-122700000D03*
X177900000Y-117660000D03*
X185400000Y-117660000D03*
X177900000Y-102400000D03*
X185400000Y-102400000D03*
%TD*%
%TO.C,R22*%
X164100000Y-127740000D03*
X171600000Y-127740000D03*
X164100000Y-122700000D03*
X171600000Y-122700000D03*
X164100000Y-117660000D03*
X171600000Y-117660000D03*
X164100000Y-102400000D03*
X171600000Y-102400000D03*
%TD*%
D28*
%TO.C,J9*%
X223800000Y-91600000D03*
D29*
G36*
X225090245Y-98449039D02*
G01*
X225080866Y-98446194D01*
X225072221Y-98441573D01*
X225064645Y-98435355D01*
X225058427Y-98427779D01*
X225053806Y-98419134D01*
X225050961Y-98409755D01*
X225050000Y-98400000D01*
X225050000Y-94800000D01*
X225050961Y-94790245D01*
X225053806Y-94780866D01*
X225058427Y-94772221D01*
X225064645Y-94764645D01*
X225072221Y-94758427D01*
X225080866Y-94753806D01*
X225090245Y-94750961D01*
X225100000Y-94750000D01*
X227500000Y-94750000D01*
X227509755Y-94750961D01*
X227519134Y-94753806D01*
X227527779Y-94758427D01*
X227535355Y-94764645D01*
X227541573Y-94772221D01*
X227546194Y-94780866D01*
X227549039Y-94790245D01*
X227550000Y-94800000D01*
X227550000Y-98400000D01*
X227549039Y-98409755D01*
X227546194Y-98419134D01*
X227541573Y-98427779D01*
X227535355Y-98435355D01*
X227527779Y-98441573D01*
X227519134Y-98446194D01*
X227509755Y-98449039D01*
X227500000Y-98450000D01*
X225100000Y-98450000D01*
X225090245Y-98449039D01*
G37*
D28*
X221300000Y-96600000D03*
X218800000Y-91600000D03*
X216300000Y-96600000D03*
X213800000Y-91600000D03*
%TD*%
%TO.C,J8*%
X204600000Y-91600000D03*
D29*
G36*
X205890245Y-98449039D02*
G01*
X205880866Y-98446194D01*
X205872221Y-98441573D01*
X205864645Y-98435355D01*
X205858427Y-98427779D01*
X205853806Y-98419134D01*
X205850961Y-98409755D01*
X205850000Y-98400000D01*
X205850000Y-94800000D01*
X205850961Y-94790245D01*
X205853806Y-94780866D01*
X205858427Y-94772221D01*
X205864645Y-94764645D01*
X205872221Y-94758427D01*
X205880866Y-94753806D01*
X205890245Y-94750961D01*
X205900000Y-94750000D01*
X208300000Y-94750000D01*
X208309755Y-94750961D01*
X208319134Y-94753806D01*
X208327779Y-94758427D01*
X208335355Y-94764645D01*
X208341573Y-94772221D01*
X208346194Y-94780866D01*
X208349039Y-94790245D01*
X208350000Y-94800000D01*
X208350000Y-98400000D01*
X208349039Y-98409755D01*
X208346194Y-98419134D01*
X208341573Y-98427779D01*
X208335355Y-98435355D01*
X208327779Y-98441573D01*
X208319134Y-98446194D01*
X208309755Y-98449039D01*
X208300000Y-98450000D01*
X205900000Y-98450000D01*
X205890245Y-98449039D01*
G37*
D28*
X202100000Y-96600000D03*
X199600000Y-91600000D03*
X197100000Y-96600000D03*
X194600000Y-91600000D03*
%TD*%
%TO.C,J7*%
X185200000Y-91600000D03*
D29*
G36*
X186490245Y-98449039D02*
G01*
X186480866Y-98446194D01*
X186472221Y-98441573D01*
X186464645Y-98435355D01*
X186458427Y-98427779D01*
X186453806Y-98419134D01*
X186450961Y-98409755D01*
X186450000Y-98400000D01*
X186450000Y-94800000D01*
X186450961Y-94790245D01*
X186453806Y-94780866D01*
X186458427Y-94772221D01*
X186464645Y-94764645D01*
X186472221Y-94758427D01*
X186480866Y-94753806D01*
X186490245Y-94750961D01*
X186500000Y-94750000D01*
X188900000Y-94750000D01*
X188909755Y-94750961D01*
X188919134Y-94753806D01*
X188927779Y-94758427D01*
X188935355Y-94764645D01*
X188941573Y-94772221D01*
X188946194Y-94780866D01*
X188949039Y-94790245D01*
X188950000Y-94800000D01*
X188950000Y-98400000D01*
X188949039Y-98409755D01*
X188946194Y-98419134D01*
X188941573Y-98427779D01*
X188935355Y-98435355D01*
X188927779Y-98441573D01*
X188919134Y-98446194D01*
X188909755Y-98449039D01*
X188900000Y-98450000D01*
X186500000Y-98450000D01*
X186490245Y-98449039D01*
G37*
D28*
X182700000Y-96600000D03*
X180200000Y-91600000D03*
X177700000Y-96600000D03*
X175200000Y-91600000D03*
%TD*%
%TO.C,J6*%
X165800000Y-91600000D03*
D29*
G36*
X167090245Y-98449039D02*
G01*
X167080866Y-98446194D01*
X167072221Y-98441573D01*
X167064645Y-98435355D01*
X167058427Y-98427779D01*
X167053806Y-98419134D01*
X167050961Y-98409755D01*
X167050000Y-98400000D01*
X167050000Y-94800000D01*
X167050961Y-94790245D01*
X167053806Y-94780866D01*
X167058427Y-94772221D01*
X167064645Y-94764645D01*
X167072221Y-94758427D01*
X167080866Y-94753806D01*
X167090245Y-94750961D01*
X167100000Y-94750000D01*
X169500000Y-94750000D01*
X169509755Y-94750961D01*
X169519134Y-94753806D01*
X169527779Y-94758427D01*
X169535355Y-94764645D01*
X169541573Y-94772221D01*
X169546194Y-94780866D01*
X169549039Y-94790245D01*
X169550000Y-94800000D01*
X169550000Y-98400000D01*
X169549039Y-98409755D01*
X169546194Y-98419134D01*
X169541573Y-98427779D01*
X169535355Y-98435355D01*
X169527779Y-98441573D01*
X169519134Y-98446194D01*
X169509755Y-98449039D01*
X169500000Y-98450000D01*
X167100000Y-98450000D01*
X167090245Y-98449039D01*
G37*
D28*
X163300000Y-96600000D03*
X160800000Y-91600000D03*
X158300000Y-96600000D03*
X155800000Y-91600000D03*
%TD*%
D30*
%TO.C,J3*%
X77200000Y-67200000D03*
D29*
G36*
X84049039Y-65909755D02*
G01*
X84046194Y-65919134D01*
X84041573Y-65927779D01*
X84035355Y-65935355D01*
X84027779Y-65941573D01*
X84019134Y-65946194D01*
X84009755Y-65949039D01*
X84000000Y-65950000D01*
X80400000Y-65950000D01*
X80390245Y-65949039D01*
X80380866Y-65946194D01*
X80372221Y-65941573D01*
X80364645Y-65935355D01*
X80358427Y-65927779D01*
X80353806Y-65919134D01*
X80350961Y-65909755D01*
X80350000Y-65900000D01*
X80350000Y-63500000D01*
X80350961Y-63490245D01*
X80353806Y-63480866D01*
X80358427Y-63472221D01*
X80364645Y-63464645D01*
X80372221Y-63458427D01*
X80380866Y-63453806D01*
X80390245Y-63450961D01*
X80400000Y-63450000D01*
X84000000Y-63450000D01*
X84009755Y-63450961D01*
X84019134Y-63453806D01*
X84027779Y-63458427D01*
X84035355Y-63464645D01*
X84041573Y-63472221D01*
X84046194Y-63480866D01*
X84049039Y-63490245D01*
X84050000Y-63500000D01*
X84050000Y-65900000D01*
X84049039Y-65909755D01*
G37*
D30*
X82200000Y-69700000D03*
X77200000Y-72200000D03*
X82200000Y-74700000D03*
X77200000Y-77200000D03*
%TD*%
%TO.C,J2*%
X77200000Y-47200000D03*
D29*
G36*
X84049039Y-45909755D02*
G01*
X84046194Y-45919134D01*
X84041573Y-45927779D01*
X84035355Y-45935355D01*
X84027779Y-45941573D01*
X84019134Y-45946194D01*
X84009755Y-45949039D01*
X84000000Y-45950000D01*
X80400000Y-45950000D01*
X80390245Y-45949039D01*
X80380866Y-45946194D01*
X80372221Y-45941573D01*
X80364645Y-45935355D01*
X80358427Y-45927779D01*
X80353806Y-45919134D01*
X80350961Y-45909755D01*
X80350000Y-45900000D01*
X80350000Y-43500000D01*
X80350961Y-43490245D01*
X80353806Y-43480866D01*
X80358427Y-43472221D01*
X80364645Y-43464645D01*
X80372221Y-43458427D01*
X80380866Y-43453806D01*
X80390245Y-43450961D01*
X80400000Y-43450000D01*
X84000000Y-43450000D01*
X84009755Y-43450961D01*
X84019134Y-43453806D01*
X84027779Y-43458427D01*
X84035355Y-43464645D01*
X84041573Y-43472221D01*
X84046194Y-43480866D01*
X84049039Y-43490245D01*
X84050000Y-43500000D01*
X84050000Y-45900000D01*
X84049039Y-45909755D01*
G37*
D30*
X82200000Y-49700000D03*
X77200000Y-52200000D03*
X82200000Y-54700000D03*
X77200000Y-57200000D03*
%TD*%
D28*
%TO.C,J5*%
X146200000Y-91600000D03*
D29*
G36*
X147490245Y-98449039D02*
G01*
X147480866Y-98446194D01*
X147472221Y-98441573D01*
X147464645Y-98435355D01*
X147458427Y-98427779D01*
X147453806Y-98419134D01*
X147450961Y-98409755D01*
X147450000Y-98400000D01*
X147450000Y-94800000D01*
X147450961Y-94790245D01*
X147453806Y-94780866D01*
X147458427Y-94772221D01*
X147464645Y-94764645D01*
X147472221Y-94758427D01*
X147480866Y-94753806D01*
X147490245Y-94750961D01*
X147500000Y-94750000D01*
X149900000Y-94750000D01*
X149909755Y-94750961D01*
X149919134Y-94753806D01*
X149927779Y-94758427D01*
X149935355Y-94764645D01*
X149941573Y-94772221D01*
X149946194Y-94780866D01*
X149949039Y-94790245D01*
X149950000Y-94800000D01*
X149950000Y-98400000D01*
X149949039Y-98409755D01*
X149946194Y-98419134D01*
X149941573Y-98427779D01*
X149935355Y-98435355D01*
X149927779Y-98441573D01*
X149919134Y-98446194D01*
X149909755Y-98449039D01*
X149900000Y-98450000D01*
X147500000Y-98450000D01*
X147490245Y-98449039D01*
G37*
D28*
X143700000Y-96600000D03*
X141200000Y-91600000D03*
X138700000Y-96600000D03*
X136200000Y-91600000D03*
%TD*%
D16*
%TO.C,R33*%
X97560000Y-78800000D03*
X97560000Y-73720000D03*
X89940000Y-78800000D03*
D31*
X87400000Y-78800000D03*
D16*
X89940000Y-73720000D03*
X87400000Y-73720000D03*
%TD*%
%TO.C,R14*%
X97560000Y-58600000D03*
X97560000Y-53520000D03*
X89940000Y-58600000D03*
D31*
X87400000Y-58600000D03*
D16*
X89940000Y-53520000D03*
X87400000Y-53520000D03*
%TD*%
D18*
%TO.C,R29*%
X150300000Y-127740000D03*
X157800000Y-127740000D03*
X150300000Y-122700000D03*
X157800000Y-122700000D03*
X150300000Y-117660000D03*
X157800000Y-117660000D03*
X150300000Y-102400000D03*
X157800000Y-102400000D03*
%TD*%
D16*
%TO.C,R25*%
X97560000Y-68600000D03*
X97560000Y-63520000D03*
X89940000Y-68600000D03*
D31*
X87400000Y-68600000D03*
D16*
X89940000Y-63520000D03*
X87400000Y-63520000D03*
%TD*%
%TO.C,R6*%
X97560000Y-48800000D03*
X97560000Y-43720000D03*
X89940000Y-48800000D03*
D31*
X87400000Y-48800000D03*
D16*
X89940000Y-43720000D03*
X87400000Y-43720000D03*
%TD*%
D18*
%TO.C,R23*%
X185500000Y-57460000D03*
X178000000Y-57460000D03*
X185500000Y-62500000D03*
X178000000Y-62500000D03*
X185500000Y-67540000D03*
X178000000Y-67540000D03*
X185500000Y-82800000D03*
X178000000Y-82800000D03*
%TD*%
%TO.C,R21*%
X136500000Y-127740000D03*
X144000000Y-127740000D03*
X136500000Y-122700000D03*
X144000000Y-122700000D03*
X136500000Y-117660000D03*
X144000000Y-117660000D03*
X136500000Y-102400000D03*
X144000000Y-102400000D03*
%TD*%
D19*
%TO.C,R1*%
X84800000Y-114240000D03*
D11*
X84800000Y-124400000D03*
%TD*%
D32*
%TO.C,D21*%
X104600000Y-64640000D03*
D33*
X104600000Y-74800000D03*
%TD*%
D32*
%TO.C,D10*%
X104600000Y-57560000D03*
D33*
X104600000Y-47400000D03*
%TD*%
D32*
%TO.C,D20*%
X101000000Y-64640000D03*
D33*
X101000000Y-74800000D03*
%TD*%
D32*
%TO.C,D4*%
X101000000Y-57560000D03*
D33*
X101000000Y-47400000D03*
%TD*%
D11*
%TO.C,C1*%
X195600000Y-49200000D03*
X195600000Y-44200000D03*
%TD*%
M02*
