%TF.GenerationSoftware,KiCad,Pcbnew,(5.1.6)-1*%
%TF.CreationDate,2021-11-13T13:18:40+01:00*%
%TF.ProjectId,MCP23017 Sensor Board,4d435032-3330-4313-9720-53656e736f72,rev?*%
%TF.SameCoordinates,Original*%
%TF.FileFunction,Paste,Top*%
%TF.FilePolarity,Positive*%
%FSLAX46Y46*%
G04 Gerber Fmt 4.6, Leading zero omitted, Abs format (unit mm)*
G04 Created by KiCad (PCBNEW (5.1.6)-1) date 2021-11-13 13:18:40*
%MOMM*%
%LPD*%
G01*
G04 APERTURE LIST*
G04 APERTURE END LIST*
%TO.C,R16*%
G36*
G01*
X113400000Y-66493750D02*
X113400000Y-67006250D01*
G75*
G02*
X113181250Y-67225000I-218750J0D01*
G01*
X112743750Y-67225000D01*
G75*
G02*
X112525000Y-67006250I0J218750D01*
G01*
X112525000Y-66493750D01*
G75*
G02*
X112743750Y-66275000I218750J0D01*
G01*
X113181250Y-66275000D01*
G75*
G02*
X113400000Y-66493750I0J-218750D01*
G01*
G37*
G36*
G01*
X114975000Y-66493750D02*
X114975000Y-67006250D01*
G75*
G02*
X114756250Y-67225000I-218750J0D01*
G01*
X114318750Y-67225000D01*
G75*
G02*
X114100000Y-67006250I0J218750D01*
G01*
X114100000Y-66493750D01*
G75*
G02*
X114318750Y-66275000I218750J0D01*
G01*
X114756250Y-66275000D01*
G75*
G02*
X114975000Y-66493750I0J-218750D01*
G01*
G37*
%TD*%
%TO.C,R17*%
G36*
G01*
X107612500Y-74493750D02*
X107612500Y-75006250D01*
G75*
G02*
X107393750Y-75225000I-218750J0D01*
G01*
X106956250Y-75225000D01*
G75*
G02*
X106737500Y-75006250I0J218750D01*
G01*
X106737500Y-74493750D01*
G75*
G02*
X106956250Y-74275000I218750J0D01*
G01*
X107393750Y-74275000D01*
G75*
G02*
X107612500Y-74493750I0J-218750D01*
G01*
G37*
G36*
G01*
X109187500Y-74493750D02*
X109187500Y-75006250D01*
G75*
G02*
X108968750Y-75225000I-218750J0D01*
G01*
X108531250Y-75225000D01*
G75*
G02*
X108312500Y-75006250I0J218750D01*
G01*
X108312500Y-74493750D01*
G75*
G02*
X108531250Y-74275000I218750J0D01*
G01*
X108968750Y-74275000D01*
G75*
G02*
X109187500Y-74493750I0J-218750D01*
G01*
G37*
%TD*%
%TO.C,R13*%
G36*
G01*
X114400000Y-61493750D02*
X114400000Y-62006250D01*
G75*
G02*
X114181250Y-62225000I-218750J0D01*
G01*
X113743750Y-62225000D01*
G75*
G02*
X113525000Y-62006250I0J218750D01*
G01*
X113525000Y-61493750D01*
G75*
G02*
X113743750Y-61275000I218750J0D01*
G01*
X114181250Y-61275000D01*
G75*
G02*
X114400000Y-61493750I0J-218750D01*
G01*
G37*
G36*
G01*
X115975000Y-61493750D02*
X115975000Y-62006250D01*
G75*
G02*
X115756250Y-62225000I-218750J0D01*
G01*
X115318750Y-62225000D01*
G75*
G02*
X115100000Y-62006250I0J218750D01*
G01*
X115100000Y-61493750D01*
G75*
G02*
X115318750Y-61275000I218750J0D01*
G01*
X115756250Y-61275000D01*
G75*
G02*
X115975000Y-61493750I0J-218750D01*
G01*
G37*
%TD*%
%TO.C,R12*%
G36*
G01*
X132137500Y-64256250D02*
X132137500Y-63743750D01*
G75*
G02*
X132356250Y-63525000I218750J0D01*
G01*
X132793750Y-63525000D01*
G75*
G02*
X133012500Y-63743750I0J-218750D01*
G01*
X133012500Y-64256250D01*
G75*
G02*
X132793750Y-64475000I-218750J0D01*
G01*
X132356250Y-64475000D01*
G75*
G02*
X132137500Y-64256250I0J218750D01*
G01*
G37*
G36*
G01*
X130562500Y-64256250D02*
X130562500Y-63743750D01*
G75*
G02*
X130781250Y-63525000I218750J0D01*
G01*
X131218750Y-63525000D01*
G75*
G02*
X131437500Y-63743750I0J-218750D01*
G01*
X131437500Y-64256250D01*
G75*
G02*
X131218750Y-64475000I-218750J0D01*
G01*
X130781250Y-64475000D01*
G75*
G02*
X130562500Y-64256250I0J218750D01*
G01*
G37*
%TD*%
%TO.C,R18*%
G36*
G01*
X154350000Y-115506250D02*
X154350000Y-114993750D01*
G75*
G02*
X154568750Y-114775000I218750J0D01*
G01*
X155006250Y-114775000D01*
G75*
G02*
X155225000Y-114993750I0J-218750D01*
G01*
X155225000Y-115506250D01*
G75*
G02*
X155006250Y-115725000I-218750J0D01*
G01*
X154568750Y-115725000D01*
G75*
G02*
X154350000Y-115506250I0J218750D01*
G01*
G37*
G36*
G01*
X152775000Y-115506250D02*
X152775000Y-114993750D01*
G75*
G02*
X152993750Y-114775000I218750J0D01*
G01*
X153431250Y-114775000D01*
G75*
G02*
X153650000Y-114993750I0J-218750D01*
G01*
X153650000Y-115506250D01*
G75*
G02*
X153431250Y-115725000I-218750J0D01*
G01*
X152993750Y-115725000D01*
G75*
G02*
X152775000Y-115506250I0J218750D01*
G01*
G37*
%TD*%
%TO.C,R7*%
G36*
G01*
X180062500Y-136006250D02*
X180062500Y-135493750D01*
G75*
G02*
X180281250Y-135275000I218750J0D01*
G01*
X180718750Y-135275000D01*
G75*
G02*
X180937500Y-135493750I0J-218750D01*
G01*
X180937500Y-136006250D01*
G75*
G02*
X180718750Y-136225000I-218750J0D01*
G01*
X180281250Y-136225000D01*
G75*
G02*
X180062500Y-136006250I0J218750D01*
G01*
G37*
G36*
G01*
X178487500Y-136006250D02*
X178487500Y-135493750D01*
G75*
G02*
X178706250Y-135275000I218750J0D01*
G01*
X179143750Y-135275000D01*
G75*
G02*
X179362500Y-135493750I0J-218750D01*
G01*
X179362500Y-136006250D01*
G75*
G02*
X179143750Y-136225000I-218750J0D01*
G01*
X178706250Y-136225000D01*
G75*
G02*
X178487500Y-136006250I0J218750D01*
G01*
G37*
%TD*%
%TO.C,R19*%
G36*
G01*
X165812500Y-114006250D02*
X165812500Y-113493750D01*
G75*
G02*
X166031250Y-113275000I218750J0D01*
G01*
X166468750Y-113275000D01*
G75*
G02*
X166687500Y-113493750I0J-218750D01*
G01*
X166687500Y-114006250D01*
G75*
G02*
X166468750Y-114225000I-218750J0D01*
G01*
X166031250Y-114225000D01*
G75*
G02*
X165812500Y-114006250I0J218750D01*
G01*
G37*
G36*
G01*
X164237500Y-114006250D02*
X164237500Y-113493750D01*
G75*
G02*
X164456250Y-113275000I218750J0D01*
G01*
X164893750Y-113275000D01*
G75*
G02*
X165112500Y-113493750I0J-218750D01*
G01*
X165112500Y-114006250D01*
G75*
G02*
X164893750Y-114225000I-218750J0D01*
G01*
X164456250Y-114225000D01*
G75*
G02*
X164237500Y-114006250I0J218750D01*
G01*
G37*
%TD*%
%TO.C,R11*%
G36*
G01*
X132137500Y-66756250D02*
X132137500Y-66243750D01*
G75*
G02*
X132356250Y-66025000I218750J0D01*
G01*
X132793750Y-66025000D01*
G75*
G02*
X133012500Y-66243750I0J-218750D01*
G01*
X133012500Y-66756250D01*
G75*
G02*
X132793750Y-66975000I-218750J0D01*
G01*
X132356250Y-66975000D01*
G75*
G02*
X132137500Y-66756250I0J218750D01*
G01*
G37*
G36*
G01*
X130562500Y-66756250D02*
X130562500Y-66243750D01*
G75*
G02*
X130781250Y-66025000I218750J0D01*
G01*
X131218750Y-66025000D01*
G75*
G02*
X131437500Y-66243750I0J-218750D01*
G01*
X131437500Y-66756250D01*
G75*
G02*
X131218750Y-66975000I-218750J0D01*
G01*
X130781250Y-66975000D01*
G75*
G02*
X130562500Y-66756250I0J218750D01*
G01*
G37*
%TD*%
%TO.C,R2*%
G36*
G01*
X140100000Y-65256250D02*
X140100000Y-64743750D01*
G75*
G02*
X140318750Y-64525000I218750J0D01*
G01*
X140756250Y-64525000D01*
G75*
G02*
X140975000Y-64743750I0J-218750D01*
G01*
X140975000Y-65256250D01*
G75*
G02*
X140756250Y-65475000I-218750J0D01*
G01*
X140318750Y-65475000D01*
G75*
G02*
X140100000Y-65256250I0J218750D01*
G01*
G37*
G36*
G01*
X138525000Y-65256250D02*
X138525000Y-64743750D01*
G75*
G02*
X138743750Y-64525000I218750J0D01*
G01*
X139181250Y-64525000D01*
G75*
G02*
X139400000Y-64743750I0J-218750D01*
G01*
X139400000Y-65256250D01*
G75*
G02*
X139181250Y-65475000I-218750J0D01*
G01*
X138743750Y-65475000D01*
G75*
G02*
X138525000Y-65256250I0J218750D01*
G01*
G37*
%TD*%
%TO.C,R4*%
G36*
G01*
X183350000Y-132756250D02*
X183350000Y-132243750D01*
G75*
G02*
X183568750Y-132025000I218750J0D01*
G01*
X184006250Y-132025000D01*
G75*
G02*
X184225000Y-132243750I0J-218750D01*
G01*
X184225000Y-132756250D01*
G75*
G02*
X184006250Y-132975000I-218750J0D01*
G01*
X183568750Y-132975000D01*
G75*
G02*
X183350000Y-132756250I0J218750D01*
G01*
G37*
G36*
G01*
X181775000Y-132756250D02*
X181775000Y-132243750D01*
G75*
G02*
X181993750Y-132025000I218750J0D01*
G01*
X182431250Y-132025000D01*
G75*
G02*
X182650000Y-132243750I0J-218750D01*
G01*
X182650000Y-132756250D01*
G75*
G02*
X182431250Y-132975000I-218750J0D01*
G01*
X181993750Y-132975000D01*
G75*
G02*
X181775000Y-132756250I0J218750D01*
G01*
G37*
%TD*%
%TO.C,R5*%
G36*
G01*
X186887500Y-136256250D02*
X186887500Y-135743750D01*
G75*
G02*
X187106250Y-135525000I218750J0D01*
G01*
X187543750Y-135525000D01*
G75*
G02*
X187762500Y-135743750I0J-218750D01*
G01*
X187762500Y-136256250D01*
G75*
G02*
X187543750Y-136475000I-218750J0D01*
G01*
X187106250Y-136475000D01*
G75*
G02*
X186887500Y-136256250I0J218750D01*
G01*
G37*
G36*
G01*
X185312500Y-136256250D02*
X185312500Y-135743750D01*
G75*
G02*
X185531250Y-135525000I218750J0D01*
G01*
X185968750Y-135525000D01*
G75*
G02*
X186187500Y-135743750I0J-218750D01*
G01*
X186187500Y-136256250D01*
G75*
G02*
X185968750Y-136475000I-218750J0D01*
G01*
X185531250Y-136475000D01*
G75*
G02*
X185312500Y-136256250I0J218750D01*
G01*
G37*
%TD*%
%TO.C,R24*%
G36*
G01*
X121887500Y-89506250D02*
X121887500Y-88993750D01*
G75*
G02*
X122106250Y-88775000I218750J0D01*
G01*
X122543750Y-88775000D01*
G75*
G02*
X122762500Y-88993750I0J-218750D01*
G01*
X122762500Y-89506250D01*
G75*
G02*
X122543750Y-89725000I-218750J0D01*
G01*
X122106250Y-89725000D01*
G75*
G02*
X121887500Y-89506250I0J218750D01*
G01*
G37*
G36*
G01*
X120312500Y-89506250D02*
X120312500Y-88993750D01*
G75*
G02*
X120531250Y-88775000I218750J0D01*
G01*
X120968750Y-88775000D01*
G75*
G02*
X121187500Y-88993750I0J-218750D01*
G01*
X121187500Y-89506250D01*
G75*
G02*
X120968750Y-89725000I-218750J0D01*
G01*
X120531250Y-89725000D01*
G75*
G02*
X120312500Y-89506250I0J218750D01*
G01*
G37*
%TD*%
%TO.C,R20*%
G36*
G01*
X133137500Y-47506250D02*
X133137500Y-46993750D01*
G75*
G02*
X133356250Y-46775000I218750J0D01*
G01*
X133793750Y-46775000D01*
G75*
G02*
X134012500Y-46993750I0J-218750D01*
G01*
X134012500Y-47506250D01*
G75*
G02*
X133793750Y-47725000I-218750J0D01*
G01*
X133356250Y-47725000D01*
G75*
G02*
X133137500Y-47506250I0J218750D01*
G01*
G37*
G36*
G01*
X131562500Y-47506250D02*
X131562500Y-46993750D01*
G75*
G02*
X131781250Y-46775000I218750J0D01*
G01*
X132218750Y-46775000D01*
G75*
G02*
X132437500Y-46993750I0J-218750D01*
G01*
X132437500Y-47506250D01*
G75*
G02*
X132218750Y-47725000I-218750J0D01*
G01*
X131781250Y-47725000D01*
G75*
G02*
X131562500Y-47506250I0J218750D01*
G01*
G37*
%TD*%
%TO.C,R15*%
G36*
G01*
X108150000Y-63993750D02*
X108150000Y-64506250D01*
G75*
G02*
X107931250Y-64725000I-218750J0D01*
G01*
X107493750Y-64725000D01*
G75*
G02*
X107275000Y-64506250I0J218750D01*
G01*
X107275000Y-63993750D01*
G75*
G02*
X107493750Y-63775000I218750J0D01*
G01*
X107931250Y-63775000D01*
G75*
G02*
X108150000Y-63993750I0J-218750D01*
G01*
G37*
G36*
G01*
X109725000Y-63993750D02*
X109725000Y-64506250D01*
G75*
G02*
X109506250Y-64725000I-218750J0D01*
G01*
X109068750Y-64725000D01*
G75*
G02*
X108850000Y-64506250I0J218750D01*
G01*
X108850000Y-63993750D01*
G75*
G02*
X109068750Y-63775000I218750J0D01*
G01*
X109506250Y-63775000D01*
G75*
G02*
X109725000Y-63993750I0J-218750D01*
G01*
G37*
%TD*%
%TO.C,R10*%
G36*
G01*
X145137500Y-72006250D02*
X145137500Y-71493750D01*
G75*
G02*
X145356250Y-71275000I218750J0D01*
G01*
X145793750Y-71275000D01*
G75*
G02*
X146012500Y-71493750I0J-218750D01*
G01*
X146012500Y-72006250D01*
G75*
G02*
X145793750Y-72225000I-218750J0D01*
G01*
X145356250Y-72225000D01*
G75*
G02*
X145137500Y-72006250I0J218750D01*
G01*
G37*
G36*
G01*
X143562500Y-72006250D02*
X143562500Y-71493750D01*
G75*
G02*
X143781250Y-71275000I218750J0D01*
G01*
X144218750Y-71275000D01*
G75*
G02*
X144437500Y-71493750I0J-218750D01*
G01*
X144437500Y-72006250D01*
G75*
G02*
X144218750Y-72225000I-218750J0D01*
G01*
X143781250Y-72225000D01*
G75*
G02*
X143562500Y-72006250I0J218750D01*
G01*
G37*
%TD*%
M02*
